{
.appVersion = "3306";
.formatVersion = 3;
axes = (
{
default = 400;
name = weight;
tag = wght;
}
);
classes = (
{
code = "uni0432 uni0433 uni0434 uni0436 uni0437 uni0438 uni0439 uni043A uni043B uni043F uni0442 uni0444 uni0446 uni0448 uni0449 uni044A uni044C uni044E uni044F uni0414 uni041A uni041B uni0424 uni042F uni045D";
name = cyrl_dflt;
},
{
code = "uni0432.loclBGR uni0433.loclBGR uni0434.loclBGR uni0436.loclBGR uni0437.loclBGR uni0438.loclBGR uni0439.loclBGR uni043A.loclBGR uni043B.loclBGR uni043F.loclBGR uni0442.loclBGR uni0444.loclBGR uni0446.loclBGR uni0448.loclBGR uni0449.loclBGR uni044A.loclBGR uni044C.loclBGR uni044E.loclBGR uni044F.loclBGR uni0414.loclBGR uni041A.loclBGR uni041B.loclBGR uni0424.loclBGR uni042F.loclBGR uni045D.loclBGR";
name = cyrl_locl_bgr;
},
{
code = "a aacute abreve acircumflex adieresis adotbelow agrave ahook amacron aogonek aring aringacute atilde abreveacute abrevedotbelow abrevegrave abrevehook abrevetilde acircumflexacute acircumflexdotbelow acircumflexgrave acircumflexhook acircumflextilde";
name = lca_dflt;
},
{
code = "a.alt01 aacute.alt01 abreve.alt01 acircumflex.alt01 adieresis.alt01 adotbelow.alt01 agrave.alt01 ahook.alt01 amacron.alt01 aogonek.alt01 aring.alt01 aringacute.alt01 atilde.alt01 abreveacute.alt01 abrevedotbelow.alt01 abrevegrave.alt01 abrevehook.alt01 abrevetilde.alt01 acircumflexacute.alt01 acircumflexdotbelow.alt01 acircumflexgrave.alt01 acircumflexhook.alt01 acircumflextilde.alt01";
name = lca_alt1;
},
{
code = "uni0430 uni04D3 uni04D1";
name = lca_cyrl_dflt;
},
{
code = "uni0430.alt01 uni04D3.alt01 uni04D1.alt01";
name = lca_cyrl_alt1;
},
{
code = "g gbreve gcircumflex gcommaaccent gdotaccent";
name = lcg_dflt;
},
{
code = "g.alt01 gbreve.alt01 gcircumflex.alt01 gcommaaccent.alt01 gdotaccent.alt01";
name = lcg_alt1;
},
{
code = "zero one two three four five six seven eight nine";
name = numbers_dflt;
},
{

glyphs = (
{
glyphname = A;
layers = (
{
anchors = (
{
name = bottom;
pos = (300,0);
},
{
name = bottomright;
pos = (548,0);
},
{
name = top;
pos = (300,698);
}
);
layerId = m001;
shapes = (
{
closed = 1;
nodes = (
(315,698,l),
(285,698,l),
(52,0,l),
(75,0,l),
(153,234,l),
(447,234,l),
(525,0,l),
(548,0,l)
);
},
{
closed = 1;
nodes = (
(159,253,l),
(298,673,l),
(301,673,l),
(441,253,l)
);
}
);
userData = {
com.typemytype.robofont.pointLabels = {
};
};
width = 600;
},
{
anchors = (
{
name = bottom;
pos = (300,0);
},
{
name = bottomright;
pos = (570,0);
},
{
name = top;
pos = (300,698);
}
);
layerId = m002;
shapes = (
{
closed = 1;
nodes = (
(356,698,l),
(245,698,l),
(31,0,l),
(118,0,l),
(177,199,l),
(422,199,l),
(481,0,l),
(570,0,l)
);
},
{
closed = 1;
nodes = (
(197,272,l),
(295,609,l),
(304,609,l),
(402,272,l)
);
}
);
userData = {
com.typemytype.robofont.pointLabels = {
};
};
width = 600;
},
{
anchors = (
{
name = bottom;
pos = (300,0);
},
{
name = bottomright;
pos = (595,0);
},
{
name = top;
pos = (300,698);
}
);
layerId = m003;
shapes = (
{
closed = 1;
nodes = (
(406,698,l),
(194,698,l),
(5,0,l),
(157,0,l),
(200,168,l),
(391,168,l),
(435,0,l),
(595,0,l)
);
},
{
closed = 1;
nodes = (
(224,289,l),
(292,553,l),
(300,553,l),
(368,289,l)
);
}
);
userData = {
com.typemytype.robofont.pointLabels = {
};
};
width = 600;
}
);
unicode = 65;
},
{
glyphname = Aogonek;
layers = (
{
anchors = (
{
name = bottom;
pos = (300,0);
},
{
name = top;
pos = (300,698);
}
);
layerId = m001;
shapes = (
{
closed = 1;
nodes = (
(75,0,l),
(153,234,l),
(447,234,l),
(525,1,l),
(433,-52,o),
(408,-95,o),
(408,-134,cs),
(408,-179,o),
(442,-202,o),
(487,-202,cs),
(523,-202,o),
(549,-188,o),
(562,-170,c),
(548,-159,l),
(538,-171,o),
(520,-184,o),
(487,-184,cs),
(453,-184,o),
(429,-170,o),
(429,-133,cs),
(429,-80,o),
(477,-46,o),
(548,0,c),
(315,698,l),
(285,698,l),
(52,0,l)
);
},
{
closed = 1;
nodes = (
(159,253,l),
(298,673,l),
(301,673,l),
(441,253,l)
);
}
);
userData = {
com.typemytype.robofont.pointLabels = {
};
};
width = 600;
},
{
anchors = (
{
name = bottom;
pos = (300,0);
},
{
name = top;
pos = (300,698);
}
);
layerId = m002;
shapes = (
{
closed = 1;
nodes = (
(118,0,l),
(177,199,l),
(422,199,l),
(481,0,l),
(503,0,l),
(504,-3,l),
(429,-39,o),
(389,-79,o),
(389,-127,cs),
(389,-180,o),
(437,-207,o),
(498,-207,cs),
(548,-207,o),
(578,-188,o),
(591,-166,c),
(551,-125,l),
(538,-141,o),
(521,-151,o),
(499,-151,cs),
(478,-151,o),
(457,-142,o),
(457,-114,cs),
(457,-94,o),
(467,-65,o),
(570,0,c),
(356,698,l),
(245,698,l),
(31,0,l)
);
},
{
closed = 1;
nodes = (
(197,272,l),
(295,609,l),
(304,609,l),
(402,272,l)
);
}
);
userData = {
com.typemytype.robofont.pointLabels = {
};
};
width = 600;
},
{
anchors = (
{
name = bottom;
pos = (300,0);
},
{
name = top;
pos = (300,698);
}
);
layerId = m003;
shapes = (
{
closed = 1;
nodes = (
(157,0,l),
(200,168,l),
(391,168,l),
(435,0,l),
(498,0,l),
(500,-4,l),
(426,-38,o),
(381,-71,o),
(381,-127,cs),
(381,-191,o),
(439,-212,o),
(505,-212,cs),
(568,-212,o),
(610,-193,o),
(627,-161,c),
(574,-110,l),
(560,-126,o),
(543,-138,o),
(519,-138,cs),
(499,-138,o),
(481,-130,o),
(481,-105,cs),
(481,-81,o),
(497,-60,o),
(595,0,c),
(406,698,l),
(194,698,l),
(5,0,l)
);
},
{
closed = 1;
nodes = (
(224,289,l),
(292,553,l),
(300,553,l),
(368,289,l)
);
}
);
userData = {
com.typemytype.robofont.pointLabels = {
};
};
width = 600;
}
);
unicode = 260;
},
{
glyphname = AE;
layers = (
{
anchors = (
{
name = top;
pos = (393,698);
}
);
layerId = m001;
shapes = (
{
closed = 1;
nodes = (
(549,0,l),
(549,20,l),
(348,20,l),
(348,344,l),
(535,344,l),
(535,364,l),
(348,364,l),
(348,678,l),
(549,678,l),
(549,698,l),
(262,698,l),
(39,0,l),
(63,0,l),
(137,234,l),
(326,234,l),
(326,0,l)
);
},
{
closed = 1;
nodes = (
(326,253,l),
(143,253,l),
(278,678,l),
(326,678,l)
);
}
);
userData = {
com.typemytype.robofont.pointLabels = {
};
};
width = 600;
},
{
anchors = (
{
name = top;
pos = (393,698);
}
);
layerId = m002;
shapes = (
{
closed = 1;
nodes = (
(560,0,l),
(560,69,l),
(392,69,l),
(392,319,l),
(548,319,l),
(548,388,l),
(392,388,l),
(392,629,l),
(560,629,l),
(560,698,l),
(226,698,l),
(20,0,l),
(104,0,l),
(160,201,l),
(312,201,l),
(312,0,l)
);
},
{
closed = 1;
nodes = (
(312,270,l),
(178,270,l),
(281,638,l),
(312,638,l)
);
}
);
userData = {
com.typemytype.robofont.pointLabels = {
};
};
width = 600;
},
{
anchors = (
{
name = top;
pos = (364,698);
}
);
layerId = m003;
shapes = (
{
closed = 1;
nodes = (
(572,0,l),
(572,111,l),
(417,111,l),
(417,298,l),
(562,298,l),
(562,409,l),
(417,409,l),
(417,587,l),
(572,587,l),
(572,698,l),
(155,698,l),
(-4,0,l),
(142,0,l),
(175,168,l),
(279,168,l),
(279,0,l)
);
},
{
closed = 1;
nodes = (
(279,279,l),
(197,279,l),
(257,594,l),
(279,594,l)
);
}
);
userData = {
com.typemytype.robofont.pointLabels = {
};
};
width = 600;
}
);
unicode = 198;
},
{
glyphname = B;
layers = (
{
anchors = (
{
name = bottom;
pos = (294,0);
},
{
name = top;
pos = (274,698);
}
);
layerId = m001;
shapes = (
{
closed = 1;
nodes = (
(342,0,ls),
(456,0,o),
(516,72,o),
(516,182,cs),
(516,277,o),
(473,341,o),
(387,357,c),
(387,359,l),
(448,379,o),
(484,430,o),
(484,521,cs),
(484,637,o),
(423,698,o),
(320,698,cs),
(98,698,l),
(98,0,l)
);
},
{
closed = 1;
nodes = (
(120,344,l),
(342,344,ls),
(445,344,o),
(492,276,o),
(492,203,cs),
(492,161,ls),
(492,88,o),
(445,20,o),
(342,20,cs),
(120,20,l)
);
},
{
closed = 1;
nodes = (
(120,678,l),
(320,678,ls),
(416,678,o),
(460,614,o),
(460,542,cs),
(460,500,ls),
(460,428,o),
(416,364,o),
(320,364,cs),
(120,364,l)
);
}
);
userData = {
com.typemytype.robofont.pointLabels = {
};
};
width = 600;
},
{
anchors = (
{
name = bottom;
pos = (315,0);
},
{
name = top;
pos = (295,698);
}
);
layerId = m002;
shapes = (
{
closed = 1;
nodes = (
(355,0,ls),
(463,0,o),
(543,88,o),
(543,201,cs),
(543,298,o),
(486,347,o),
(408,365,c),
(408,368,l),
(472,388,o),
(517,435,o),
(517,518,cs),
(517,627,o),
(444,698,o),
(325,698,cs),
(88,698,l),
(88,0,l)
);
},
{
closed = 1;
nodes = (
(172,326,l),
(330,326,ls),
(407,326,o),
(454,290,o),
(454,220,cs),
(454,179,ls),
(454,108,o),
(407,73,o),
(330,73,cs),
(172,73,l)
);
},
{
closed = 1;
nodes = (
(172,625,l),
(316,625,ls),
(386,625,o),
(429,593,o),
(429,529,cs),
(429,490,ls),
(429,426,o),
(386,395,o),
(316,395,cs),
(172,395,l)
);
}
);
userData = {
com.typemytype.robofont.pointLabels = {
};
};
width = 600;
},
{
anchors = (
{
name = bottom;
pos = (300,0);
},
{
name = top;
pos = (295,698);
}
);
layerId = m003;
shapes = (
{
closed = 1;
nodes = (
(345,0,ls),
(477,0,o),
(556,75,o),
(556,192,cs),
(556,286,o),
(506,338,o),
(420,359,c),
(420,365,l),
(493,386,o),
(534,433,o),
(534,512,cs),
(534,626,o),
(458,698,o),
(322,698,cs),
(77,698,l),
(77,0,l)
);
},
{
closed = 1;
nodes = (
(223,302,l),
(299,302,ls),
(370,302,o),
(403,281,o),
(403,218,cs),
(403,189,ls),
(403,125,o),
(370,105,o),
(299,105,cs),
(223,105,l)
);
},
{
closed = 1;
nodes = (
(223,593,l),
(280,593,ls),
(350,593,o),
(381,574,o),
(381,513,cs),
(381,483,ls),
(381,422,o),
(350,402,o),
(280,402,cs),
(223,402,l)
);
}
);
userData = {
com.typemytype.robofont.pointLabels = {
};
};
width = 600;
}
);
unicode = 66;
},
{
glyphname = C;
layers = (
{
anchors = (
{
name = bottom;
pos = (313,0);
},
{
name = top;
pos = (325,698);
}
);
layerId = m001;
shapes = (
{
closed = 1;
nodes = (
(419,-12,o),
(488,43,o),
(518,129,c),
(499,136,l),
(472,57,o),
(410,8,o),
(325,8,cs),
(180,8,o),
(103,112,o),
(103,317,cs),
(103,381,ls),
(103,586,o),
(180,690,o),
(325,690,cs),
(410,690,o),
(472,641,o),
(499,562,c),
(518,569,l),
(488,655,o),
(419,710,o),
(325,710,cs),
(167,710,o),
(79,605,o),
(79,349,cs),
(79,93,o),
(167,-12,o),
(325,-12,cs)
);
}
);
userData = {
com.typemytype.robofont.pointLabels = {
};
};
width = 600;
},
{
anchors = (
{
name = bottom;
pos = (308,0);
},
{
name = top;
pos = (328,698);
}
);
layerId = m002;
shapes = (
{
closed = 1;
nodes = (
(451,-12,o),
(504,65,o),
(538,141,c),
(466,174,l),
(441,112,o),
(408,61,o),
(323,61,cs),
(212,61,o),
(159,152,o),
(159,292,cs),
(159,406,ls),
(159,546,o),
(212,637,o),
(323,637,cs),
(408,637,o),
(441,586,o),
(466,524,c),
(538,557,l),
(504,633,o),
(451,710,o),
(323,710,cs),
(153,710,o),
(70,581,o),
(70,349,cs),
(70,117,o),
(153,-12,o),
(323,-12,cs)
);
}
);
userData = {
com.typemytype.robofont.pointLabels = {
};
};
width = 600;
},
{
anchors = (
{
name = bottom;
pos = (303,0);
},
{
name = top;
pos = (312,698);
}
);
layerId = m003;
shapes = (
{
closed = 1;
nodes = (
(460,-12,o),
(535,67,o),
(563,189,c),
(423,223,l),
(408,157,o),
(383,109,o),
(313,109,cs),
(232,109,o),
(201,177,o),
(201,288,cs),
(201,410,l),
(201,521,o),
(232,589,o),
(313,589,cs),
(383,589,o),
(408,541,o),
(423,475,c),
(563,509,l),
(535,631,o),
(460,710,o),
(316,710,cs),
(129,710,o),
(41,578,o),
(41,349,cs),
(41,120,o),
(129,-12,o),
(316,-12,cs)
);
}
);
userData = {
com.typemytype.robofont.pointLabels = {
};
};
width = 600;
}
);
unicode = 67;
},
{
glyphname = Ccedilla;
layers = (
{
anchors = (
{
name = top;
pos = (325,698);
}
);
layerId = m001;
shapes = (
{
closed = 1;
nodes = (
(410,690,o),
(472,641,o),
(499,562,c),
(518,569,l),
(488,655,o),
(419,710,o),
(325,710,cs),
(167,710,o),
(79,605,o),
(79,349,cs),
(79,105,o),
(159,-2,o),
(304,-11,c),
(286,-84,l),
(323,-86,ls),
(368,-88,o),
(384,-107,o),
(384,-132,cs),
(384,-166,o),
(359,-184,o),
(323,-184,cs),
(293,-184,o),
(269,-174,o),
(255,-157,c),
(242,-170,l),
(254,-187,o),
(285,-202,o),
(323,-202,cs),
(374,-202,o),
(405,-169,o),
(405,-131,cs),
(405,-95,o),
(377,-72,o),
(338,-72,cs),
(329,-72,o),
(317,-73,o),
(308,-75,c),
(306,-73,l),
(321,-12,l),
(325,-12,ls),
(419,-12,o),
(488,43,o),
(518,129,c),
(499,136,l),
(472,57,o),
(410,8,o),
(325,8,cs),
(180,8,o),
(103,112,o),
(103,317,cs),
(103,381,ls),
(103,586,o),
(180,690,o),
(325,690,cs)
);
}
);
userData = {
com.typemytype.robofont.pointLabels = {
};
};
width = 600;
},
{
anchors = (
{
name = top;
pos = (328,698);
}
);
layerId = m002;
shapes = (
{
closed = 1;
nodes = (
(408,637,o),
(441,586,o),
(466,524,c),
(538,557,l),
(504,633,o),
(451,710,o),
(323,710,cs),
(153,710,o),
(70,581,o),
(70,349,cs),
(70,136,o),
(139,11,o),
(281,-9,c),
(268,-77,l),
(296,-81,ls),
(352,-89,o),
(364,-104,o),
(364,-122,cs),
(364,-143,o),
(345,-153,o),
(320,-153,cs),
(291,-153,o),
(271,-140,o),
(259,-125,c),
(221,-166,l),
(235,-185,o),
(266,-207,o),
(320,-207,cs),
(379,-207,o),
(431,-181,o),
(431,-124,cs),
(431,-81,o),
(402,-58,o),
(363,-58,cs),
(351,-58,o),
(337,-60,o),
(324,-64,c),
(321,-61,l),
(330,-12,l),
(453,-9,o),
(504,66,o),
(538,141,c),
(466,174,l),
(441,112,o),
(408,61,o),
(323,61,cs),
(212,61,o),
(159,152,o),
(159,292,cs),
(159,406,ls),
(159,546,o),
(212,637,o),
(323,637,cs)
);
}
);
userData = {
com.typemytype.robofont.pointLabels = {
};
};
width = 600;
},
{
anchors = (
{
name = top;
pos = (312,698);
}
);
layerId = m003;
shapes = (
{
closed = 1;
nodes = (
(383,589,o),
(408,541,o),
(423,475,c),
(563,509,l),
(535,631,o),
(460,710,o),
(316,710,cs),
(129,710,o),
(41,578,o),
(41,349,cs),
(41,141,o),
(113,13,o),
(267,-8,c),
(253,-74,l),
(274,-76,ls),
(336,-82,o),
(349,-101,o),
(349,-116,cs),
(349,-133,o),
(330,-141,o),
(305,-141,cs),
(274,-141,o),
(252,-128,o),
(239,-112,c),
(193,-168,l),
(210,-188,o),
(248,-212,o),
(317,-212,cs),
(385,-212,o),
(449,-189,o),
(449,-121,cs),
(449,-72,o),
(416,-52,o),
(376,-52,cs),
(360,-52,o),
(344,-55,o),
(328,-59,c),
(324,-55,l),
(333,-11,l),
(466,-5,o),
(536,72,o),
(563,189,c),
(423,223,l),
(408,157,o),
(383,109,o),
(313,109,cs),
(232,109,o),
(201,177,o),
(201,288,cs),
(201,410,ls),
(201,521,o),
(232,589,o),
(313,589,cs)
);
}
);
userData = {
com.typemytype.robofont.pointLabels = {
};
};
width = 600;
}
);
unicode = 199;
},
{
glyphname = D;
layers = (
{
anchors = (
{
name = bottom;
pos = (277,0);
},
{
name = top;
pos = (277,698);
}
);
layerId = m001;
shapes = (
{
closed = 1;
nodes = (
(290,0,ls),
(457,0,o),
(528,118,o),
(528,349,cs),
(528,580,o),
(457,698,o),
(290,698,cs),
(108,698,l),
(108,0,l)
);
},
{
closed = 1;
nodes = (
(130,678,l),
(291,678,ls),
(440,678,o),
(504,566,o),
(504,381,cs),
(504,317,ls),
(504,132,o),
(440,20,o),
(291,20,cs),
(130,20,l)
);
}
);
userData = {
com.typemytype.robofont.pointLabels = {
};
};
width = 600;
},
{
anchors = (
{
name = bottom;
pos = (277,0);
},
{
name = top;
pos = (277,698);
}
);
layerId = m002;
shapes = (
{
closed = 1;
nodes = (
(290,0,l),
(460,0,o),
(544,120,o),
(544,349,cs),
(544,578,o),
(460,698,o),
(290,698,cs),
(95,698,l),
(95,0,l)
);
},
{
closed = 1;
nodes = (
(179,625,l),
(286,625,ls),
(397,625,o),
(455,543,o),
(455,403,cs),
(455,295,l),
(455,155,o),
(397,73,o),
(286,73,cs),
(179,73,l)
);
}
);
userData = {
com.typemytype.robofont.pointLabels = {
};
};
width = 600;
},
{
anchors = (
{
name = bottom;
pos = (278,0);
},
{
name = top;
pos = (278,698);
}
);
layerId = m003;
shapes = (
{
closed = 1;
nodes = (
(289,0,l),
(476,0,o),
(566,125,o),
(566,349,cs),
(566,573,o),
(476,698,o),
(289,698,cs),
(64,698,l),
(64,0,l)
);
},
{
closed = 1;
nodes = (
(212,580,l),
(279,580,ls),
(368,580,o),
(408,521,o),
(408,413,cs),
(408,286,l),
(408,177,o),
(368,118,o),
(279,118,cs),
(212,118,l)
);
}
);
userData = {
com.typemytype.robofont.pointLabels = {
};
};
width = 600;
}
);
unicode = 68;
},
{
glyphname = Dcroat;
layers = (
{
layerId = m001;
shapes = (
{
closed = 1;
nodes = (
(289,0,ls),
(456,0,o),
(527,118,o),
(527,349,cs),
(527,580,o),
(456,698,o),
(289,698,cs),
(127,698,l),
(127,378,l),
(33,378,l),
(33,359,l),
(127,359,l),
(127,0,l)
);
},
{
closed = 1;
nodes = (
(149,359,l),
(327,359,l),
(327,378,l),
(149,378,l),
(149,678,l),
(290,678,ls),
(439,678,o),
(503,566,o),
(503,381,cs),
(503,317,ls),
(503,132,o),
(439,20,o),
(290,20,cs),
(149,20,l)
);
}
);
userData = {
com.typemytype.robofont.pointLabels = {
};
};
width = 600;
},
{
layerId = m002;
shapes = (
{
closed = 1;
nodes = (
(290,0,ls),
(460,0,o),
(544,120,o),
(544,349,cs),
(544,578,o),
(460,698,o),
(290,698,cs),
(102,698,l),
(102,400,l),
(22,400,l),
(22,336,l),
(102,336,l),
(102,0,l)
);
},
{
closed = 1;
nodes = (
(186,336,l),
(327,336,l),
(327,400,l),
(186,400,l),
(186,625,l),
(286,625,ls),
(397,625,o),
(455,543,o),
(455,403,cs),
(455,295,ls),
(455,155,o),
(397,73,o),
(286,73,cs),
(186,73,l)
);
}
);
userData = {
com.typemytype.robofont.pointLabels = {
};
};
width = 600;
},
{
layerId = m003;
shapes = (
{
closed = 1;
nodes = (
(289,0,ls),
(476,0,o),
(566,125,o),
(566,349,cs),
(566,573,o),
(476,698,o),
(289,698,cs),
(69,698,l),
(69,425,l),
(10,425,l),
(10,311,l),
(69,311,l),
(69,0,l)
);
},
{
closed = 1;
nodes = (
(217,316,l),
(327,316,l),
(327,420,l),
(217,420,l),
(217,580,l),
(279,580,ls),
(368,580,o),
(408,521,o),
(408,413,cs),
(408,286,ls),
(408,177,o),
(368,118,o),
(279,118,cs),
(217,118,l)
);
}
);
userData = {
com.typemytype.robofont.pointLabels = {
};
};
width = 600;
}
);
unicode = 272;
},
{
glyphname = E;
layers = (
{
anchors = (
{
name = bottom;
pos = (307,0);
},
{
name = bottomright;
pos = (514,0);
},
{
name = top;
pos = (309,698);
}
);
layerId = m001;
shapes = (
{
closed = 1;
nodes = (
(514,20,l),
(130,20,l),
(130,344,l),
(500,344,l),
(500,364,l),
(130,364,l),
(130,678,l),
(514,678,l),
(514,698,l),
(108,698,l),
(108,0,l),
(514,0,l)
);
}
);
userData = {
com.typemytype.robofont.pointLabels = {
};
};
width = 600;
},
{
anchors = (
{
name = bottom;
pos = (305,0);
},
{
name = bottomright;
pos = (520,0);
},
{
name = top;
pos = (305,698);
}
);
layerId = m002;
shapes = (
{
closed = 1;
nodes = (
(520,73,l),
(174,73,l),
(174,317,l),
(508,317,l),
(508,390,l),
(174,390,l),
(174,625,l),
(520,625,l),
(520,698,l),
(90,698,l),
(90,0,l),
(520,0,l)
);
}
);
userData = {
com.typemytype.robofont.pointLabels = {
};
};
width = 600;
},
{
anchors = (
{
name = bottom;
pos = (303,0);
},
{
name = bottomright;
pos = (526,0);
},
{
name = top;
pos = (303,698);
}
);
layerId = m003;
shapes = (
{
closed = 1;
nodes = (
(526,123,l),
(230,123,l),
(230,292,l),
(516,292,l),
(516,415,l),
(230,415,l),
(230,575,l),
(526,575,l),
(526,698,l),
(80,698,l),
(80,0,l),
(526,0,l)
);
}
);
userData = {
com.typemytype.robofont.pointLabels = {
};
};
width = 600;
}
);
unicode = 69;
},
{
glyphname = Eogonek;
layers = (
{
anchors = (
{
name = bottom;
pos = (307,0);
},
{
name = top;
pos = (309,698);
}
);
layerId = m001;
shapes = (
{
closed = 1;
nodes = (
(486,0,l),
(487,-2,l),
(400,-51,o),
(374,-95,o),
(374,-134,cs),
(374,-179,o),
(408,-202,o),
(453,-202,cs),
(489,-202,o),
(515,-188,o),
(528,-170,c),
(514,-159,l),
(504,-171,o),
(486,-184,o),
(453,-184,cs),
(419,-184,o),
(395,-170,o),
(395,-133,cs),
(395,-80,o),
(443,-46,o),
(514,0,c),
(514,20,l),
(130,20,l),
(130,344,l),
(500,344,l),
(500,364,l),
(130,364,l),
(130,678,l),
(514,678,l),
(514,698,l),
(108,698,l),
(108,0,l)
);
}
);
userData = {
com.typemytype.robofont.pointLabels = {
};
};
width = 600;
},
{
anchors = (
{
name = bottom;
pos = (305,0);
},
{
name = top;
pos = (305,698);
}
);
layerId = m002;
shapes = (
{
closed = 1;
nodes = (
(453,0,l),
(454,-3,l),
(379,-39,o),
(339,-79,o),
(339,-127,cs),
(339,-180,o),
(387,-207,o),
(448,-207,cs),
(498,-207,o),
(528,-188,o),
(541,-166,c),
(501,-125,l),
(488,-141,o),
(471,-151,o),
(449,-151,cs),
(428,-151,o),
(407,-142,o),
(407,-114,cs),
(407,-94,o),
(417,-65,o),
(520,0,c),
(520,73,l),
(174,73,l),
(174,317,l),
(508,317,l),
(508,390,l),
(174,390,l),
(174,625,l),
(520,625,l),
(520,698,l),
(90,698,l),
(90,0,l)
);
}
);
userData = {
com.typemytype.robofont.pointLabels = {
};
};
width = 600;
},
{
anchors = (
{
name = bottom;
pos = (303,0);
},
{
name = top;
pos = (303,698);
}
);
layerId = m003;
shapes = (
{
closed = 1;
nodes = (
(430,0,l),
(431,-4,l),
(357,-38,o),
(312,-71,o),
(312,-127,cs),
(312,-191,o),
(370,-212,o),
(436,-212,cs),
(499,-212,o),
(541,-193,o),
(558,-161,c),
(505,-110,l),
(491,-126,o),
(474,-138,o),
(450,-138,cs),
(430,-138,o),
(412,-130,o),
(412,-105,cs),
(412,-81,o),
(428,-60,o),
(526,0,c),
(526,123,l),
(230,123,l),
(230,292,l),
(516,292,l),
(516,415,l),
(230,415,l),
(230,575,l),
(526,575,l),
(526,698,l),
(80,698,l),
(80,0,l)
);
}
);
userData = {
com.typemytype.robofont.pointLabels = {
};
};
width = 600;
}
);
unicode = 280;
},
{
glyphname = Schwa;
layers = (
{
layerId = m001;
shapes = (
{
closed = 1;
nodes = (
(446,-12,o),
(529,93,o),
(529,349,cs),
(529,605,o),
(446,710,o),
(300,710,cs),
(196,710,o),
(122,655,o),
(88,537,c),
(109,532,l),
(137,637,o),
(202,690,o),
(300,690,cs),
(433,690,o),
(505,585,o),
(505,380,cs),
(505,340,l),
(71,340,l),
(73,90,o),
(157,-12,o),
(300,-12,cs)
);
},
{
closed = 1;
nodes = (
(167,8,o),
(94,114,o),
(94,316,cs),
(94,320,l),
(505,320,l),
(505,316,ls),
(505,113,o),
(433,8,o),
(300,8,cs)
);
}
);
userData = {
com.typemytype.robofont.pointLabels = {
};
};
width = 600;
},
{
layerId = m002;
shapes = (
{
closed = 1;
nodes = (
(470,-12,o),
(544,121,o),
(544,350,cs),
(544,574,o),
(474,710,o),
(295,710,cs),
(174,710,o),
(94,647,o),
(63,532,c),
(133,499,l),
(170,618,o),
(233,637,o),
(289,637,cs),
(412,637,o),
(455,544,o),
(455,404,cs),
(455,371,l),
(56,371,l),
(56,349,ls),
(56,121,o),
(130,-12,o),
(300,-12,cs)
);
},
{
closed = 1;
nodes = (
(188,61,o),
(143,152,o),
(143,292,cs),
(143,302,l),
(455,302,l),
(455,292,ls),
(455,152,o),
(410,61,o),
(299,61,cs)
);
}
);
userData = {
com.typemytype.robofont.pointLabels = {
};
};
width = 600;
},
{
layerId = m003;
shapes = (
{
closed = 1;
nodes = (
(487,-12,o),
(573,121,o),
(573,349,cs),
(573,577,o),
(488,710,o),
(298,710,cs),
(160,710,o),
(75,639,o),
(43,514,c),
(173,465,l),
(190,538,o),
(222,590,o),
(298,590,cs),
(389,590,o),
(420,517,o),
(420,410,cs),
(420,399,l),
(27,399,l),
(27,349,ls),
(27,121,o),
(113,-12,o),
(300,-12,cs)
);
},
{
closed = 1;
nodes = (
(209,106,o),
(180,175,o),
(180,288,cs),
(180,291,l),
(420,291,l),
(420,288,ls),
(420,175,o),
(391,106,o),
(300,106,cs)
);
}
);
userData = {
com.typemytype.robofont.pointLabels = {
};
};
width = 600;
}
);
unicode = 399;
},
{
glyphname = F;
layers = (
{
anchors = (
{
name = bottom;
pos = (119,0);
},
{
name = top;
pos = (309,698);
}
);
layerId = m001;
shapes = (
{
closed = 1;
nodes = (
(130,344,l),
(490,344,l),
(490,364,l),
(130,364,l),
(130,678,l),
(518,678,l),
(518,698,l),
(108,698,l),
(108,0,l),
(130,0,l)
);
}
);
userData = {
com.typemytype.robofont.pointLabels = {
};
};
width = 600;
},
{
anchors = (
{
name = bottom;
pos = (132,0);
},
{
name = top;
pos = (310,698);
}
);
layerId = m002;
shapes = (
{
closed = 1;
nodes = (
(174,317,l),
(500,317,l),
(500,390,l),
(174,390,l),
(174,625,l),
(530,625,l),
(530,698,l),
(90,698,l),
(90,0,l),
(174,0,l)
);
}
);
userData = {
com.typemytype.robofont.pointLabels = {
};
};
width = 600;
},
{
anchors = (
{
name = bottom;
pos = (151,0);
},
{
name = top;
pos = (311,698);
}
);
layerId = m003;
shapes = (
{
closed = 1;
nodes = (
(230,292,l),
(510,292,l),
(510,415,l),
(230,415,l),
(230,575,l),
(543,575,l),
(543,698,l),
(80,698,l),
(80,0,l),
(230,0,l)
);
}
);
userData = {
com.typemytype.robofont.pointLabels = {
};
};
width = 600;
}
);
unicode = 70;
},
{
glyphname = G;
layers = (
{
anchors = (
{
name = bottom;
pos = (304,0);
},
{
name = top;
pos = (313,698);
}
);
layerId = m001;
shapes = (
{
closed = 1;
nodes = (
(513,0,l),
(513,315,l),
(313,315,l),
(313,295,l),
(491,295,l),
(491,195,ls),
(491,86,o),
(424,8,o),
(313,8,cs),
(174,8,o),
(99,112,o),
(99,317,cs),
(99,381,ls),
(99,586,o),
(174,690,o),
(313,690,cs),
(396,690,o),
(458,641,o),
(484,562,c),
(503,569,l),
(474,655,o),
(405,710,o),
(313,710,cs),
(161,710,o),
(75,605,o),
(75,349,cs),
(75,93,o),
(161,-12,o),
(313,-12,cs),
(417,-12,o),
(461,38,o),
(488,103,c),
(491,103,l),
(491,0,l)
);
}
);
userData = {
com.typemytype.robofont.pointLabels = {
};
};
width = 600;
},
{
anchors = (
{
name = bottom;
pos = (300,0);
},
{
name = top;
pos = (306,698);
}
);
layerId = m002;
shapes = (
{
closed = 1;
nodes = (
(522,0,l),
(522,345,l),
(297,345,l),
(297,278,l),
(444,278,l),
(444,206,ls),
(444,120,o),
(390,59,o),
(300,59,cs),
(186,59,o),
(145,158,o),
(145,298,cs),
(145,406,ls),
(145,546,o),
(196,637,o),
(308,637,cs),
(392,637,o),
(425,586,o),
(450,524,c),
(522,557,l),
(492,633,o),
(436,710,o),
(305,710,cs),
(137,710,o),
(56,582,o),
(56,344,cs),
(56,116,o),
(130,-12,o),
(281,-12,cs),
(377,-12,o),
(416,39,o),
(439,93,c),
(444,93,l),
(444,0,l)
);
}
);
userData = {
com.typemytype.robofont.pointLabels = {
};
};
width = 600;
},
{
anchors = (
{
name = bottom;
pos = (298,0);
},
{
name = top;
pos = (301,698);
}
);
layerId = m003;
shapes = (
{
closed = 1;
nodes = (
(545,0,l),
(545,373,l),
(292,373,l),
(292,267,l),
(411,267,l),
(411,216,ls),
(411,154,o),
(377,109,o),
(310,109,cs),
(223,109,o),
(194,183,o),
(194,296,cs),
(194,410,ls),
(194,522,o),
(222,589,o),
(298,589,cs),
(367,589,o),
(390,534,o),
(405,475,c),
(545,509,l),
(517,629,o),
(445,710,o),
(301,710,cs),
(120,710,o),
(35,580,o),
(35,343,cs),
(35,121,o),
(109,-12,o),
(246,-12,cs),
(332,-12,o),
(379,41,o),
(402,99,c),
(411,99,l),
(411,0,l)
);
}
);
userData = {
com.typemytype.robofont.pointLabels = {
};
};
width = 600;
}
);
unicode = 71;
},
{
glyphname = H;
layers = (
{
anchors = (
{
name = bottom;
pos = (300,0);
},
{
name = top;
pos = (300,698);
}
);
layerId = m001;
shapes = (
{
closed = 1;
nodes = (
(502,0,l),
(502,698,l),
(480,698,l),
(480,364,l),
(120,364,l),
(120,698,l),
(98,698,l),
(98,0,l),
(120,0,l),
(120,344,l),
(480,344,l),
(480,0,l)
);
}
);
userData = {
com.typemytype.robofont.pointLabels = {
};
};
width = 600;
},
{
anchors = (
{
name = bottom;
pos = (300,0);
},
{
name = top;
pos = (300,698);
}
);
layerId = m002;
shapes = (
{
closed = 1;
nodes = (
(520,0,l),
(520,698,l),
(436,698,l),
(436,390,l),
(164,390,l),
(164,698,l),
(80,698,l),
(80,0,l),
(164,0,l),
(164,317,l),
(436,317,l),
(436,0,l)
);
}
);
userData = {
com.typemytype.robofont.pointLabels = {
};
};
width = 600;
},
{
anchors = (
{
name = bottom;
pos = (300,0);
},
{
name = top;
pos = (300,698);
}
);
layerId = m003;
shapes = (
{
closed = 1;
nodes = (
(539,0,l),
(539,698,l),
(388,698,l),
(388,415,l),
(212,415,l),
(212,698,l),
(61,698,l),
(61,0,l),
(212,0,l),
(212,292,l),
(388,292,l),
(388,0,l)
);
}
);
userData = {
com.typemytype.robofont.pointLabels = {
};
};
width = 600;
}
);
unicode = 72;
},
{
glyphname = Hbar;
layers = (
{
layerId = m001;
shapes = (
{
closed = 1;
nodes = (
(502,0,l),
(502,537,l),
(586,537,l),
(586,556,l),
(502,556,l),
(502,698,l),
(480,698,l),
(480,556,l),
(120,556,l),
(120,698,l),
(98,698,l),
(98,556,l),
(14,556,l),
(14,537,l),
(98,537,l),
(98,0,l),
(120,0,l),
(120,344,l),
(480,344,l),
(480,0,l)
);
},
{
closed = 1;
nodes = (
(120,537,l),
(480,537,l),
(480,364,l),
(120,364,l)
);
}
);
userData = {
com.typemytype.robofont.pointLabels = {
};
};
width = 600;
},
{
layerId = m002;
shapes = (
{
closed = 1;
nodes = (
(520,0,l),
(520,518,l),
(590,518,l),
(590,582,l),
(520,582,l),
(520,698,l),
(436,698,l),
(436,582,l),
(164,582,l),
(164,698,l),
(80,698,l),
(80,582,l),
(10,582,l),
(10,518,l),
(80,518,l),
(80,0,l),
(164,0,l),
(164,317,l),
(436,317,l),
(436,0,l)
);
},
{
closed = 1;
nodes = (
(164,518,l),
(436,518,l),
(436,390,l),
(164,390,l)
);
}
);
userData = {
com.typemytype.robofont.pointLabels = {
};
};
width = 600;
},
{
layerId = m003;
shapes = (
{
closed = 1;
nodes = (
(539,0,l),
(539,507,l),
(594,507,l),
(594,620,l),
(539,620,l),
(539,698,l),
(388,698,l),
(388,613,l),
(212,613,l),
(212,698,l),
(61,698,l),
(61,620,l),
(6,620,l),
(6,507,l),
(61,507,l),
(61,0,l),
(212,0,l),
(212,292,l),
(388,292,l),
(388,0,l)
);
},
{
closed = 1;
nodes = (
(212,514,l),
(388,514,l),
(388,415,l),
(212,415,l)
);
}
);
userData = {
com.typemytype.robofont.pointLabels = {
};
};
width = 600;
}
);
unicode = 294;
},
{
glyphname = I;
layers = (
{
anchors = (
{
name = bottom;
pos = (300,0);
},
{
name = bottomright;
pos = (508,0);
},
{
name = top;
pos = (300,698);
}
);
layerId = m001;
shapes = (
{
closed = 1;
nodes = (
(508,19,l),
(311,19,l),
(311,679,l),
(508,679,l),
(508,698,l),
(92,698,l),
(92,679,l),
(289,679,l),
(289,19,l),
(92,19,l),
(92,0,l),
(508,0,l)
);
}
);
userData = {
com.typemytype.robofont.pointLabels = {
};
};
width = 600;
},
{
anchors = (
{
name = bottom;
pos = (300,0);
},
{
name = bottomright;
pos = (516,0);
},
{
name = top;
pos = (300,698);
}
);
layerId = m002;
shapes = (
{
closed = 1;
nodes = (
(516,67,l),
(342,67,l),
(342,631,l),
(516,631,l),
(516,698,l),
(84,698,l),
(84,631,l),
(258,631,l),
(258,67,l),
(84,67,l),
(84,0,l),
(516,0,l)
);
}
);
userData = {
com.typemytype.robofont.pointLabels = {
};
};
width = 600;
},
{
anchors = (
{
name = bottom;
pos = (300,0);
},
{
name = bottomright;
pos = (525,0);
},
{
name = top;
pos = (300,698);
}
);
layerId = m003;
shapes = (
{
closed = 1;
nodes = (
(525,111,l),
(375,111,l),
(375,587,l),
(525,587,l),
(525,698,l),
(75,698,l),
(75,587,l),
(225,587,l),
(225,111,l),
(75,111,l),
(75,0,l),
(525,0,l)
);
}
);
userData = {
com.typemytype.robofont.pointLabels = {
};
};
width = 600;
}
);
unicode = 73;
},
{
glyphname = IJ;
layers = (
{
layerId = m001;
shapes = (
{
closed = 1;
nodes = (
(462,191,ls),
(462,73,o),
(404,8,o),
(300,8,cs),
(210,8,o),
(159,57,o),
(140,132,c),
(119,127,l),
(138,40,o),
(202,-12,o),
(300,-12,cs),
(415,-12,o),
(484,60,o),
(484,189,cs),
(484,698,l),
(462,698,l)
);
},
{
closed = 1;
nodes = (
(138,271,l),
(138,698,l),
(116,698,l),
(116,271,l)
);
}
);
userData = {
com.typemytype.robofont.pointLabels = {
};
};
width = 600;
},
{
layerId = m002;
shapes = (
{
closed = 1;
nodes = (
(426,206,ls),
(426,108,o),
(378,62,o),
(296,62,cs),
(209,62,o),
(181,114,o),
(169,166,c),
(85,145,l),
(106,45,o),
(184,-12,o),
(293,-12,cs),
(421,-12,o),
(510,67,o),
(510,191,cs),
(510,698,l),
(426,698,l)
);
},
{
closed = 1;
nodes = (
(174,290,l),
(174,698,l),
(90,698,l),
(90,290,l)
);
}
);
userData = {
com.typemytype.robofont.pointLabels = {
};
};
width = 600;
},
{
layerId = m003;
shapes = (
{
closed = 1;
nodes = (
(375,210,ls),
(375,142,o),
(345,110,o),
(294,110,cs),
(234,110,o),
(209,154,o),
(198,213,c),
(52,181,l),
(73,69,o),
(148,-12,o),
(293,-12,cs),
(437,-12,o),
(525,69,o),
(525,195,cs),
(525,698,l),
(375,698,l)
);
},
{
closed = 1;
nodes = (
(213,309,l),
(213,698,l),
(63,698,l),
(63,309,l)
);
}
);
userData = {
com.typemytype.robofont.pointLabels = {
};
};
width = 600;
}
);
unicode = 306;
},
{
glyphname = Iogonek;
layers = (
{
anchors = (
{
name = bottom;
pos = (300,0);
},
{
name = top;
pos = (300,698);
}
);
layerId = m001;
shapes = (
{
closed = 1;
nodes = (
(480,0,l),
(481,-2,l),
(394,-51,o),
(368,-95,o),
(368,-134,cs),
(368,-179,o),
(402,-202,o),
(447,-202,cs),
(483,-202,o),
(509,-188,o),
(522,-170,c),
(508,-159,l),
(498,-171,o),
(480,-184,o),
(447,-184,cs),
(413,-184,o),
(389,-170,o),
(389,-133,cs),
(389,-80,o),
(437,-46,o),
(508,0,c),
(508,19,l),
(311,19,l),
(311,679,l),
(508,679,l),
(508,698,l),
(92,698,l),
(92,679,l),
(289,679,l),
(289,19,l),
(92,19,l),
(92,0,l)
);
}
);
userData = {
com.typemytype.robofont.pointLabels = {
};
};
width = 600;
},
{
anchors = (
{
name = bottom;
pos = (300,0);
},
{
name = top;
pos = (300,698);
}
);
layerId = m002;
shapes = (
{
closed = 1;
nodes = (
(449,0,l),
(450,-3,l),
(375,-39,o),
(335,-79,o),
(335,-127,cs),
(335,-180,o),
(383,-207,o),
(444,-207,cs),
(494,-207,o),
(524,-188,o),
(537,-166,c),
(497,-125,l),
(484,-141,o),
(467,-151,o),
(445,-151,cs),
(424,-151,o),
(403,-142,o),
(403,-114,cs),
(403,-94,o),
(413,-65,o),
(516,0,c),
(516,67,l),
(342,67,l),
(342,631,l),
(516,631,l),
(516,698,l),
(84,698,l),
(84,631,l),
(258,631,l),
(258,67,l),
(84,67,l),
(84,0,l)
);
}
);
userData = {
com.typemytype.robofont.pointLabels = {
};
};
width = 600;
},
{
anchors = (
{
name = bottom;
pos = (300,0);
},
{
name = top;
pos = (300,698);
}
);
layerId = m003;
shapes = (
{
closed = 1;
nodes = (
(428,0,l),
(430,-4,l),
(356,-38,o),
(311,-71,o),
(311,-127,cs),
(311,-191,o),
(369,-212,o),
(435,-212,cs),
(498,-212,o),
(540,-193,o),
(557,-161,c),
(504,-110,l),
(490,-126,o),
(473,-138,o),
(449,-138,cs),
(429,-138,o),
(411,-130,o),
(411,-105,cs),
(411,-81,o),
(427,-60,o),
(525,0,c),
(525,111,l),
(375,111,l),
(375,587,l),
(525,587,l),
(525,698,l),
(75,698,l),
(75,587,l),
(225,587,l),
(225,111,l),
(75,111,l),
(75,0,l)
);
}
);
userData = {
com.typemytype.robofont.pointLabels = {
};
};
width = 600;
}
);
unicode = 302;
},
{
glyphname = J;
layers = (
{
anchors = (
{
name = bottom;
pos = (279,0);
},
{
name = top;
pos = (306,698);
}
);
layerId = m001;
shapes = (
{
closed = 1;
nodes = (
(157,678,l),
(439,678,l),
(439,191,ls),
(439,73,o),
(379,8,o),
(277,8,cs),
(187,8,o),
(134,53,o),
(117,124,c),
(96,119,l),
(114,37,o),
(181,-12,o),
(277,-12,cs),
(389,-12,o),
(461,60,o),
(461,189,cs),
(461,698,l),
(157,698,l)
);
}
);
userData = {
com.typemytype.robofont.pointLabels = {
};
};
width = 600;
},
{
anchors = (
{
name = bottom;
pos = (277,0);
},
{
name = top;
pos = (313,698);
}
);
layerId = m002;
shapes = (
{
closed = 1;
nodes = (
(144,625,l),
(396,625,l),
(396,196,ls),
(396,105,o),
(352,62,o),
(276,62,cs),
(198,62,o),
(167,107,o),
(154,163,c),
(74,146,l),
(95,46,o),
(168,-12,o),
(274,-12,cs),
(395,-12,o),
(480,63,o),
(480,181,c),
(480,698,l),
(144,698,l)
);
}
);
userData = {
com.typemytype.robofont.pointLabels = {
};
};
width = 600;
},
{
anchors = (
{
name = bottom;
pos = (275,0);
},
{
name = top;
pos = (321,698);
}
);
layerId = m003;
shapes = (
{
closed = 1;
nodes = (
(129,575,l),
(359,575,l),
(359,210,ls),
(359,142,o),
(329,110,o),
(278,110,cs),
(218,110,o),
(191,152,o),
(180,211,c),
(38,182,l),
(60,66,o),
(135,-12,o),
(278,-12,cs),
(420,-12,o),
(511,69,o),
(511,195,cs),
(511,698,l),
(129,698,l)
);
}
);
userData = {
com.typemytype.robofont.pointLabels = {
};
};
width = 600;
}
);
unicode = 74;
},
{
glyphname = K;
layers = (
{
anchors = (
{
name = bottom;
pos = (323,0);
},
{
name = top;
pos = (313,698);
}
);
layerId = m001;
shapes = (
{
closed = 1;
nodes = (
(548,0,l),
(280,403,l),
(545,698,l),
(519,698,l),
(269,421,l),
(132,269,l),
(130,269,l),
(130,698,l),
(108,698,l),
(108,0,l),
(130,0,l),
(130,239,l),
(264,387,l),
(522,0,l)
);
}
);
userData = {
com.typemytype.robofont.pointLabels = {
};
};
width = 600;
},
{
anchors = (
{
name = bottom;
pos = (322,0);
},
{
name = top;
pos = (313,698);
}
);
layerId = m002;
shapes = (
{
closed = 1;
nodes = (
(578,0,l),
(326,404,l),
(571,698,l),
(470,698,l),
(264,450,l),
(172,334,l),
(169,334,l),
(169,698,l),
(85,698,l),
(85,0,l),
(169,0,l),
(169,224,l),
(269,342,l),
(480,0,l)
);
}
);
userData = {
com.typemytype.robofont.pointLabels = {
};
};
width = 600;
},
{
anchors = (
{
name = bottom;
pos = (325,0);
},
{
name = top;
pos = (317,698);
}
);
layerId = m003;
shapes = (
{
closed = 1;
nodes = (
(603,0,l),
(384,403,l),
(593,698,l),
(425,698,l),
(302,522,l),
(226,406,l),
(218,406,l),
(218,698,l),
(68,698,l),
(68,0,l),
(218,0,l),
(218,204,l),
(280,291,l),
(434,0,l)
);
}
);
userData = {
com.typemytype.robofont.pointLabels = {
};
};
width = 600;
}
);
unicode = 75;
},
{
glyphname = L;
layers = (
{
anchors = (
{
name = bottom;
pos = (337,0);
},
{
name = top;
pos = (156,698);
},
{
name = topright;
pos = (273,740);
}
);
layerId = m001;
shapes = (
{
closed = 1;
nodes = (
(528,20,l),
(168,20,l),
(168,698,l),
(146,698,l),
(146,0,l),
(528,0,l)
);
}
);
userData = {
com.typemytype.robofont.pointLabels = {
};
};
width = 600;
},
{
anchors = (
{
name = bottom;
pos = (327,0);
},
{
name = top;
pos = (162,698);
},
{
name = topright;
pos = (290,740);
}
);
layerId = m002;
shapes = (
{
closed = 1;
nodes = (
(535,73,l),
(204,73,l),
(204,698,l),
(120,698,l),
(120,0,l),
(535,0,l)
);
}
);
userData = {
com.typemytype.robofont.pointLabels = {
};
};
width = 600;
},
{
anchors = (
{
name = bottom;
pos = (317,0);
},
{
name = top;
pos = (167,698);
},
{
name = topright;
pos = (320,740);
}
);
layerId = m003;
shapes = (
{
closed = 1;
nodes = (
(543,123,l),
(243,123,l),
(243,698,l),
(92,698,l),
(92,0,l),
(543,0,l)
);
}
);
userData = {
com.typemytype.robofont.pointLabels = {
};
};
width = 600;
}
);
unicode = 76;
},
{
glyphname = Lslash;
layers = (
{
layerId = m001;
shapes = (
{
closed = 1;
nodes = (
(168,20,l),
(168,307,l),
(402,381,l),
(402,401,l),
(168,327,l),
(168,698,l),
(146,698,l),
(146,321,l),
(55,292,l),
(55,272,l),
(146,301,l),
(146,0,l),
(528,0,l),
(528,20,l)
);
}
);
userData = {
com.typemytype.robofont.pointLabels = {
};
};
width = 600;
},
{
layerId = m002;
shapes = (
{
closed = 1;
nodes = (
(204,73,l),
(204,295,l),
(415,364,l),
(415,433,l),
(204,364,l),
(204,698,l),
(120,698,l),
(120,340,l),
(40,314,l),
(40,245,l),
(120,271,l),
(120,0,l),
(535,0,l),
(535,73,l)
);
}
);
userData = {
com.typemytype.robofont.pointLabels = {
};
};
width = 600;
},
{
layerId = m003;
shapes = (
{
closed = 1;
nodes = (
(255,123,l),
(255,289,l),
(439,350,l),
(439,463,l),
(255,402,l),
(255,698,l),
(104,698,l),
(104,357,l),
(33,334,l),
(33,221,l),
(104,244,l),
(104,0,l),
(543,0,l),
(543,123,l)
);
}
);
userData = {
com.typemytype.robofont.pointLabels = {
};
};
width = 600;
}
);
unicode = 321;
},
{
glyphname = M;
layers = (
{
anchors = (
{
name = bottom;
pos = (300,0);
},
{
name = top;
pos = (300,698);
}
);
layerId = m001;
shapes = (
{
closed = 1;
nodes = (
(515,0,l),
(515,698,l),
(483,698,l),
(302,295,l),
(299,295,l),
(117,698,l),
(85,698,l),
(85,0,l),
(106,0,l),
(106,667,l),
(109,667,l),
(300,245,l),
(491,667,l),
(494,667,l),
(494,0,l)
);
}
);
userData = {
com.typemytype.robofont.pointLabels = {
};
};
width = 600;
},
{
anchors = (
{
name = bottom;
pos = (300,0);
},
{
name = top;
pos = (300,698);
}
);
layerId = m002;
shapes = (
{
closed = 1;
nodes = (
(532,0,l),
(532,698,l),
(428,698,l),
(305,390,l),
(299,390,l),
(176,698,l),
(68,698,l),
(68,0,l),
(145,0,l),
(145,350,l),
(145,571,l),
(153,571,l),
(300,212,l),
(447,571,l),
(455,571,l),
(455,350,l),
(455,0,l)
);
}
);
userData = {
com.typemytype.robofont.pointLabels = {
};
};
width = 600;
},
{
anchors = (
{
name = bottom;
pos = (300,0);
},
{
name = top;
pos = (300,698);
}
);
layerId = m003;
shapes = (
{
closed = 1;
nodes = (
(561,0,l),
(561,698,l),
(396,698,l),
(310,463,l),
(302,463,l),
(216,698,l),
(39,698,l),
(39,0,l),
(169,0,l),
(169,311,l),
(161,506,l),
(170,506,l),
(300,147,l),
(430,506,l),
(439,506,l),
(431,311,l),
(431,0,l)
);
}
);
userData = {
com.typemytype.robofont.pointLabels = {
};
};
width = 600;
}
);
unicode = 77;
},
{
glyphname = N;
layers = (
{
anchors = (
{
name = bottom;
pos = (300,0);
},
{
name = top;
pos = (300,698);
}
);
layerId = m001;
shapes = (
{
closed = 1;
nodes = (
(502,0,l),
(502,698,l),
(481,698,l),
(481,30,l),
(478,30,l),
(130,698,l),
(98,698,l),
(98,0,l),
(119,0,l),
(119,668,l),
(122,668,l),
(470,0,l)
);
}
);
userData = {
com.typemytype.robofont.pointLabels = {
};
};
width = 600;
},
{
anchors = (
{
name = bottom;
pos = (300,0);
},
{
name = top;
pos = (300,698);
}
);
layerId = m002;
shapes = (
{
closed = 1;
nodes = (
(520,0,l),
(520,698,l),
(444,698,l),
(444,110,l),
(437,110,l),
(199,698,l),
(80,698,l),
(80,0,l),
(156,0,l),
(156,588,l),
(163,588,l),
(401,0,l)
);
}
);
userData = {
com.typemytype.robofont.pointLabels = {
};
};
width = 600;
},
{
anchors = (
{
name = bottom;
pos = (300,0);
},
{
name = top;
pos = (300,698);
}
);
layerId = m003;
shapes = (
{
closed = 1;
nodes = (
(539,0,l),
(539,698,l),
(411,698,l),
(411,234,l),
(400,234,l),
(241,698,l),
(61,698,l),
(61,0,l),
(189,0,l),
(189,464,l),
(200,464,l),
(359,0,l)
);
}
);
userData = {
com.typemytype.robofont.pointLabels = {
};
};
width = 600;
}
);
unicode = 78;
},
{
glyphname = Eng;
layers = (
{
anchors = (
{
name = top;
pos = (300,698);
}
);
layerId = m001;
shapes = (
{
closed = 1;
nodes = (
(119,668,l),
(122,668,l),
(470,0,l),
(481,0,l),
(481,-182,l),
(180,-182,l),
(180,-200,l),
(473,-200,ls),
(493,-200,o),
(502,-191,o),
(502,-171,cs),
(502,698,l),
(481,698,l),
(481,30,l),
(478,30,l),
(130,698,l),
(98,698,l),
(98,0,l),
(119,0,l)
);
}
);
userData = {
com.typemytype.robofont.pointLabels = {
};
};
width = 600;
},
{
anchors = (
{
name = top;
pos = (300,698);
}
);
layerId = m002;
shapes = (
{
closed = 1;
nodes = (
(156,591,l),
(163,591,l),
(401,0,l),
(444,0,l),
(444,-132,l),
(157,-132,l),
(157,-200,l),
(406,-200,ls),
(484,-200,o),
(520,-151,o),
(520,-82,cs),
(520,698,l),
(444,698,l),
(444,113,l),
(437,113,l),
(199,698,l),
(80,698,l),
(80,0,l),
(156,0,l)
);
}
);
userData = {
com.typemytype.robofont.pointLabels = {
};
};
width = 600;
},
{
anchors = (
{
name = top;
pos = (300,698);
}
);
layerId = m003;
shapes = (
{
closed = 1;
nodes = (
(189,464,l),
(200,464,l),
(359,0,l),
(402,0,l),
(402,-90,l),
(189,-90,l),
(189,-200,l),
(382,-200,ls),
(488,-200,o),
(539,-138,o),
(539,-51,cs),
(539,698,l),
(411,698,l),
(411,234,l),
(400,234,l),
(241,698,l),
(61,698,l),
(61,0,l),
(189,0,l)
);
}
);
userData = {
com.typemytype.robofont.pointLabels = {
};
};
width = 600;
}
);
unicode = 330;
},
{
glyphname = O;
layers = (
{
anchors = (
{
name = bottom;
pos = (300,0);
},
{
name = top;
pos = (300,698);
}
);
layerId = m001;
shapes = (
{
closed = 1;
nodes = (
(446,-12,o),
(529,93,o),
(529,349,cs),
(529,605,o),
(446,710,o),
(300,710,cs),
(154,710,o),
(71,605,o),
(71,349,cs),
(71,93,o),
(154,-12,o),
(300,-12,cs)
);
},
{
closed = 1;
nodes = (
(167,8,o),
(95,112,o),
(95,317,cs),
(95,381,ls),
(95,586,o),
(167,690,o),
(300,690,cs),
(433,690,o),
(505,586,o),
(505,381,cs),
(505,317,ls),
(505,112,o),
(433,8,o),
(300,8,cs)
);
}
);
userData = {
com.typemytype.robofont.pointLabels = {
};
};
width = 600;
},
{
anchors = (
{
name = bottom;
pos = (300,0);
},
{
name = top;
pos = (300,698);
}
);
layerId = m002;
shapes = (
{
closed = 1;
nodes = (
(470,-12,o),
(544,121,o),
(544,349,cs),
(544,577,o),
(470,710,o),
(300,710,cs),
(130,710,o),
(56,577,o),
(56,349,cs),
(56,121,o),
(130,-12,o),
(300,-12,cs)
);
},
{
closed = 1;
nodes = (
(189,61,o),
(145,152,o),
(145,292,cs),
(145,406,ls),
(145,546,o),
(189,637,o),
(300,637,cs),
(411,637,o),
(455,546,o),
(455,406,cs),
(455,292,l),
(455,152,o),
(411,61,o),
(300,61,cs)
);
}
);
userData = {
com.typemytype.robofont.pointLabels = {
};
};
width = 600;
},
{
anchors = (
{
name = bottom;
pos = (300,0);
},
{
name = top;
pos = (300,698);
}
);
layerId = m003;
shapes = (
{
closed = 1;
nodes = (
(487,-12,o),
(573,121,o),
(573,349,cs),
(573,577,o),
(487,710,o),
(300,710,cs),
(113,710,o),
(27,577,o),
(27,349,cs),
(27,121,o),
(113,-12,o),
(300,-12,cs)
);
},
{
closed = 1;
nodes = (
(215,109,o),
(187,176,o),
(187,288,cs),
(187,410,ls),
(187,522,o),
(215,589,o),
(300,589,cs),
(385,589,o),
(413,522,o),
(413,410,cs),
(413,289,l),
(413,176,o),
(385,109,o),
(300,109,cs)
);
}
);
userData = {
com.typemytype.robofont.pointLabels = {
};
};
width = 600;
}
);
unicode = 79;
},
{
glyphname = Ohorn;
layers = (
{
anchors = (
{
name = bottom;
pos = (300,0);
},
{
name = top;
pos = (300,698);
}
);
layerId = m001;
shapes = (
{
closed = 1;
nodes = (
(488,809,l),
(488,698,l),
(377,698,l),
(354,706,o),
(328,710,o),
(300,710,cs),
(154,710,o),
(71,605,o),
(71,349,cs),
(71,93,o),
(154,-12,o),
(300,-12,cs),
(446,-12,o),
(529,93,o),
(529,349,cs),
(529,527,o),
(488,634,o),
(413,680,c),
(479,680,ls),
(499,680,o),
(508,689,o),
(508,709,cs),
(508,809,l)
);
},
{
closed = 1;
nodes = (
(167,8,o),
(95,112,o),
(95,317,cs),
(95,381,ls),
(95,586,o),
(167,690,o),
(300,690,cs),
(433,690,o),
(505,586,o),
(505,381,cs),
(505,317,ls),
(505,112,o),
(433,8,o),
(300,8,cs)
);
}
);
userData = {
com.typemytype.robofont.pointLabels = {
};
};
width = 600;
},
{
anchors = (
{
name = bottom;
pos = (300,0);
},
{
name = top;
pos = (300,698);
}
);
layerId = m002;
shapes = (
{
closed = 1;
nodes = (
(478,810,l),
(478,698,l),
(380,698,l),
(356,706,o),
(329,710,o),
(300,710,cs),
(130,710,o),
(56,577,o),
(56,349,cs),
(56,121,o),
(130,-12,o),
(300,-12,cs),
(470,-12,o),
(544,121,o),
(544,349,cs),
(544,488,o),
(519,589,o),
(458,647,c),
(486,647,ls),
(536,647,o),
(549,675,o),
(549,710,cs),
(549,810,l)
);
},
{
closed = 1;
nodes = (
(189,61,o),
(145,152,o),
(145,292,cs),
(145,406,ls),
(145,546,o),
(189,637,o),
(300,637,cs),
(411,637,o),
(455,546,o),
(455,406,cs),
(455,292,ls),
(455,152,o),
(411,61,o),
(300,61,cs)
);
}
);
userData = {
com.typemytype.robofont.pointLabels = {
};
};
width = 600;
},
{
anchors = (
{
name = bottom;
pos = (300,0);
},
{
name = top;
pos = (300,698);
}
);
layerId = m003;
shapes = (
{
closed = 1;
nodes = (
(469,813,l),
(469,698,l),
(389,698,l),
(363,706,o),
(333,710,o),
(300,710,cs),
(113,710,o),
(27,577,o),
(27,349,cs),
(27,121,o),
(113,-12,o),
(300,-12,cs),
(487,-12,o),
(573,121,o),
(573,349,cs),
(573,465,o),
(557,555,o),
(506,610,c),
(575,614,o),
(593,648,o),
(593,710,cs),
(593,813,l)
);
},
{
closed = 1;
nodes = (
(215,109,o),
(187,176,o),
(187,288,cs),
(187,410,ls),
(187,522,o),
(215,589,o),
(300,589,cs),
(385,589,o),
(413,522,o),
(413,410,cs),
(413,289,ls),
(413,176,o),
(385,109,o),
(300,109,cs)
);
}
);
userData = {
com.typemytype.robofont.pointLabels = {
};
};
width = 600;
}
);
unicode = 416;
},
{
glyphname = Oslash;
layers = (
{
anchors = (
{
name = bottom;
pos = (300,0);
},
{
name = top;
pos = (300,698);
}
);
layerId = m001;
shapes = (
{
closed = 1;
nodes = (
(446,-12,o),
(529,93,o),
(529,349,cs),
(529,474,o),
(509,563,o),
(472,621,c),
(522,706,l),
(505,715,l),
(460,639,l),
(422,688,o),
(368,710,o),
(300,710,cs),
(154,710,o),
(71,605,o),
(71,349,cs),
(71,224,o),
(91,135,o),
(128,77,c),
(78,-8,l),
(95,-17,l),
(140,59,l),
(178,10,o),
(232,-12,o),
(300,-12,cs)
);
},
{
closed = 1;
nodes = (
(95,381,ls),
(95,586,o),
(167,690,o),
(300,690,cs),
(364,690,o),
(414,666,o),
(448,619,c),
(140,97,l),
(110,149,o),
(95,222,o),
(95,317,cs)
);
},
{
closed = 1;
nodes = (
(236,8,o),
(186,32,o),
(152,79,c),
(460,601,l),
(490,549,o),
(505,476,o),
(505,381,cs),
(505,317,ls),
(505,112,o),
(433,8,o),
(300,8,cs)
);
}
);
userData = {
com.typemytype.robofont.pointLabels = {
};
};
width = 600;
},
{
anchors = (
{
name = bottom;
pos = (300,0);
},
{
name = top;
pos = (300,698);
}
);
layerId = m002;
shapes = (
{
closed = 1;
nodes = (
(470,-12,o),
(544,121,o),
(544,349,cs),
(544,456,o),
(528,543,o),
(493,604,c),
(553,706,l),
(493,742,l),
(446,662,l),
(409,694,o),
(360,710,o),
(300,710,cs),
(130,710,o),
(56,577,o),
(56,349,cs),
(56,242,o),
(72,155,o),
(107,94,c),
(47,-8,l),
(107,-44,l),
(154,36,l),
(191,4,o),
(240,-12,o),
(300,-12,cs)
);
},
{
closed = 1;
nodes = (
(145,406,ls),
(145,546,o),
(189,637,o),
(300,637,cs),
(347,637,o),
(382,620,o),
(407,591,c),
(159,174,l),
(149,207,o),
(145,247,o),
(145,292,c)
);
},
{
closed = 1;
nodes = (
(253,61,o),
(218,78,o),
(193,107,c),
(441,524,l),
(451,491,o),
(455,451,o),
(455,406,c),
(455,292,ls),
(455,152,o),
(411,61,o),
(300,61,cs)
);
}
);
userData = {
com.typemytype.robofont.pointLabels = {
};
};
width = 600;
},
{
anchors = (
{
name = bottom;
pos = (300,0);
},
{
name = top;
pos = (300,698);
}
);
layerId = m003;
shapes = (
{
closed = 1;
nodes = (
(487,-12,o),
(573,121,o),
(573,349,cs),
(573,456,o),
(554,542,o),
(515,603,c),
(581,710,l),
(487,764,l),
(434,679,l),
(397,700,o),
(353,710,o),
(300,710,cs),
(113,710,o),
(27,577,o),
(27,349,cs),
(27,242,o),
(46,156,o),
(85,95,c),
(19,-12,l),
(113,-66,l),
(166,19,l),
(203,-2,o),
(247,-12,o),
(300,-12,cs)
);
},
{
closed = 1;
nodes = (
(187,410,ls),
(187,522,o),
(215,589,o),
(300,589,cs),
(330,589,o),
(354,581,o),
(371,565,c),
(189,249,l),
(187,262,o),
(187,274,o),
(187,288,cs)
);
},
{
closed = 1;
nodes = (
(270,109,o),
(246,117,o),
(229,133,c),
(411,449,l),
(413,435,o),
(413,424,o),
(413,410,cs),
(413,288,ls),
(413,176,o),
(385,109,o),
(300,109,cs)
);
}
);
userData = {
com.typemytype.robofont.pointLabels = {
};
};
width = 600;
}
);
unicode = 216;
},
{
glyphname = OE;
layers = (
{
layerId = m001;
shapes = (
{
closed = 1;
nodes = (
(552,20,l),
(351,20,l),
(351,344,l),
(538,344,l),
(538,364,l),
(351,364,l),
(351,678,l),
(552,678,l),
(552,698,l),
(299,698,ls),
(132,698,o),
(61,580,o),
(61,349,cs),
(61,118,o),
(132,0,o),
(299,0,cs),
(552,0,l)
);
},
{
closed = 1;
nodes = (
(149,20,o),
(85,132,o),
(85,317,cs),
(85,381,ls),
(85,566,o),
(149,678,o),
(298,678,cs),
(329,678,l),
(329,20,l),
(298,20,ls)
);
}
);
userData = {
com.typemytype.robofont.pointLabels = {
};
};
width = 600;
},
{
layerId = m002;
shapes = (
{
closed = 1;
nodes = (
(560,69,l),
(392,69,l),
(392,319,l),
(548,319,l),
(548,388,l),
(392,388,l),
(392,629,l),
(560,629,l),
(560,698,l),
(289,698,ls),
(120,698,o),
(37,578,o),
(37,349,cs),
(37,120,o),
(120,0,o),
(289,0,cs),
(560,0,l)
);
},
{
closed = 1;
nodes = (
(181,69,o),
(122,152,o),
(122,295,cs),
(122,403,ls),
(122,546,o),
(181,629,o),
(293,629,cs),
(312,629,l),
(312,69,l),
(293,69,ls)
);
}
);
userData = {
com.typemytype.robofont.pointLabels = {
};
};
width = 600;
},
{
layerId = m003;
shapes = (
{
closed = 1;
nodes = (
(586,111,l),
(431,111,l),
(431,298,l),
(576,298,l),
(576,409,l),
(431,409,l),
(431,587,l),
(586,587,l),
(586,698,l),
(277,698,ls),
(97,698,o),
(10,573,o),
(10,349,cs),
(10,125,o),
(97,0,o),
(277,0,cs),
(586,0,l)
);
},
{
closed = 1;
nodes = (
(197,111,o),
(156,172,o),
(156,290,cs),
(156,408,ls),
(156,526,o),
(197,587,o),
(287,587,cs),
(293,587,l),
(293,111,l),
(287,111,ls)
);
}
);
userData = {
com.typemytype.robofont.pointLabels = {
};
};
width = 600;
}
);
unicode = 338;
},
{
glyphname = P;
layers = (
{
anchors = (
{
name = bottom;
pos = (115,0);
},
{
name = top;
pos = (300,698);
}
);
layerId = m001;
shapes = (
{
closed = 1;
nodes = (
(130,322,l),
(352,322,ls),
(466,322,o),
(526,396,o),
(526,510,cs),
(526,624,o),
(466,698,o),
(352,698,cs),
(108,698,l),
(108,0,l),
(130,0,l)
);
},
{
closed = 1;
nodes = (
(352,678,ls),
(455,678,o),
(502,607,o),
(502,531,cs),
(502,489,ls),
(502,413,o),
(455,342,o),
(352,342,cs),
(130,342,l),
(130,678,l)
);
}
);
userData = {
com.typemytype.robofont.pointLabels = {
};
};
width = 600;
},
{
anchors = (
{
name = bottom;
pos = (132,0);
},
{
name = top;
pos = (300,698);
}
);
layerId = m002;
shapes = (
{
closed = 1;
nodes = (
(174,296,l),
(344,296,ls),
(473,296,o),
(543,371,o),
(543,497,cs),
(543,623,o),
(473,698,o),
(344,698,cs),
(90,698,l),
(90,0,l),
(174,0,l)
);
},
{
closed = 1;
nodes = (
(342,625,ls),
(412,625,o),
(454,588,o),
(454,523,cs),
(454,471,ls),
(454,406,o),
(412,369,o),
(342,369,cs),
(174,369,l),
(174,625,l)
);
}
);
userData = {
com.typemytype.robofont.pointLabels = {
};
};
width = 600;
},
{
anchors = (
{
name = bottom;
pos = (151,0);
},
{
name = top;
pos = (300,698);
}
);
layerId = m003;
shapes = (
{
closed = 1;
nodes = (
(227,254,l),
(346,254,ls),
(483,254,o),
(560,341,o),
(560,476,cs),
(560,611,o),
(483,698,o),
(346,698,cs),
(76,698,l),
(76,0,l),
(227,0,l)
);
},
{
closed = 1;
nodes = (
(308,577,ls),
(378,577,o),
(402,552,o),
(402,491,cs),
(402,461,l),
(402,400,o),
(378,375,o),
(308,375,cs),
(227,375,l),
(227,577,l)
);
}
);
userData = {
com.typemytype.robofont.pointLabels = {
};
};
width = 600;
}
);
unicode = 80;
},
{
glyphname = Thorn;
layers = (
{
layerId = m001;
shapes = (
{
closed = 1;
nodes = (
(130,167,l),
(352,167,ls),
(466,167,o),
(526,241,o),
(526,355,cs),
(526,469,o),
(466,543,o),
(352,543,cs),
(130,543,l),
(130,698,l),
(108,698,l),
(108,0,l),
(130,0,l)
);
},
{
closed = 1;
nodes = (
(352,523,ls),
(455,523,o),
(502,452,o),
(502,376,cs),
(502,334,ls),
(502,258,o),
(455,187,o),
(352,187,cs),
(130,187,l),
(130,523,l)
);
}
);
userData = {
com.typemytype.robofont.pointLabels = {
};
};
width = 600;
},
{
layerId = m002;
shapes = (
{
closed = 1;
nodes = (
(174,155,l),
(344,155,ls),
(473,155,o),
(543,232,o),
(543,354,cs),
(543,476,o),
(473,553,o),
(344,553,cs),
(174,553,l),
(174,698,l),
(90,698,l),
(90,0,l),
(174,0,l)
);
},
{
closed = 1;
nodes = (
(344,480,ls),
(414,480,o),
(456,444,o),
(456,380,cs),
(456,328,ls),
(456,264,o),
(414,228,o),
(344,228,cs),
(174,228,l),
(174,480,l)
);
}
);
userData = {
com.typemytype.robofont.pointLabels = {
};
};
width = 600;
},
{
layerId = m003;
shapes = (
{
closed = 1;
nodes = (
(227,133,l),
(341,133,ls),
(479,133,o),
(555,221,o),
(555,355,cs),
(555,489,o),
(479,577,o),
(341,577,cs),
(227,577,l),
(227,698,l),
(76,698,l),
(76,0,l),
(227,0,l)
);
},
{
closed = 1;
nodes = (
(304,456,ls),
(374,456,o),
(398,431,o),
(398,370,cs),
(398,340,l),
(398,279,o),
(374,254,o),
(304,254,cs),
(227,254,l),
(227,456,l)
);
}
);
userData = {
com.typemytype.robofont.pointLabels = {
};
};
width = 600;
}
);
unicode = 222;
},
{
glyphname = Q;
layers = (
{
anchors = (
{
name = top;
pos = (300,698);
}
);
layerId = m001;
shapes = (
{
closed = 1;
nodes = (
(311,-116,l),
(311,-12,l),
(450,-6,o),
(529,99,o),
(529,349,cs),
(529,605,o),
(446,710,o),
(300,710,cs),
(154,710,o),
(71,605,o),
(71,349,cs),
(71,99,o),
(149,-6,o),
(289,-12,c),
(289,-107,ls),
(289,-127,o),
(299,-136,o),
(319,-136,c),
(475,-136,l),
(475,-116,l)
);
},
{
closed = 1;
nodes = (
(167,8,o),
(95,112,o),
(95,317,cs),
(95,381,ls),
(95,586,o),
(167,690,o),
(300,690,cs),
(433,690,o),
(505,586,o),
(505,381,cs),
(505,317,ls),
(505,112,o),
(433,8,o),
(300,8,cs)
);
}
);
userData = {
com.typemytype.robofont.pointLabels = {
};
};
width = 600;
},
{
anchors = (
{
name = top;
pos = (300,698);
}
);
layerId = m002;
shapes = (
{
closed = 1;
nodes = (
(340,-96,l),
(340,-9,l),
(481,10,o),
(544,140,o),
(544,349,cs),
(544,577,o),
(470,710,o),
(300,710,cs),
(130,710,o),
(56,577,o),
(56,349,cs),
(56,140,o),
(118,10,o),
(260,-9,c),
(260,-46,ls),
(260,-115,o),
(296,-164,o),
(374,-164,cs),
(491,-164,l),
(491,-96,l)
);
},
{
closed = 1;
nodes = (
(189,61,o),
(145,152,o),
(145,292,cs),
(145,406,ls),
(145,546,o),
(189,637,o),
(300,637,cs),
(411,637,o),
(455,546,o),
(455,406,cs),
(455,292,ls),
(455,152,o),
(411,61,o),
(300,61,cs)
);
}
);
userData = {
com.typemytype.robofont.pointLabels = {
};
};
width = 600;
},
{
anchors = (
{
name = top;
pos = (300,698);
}
);
layerId = m003;
shapes = (
{
closed = 1;
nodes = (
(365,-84,l),
(365,-6,l),
(507,22,o),
(573,149,o),
(573,349,cs),
(573,577,o),
(487,710,o),
(300,710,cs),
(113,710,o),
(27,577,o),
(27,349,cs),
(27,149,o),
(93,22,o),
(235,-6,c),
(235,-47,ls),
(235,-134,o),
(276,-191,o),
(384,-191,cs),
(526,-191,l),
(526,-84,l)
);
},
{
closed = 1;
nodes = (
(215,109,o),
(187,176,o),
(187,288,cs),
(187,410,ls),
(187,522,o),
(215,589,o),
(300,589,cs),
(385,589,o),
(413,522,o),
(413,410,cs),
(413,289,ls),
(413,176,o),
(385,109,o),
(300,109,cs)
);
}
);
userData = {
com.typemytype.robofont.pointLabels = {
};
};
width = 600;
}
);
unicode = 81;
},
{
glyphname = R;
layers = (
{
anchors = (
{
name = bottom;
pos = (302,0);
},
{
name = top;
pos = (299,698);
}
);
layerId = m001;
shapes = (
{
closed = 1;
nodes = (
(289,322,l),
(495,0,l),
(521,0,l),
(314,322,l),
(352,322,ls),
(466,322,o),
(526,396,o),
(526,510,cs),
(526,624,o),
(466,698,o),
(352,698,cs),
(108,698,l),
(108,0,l),
(130,0,l),
(130,322,l)
);
},
{
closed = 1;
nodes = (
(130,678,l),
(352,678,ls),
(455,678,o),
(502,607,o),
(502,531,cs),
(502,489,ls),
(502,413,o),
(455,342,o),
(352,342,cs),
(130,342,l)
);
}
);
userData = {
com.typemytype.robofont.pointLabels = {
};
};
width = 600;
},
{
anchors = (
{
name = bottom;
pos = (308,0);
},
{
name = top;
pos = (308,698);
}
);
layerId = m002;
shapes = (
{
closed = 1;
nodes = (
(285,298,l),
(455,0,l),
(549,0,l),
(371,302,l),
(482,313,o),
(543,385,o),
(543,497,cs),
(543,623,o),
(473,698,o),
(344,698,cs),
(90,698,l),
(90,0,l),
(174,0,l),
(174,298,l)
);
},
{
closed = 1;
nodes = (
(174,625,l),
(342,625,ls),
(412,625,o),
(454,588,o),
(454,523,cs),
(454,471,ls),
(454,406,o),
(412,369,o),
(342,369,cs),
(174,369,l)
);
}
);
userData = {
com.typemytype.robofont.pointLabels = {
};
};
width = 600;
},
{
anchors = (
{
name = bottom;
pos = (315,0);
},
{
name = top;
pos = (304,698);
}
);
layerId = m003;
shapes = (
{
closed = 1;
nodes = (
(293,259,l),
(410,0,l),
(574,0,l),
(437,279,l),
(515,301,o),
(560,378,o),
(560,476,cs),
(560,611,o),
(483,698,o),
(346,698,cs),
(76,698,l),
(76,0,l),
(224,0,l),
(224,259,l)
);
},
{
closed = 1;
nodes = (
(224,577,l),
(310,577,ls),
(380,577,o),
(404,552,o),
(404,491,cs),
(404,461,ls),
(404,400,o),
(380,375,o),
(310,375,cs),
(224,375,l)
);
}
);
userData = {
com.typemytype.robofont.pointLabels = {
};
};
width = 600;
}
);
unicode = 82;
},
{
glyphname = S;
layers = (
{
anchors = (
{
name = bottom;
pos = (302,0);
},
{
name = top;
pos = (292,698);
}
);
layerId = m001;
shapes = (
{
closed = 1;
nodes = (
(440,-12,o),
(527,52,o),
(527,177,cs),
(527,259,o),
(492,338,o),
(345,362,cs),
(265,375,ls),
(178,389,o),
(104,426,o),
(104,535,cs),
(104,639,o),
(177,690,o),
(297,690,cs),
(397,690,o),
(458,659,o),
(499,599,c),
(516,613,l),
(477,670,o),
(413,710,o),
(299,710,cs),
(168,710,o),
(82,653,o),
(82,535,cs),
(82,453,o),
(120,377,o),
(261,354,cs),
(341,341,ls),
(427,327,o),
(505,292,o),
(505,176,cs),
(505,66,o),
(431,8,o),
(304,8,cs),
(190,8,o),
(133,51,o),
(84,115,c),
(66,102,l),
(116,36,o),
(181,-12,o),
(304,-12,cs)
);
}
);
userData = {
com.typemytype.robofont.pointLabels = {
};
};
width = 600;
},
{
anchors = (
{
name = bottom;
pos = (297,0);
},
{
name = top;
pos = (298,698);
}
);
layerId = m002;
shapes = (
{
closed = 1;
nodes = (
(453,-12,o),
(542,66,o),
(542,195,cs),
(542,286,o),
(497,362,o),
(360,386,cs),
(285,399,ls),
(186,416,o),
(154,456,o),
(154,518,cs),
(154,597,o),
(207,638,o),
(301,638,cs),
(388,638,o),
(438,603,o),
(477,552,c),
(536,603,l),
(489,670,o),
(413,710,o),
(302,710,cs),
(160,710,o),
(69,644,o),
(69,516,cs),
(69,428,o),
(112,349,o),
(249,326,cs),
(327,313,ls),
(422,297,o),
(457,261,o),
(457,193,cs),
(457,109,o),
(402,60,o),
(301,60,cs),
(217,60,o),
(160,93,o),
(106,161,c),
(45,111,l),
(97,39,o),
(173,-12,o),
(298,-12,cs)
);
}
);
userData = {
com.typemytype.robofont.pointLabels = {
};
};
width = 600;
},
{
anchors = (
{
name = bottom;
pos = (292,0);
},
{
name = top;
pos = (305,698);
}
);
layerId = m003;
shapes = (
{
closed = 1;
nodes = (
(464,-12,o),
(556,84,o),
(556,215,cs),
(556,325,o),
(491,391,o),
(379,411,cs),
(306,424,ls),
(238,436,o),
(210,457,o),
(210,505,cs),
(210,560,o),
(244,588,o),
(311,588,cs),
(374,588,o),
(426,563,o),
(463,522,c),
(548,617,l),
(499,674,o),
(417,710,o),
(310,710,cs),
(152,710,o),
(59,632,o),
(59,498,cs),
(59,396,o),
(112,319,o),
(237,298,cs),
(310,286,ls),
(378,275,o),
(404,252,o),
(404,203,cs),
(404,143,o),
(365,110,o),
(294,110,cs),
(232,110,o),
(169,136,o),
(118,192,c),
(31,96,l),
(84,30,o),
(173,-12,o),
(289,-12,cs)
);
}
);
userData = {
com.typemytype.robofont.pointLabels = {
};
};
width = 600;
}
);
unicode = 83;
},
{
glyphname = Scedilla;
layers = (
{
anchors = (
{
name = top;
pos = (292,698);
}
);
layerId = m001;
shapes = (
{
closed = 1;
nodes = (
(363,-202,o),
(394,-169,o),
(394,-131,cs),
(394,-95,o),
(366,-72,o),
(327,-72,cs),
(318,-72,o),
(306,-73,o),
(297,-75,c),
(295,-73,l),
(310,-12,l),
(440,-12,o),
(527,52,o),
(527,177,cs),
(527,259,o),
(492,338,o),
(345,362,cs),
(265,375,ls),
(178,389,o),
(104,426,o),
(104,535,cs),
(104,639,o),
(177,690,o),
(297,690,cs),
(397,690,o),
(458,659,o),
(499,599,c),
(516,613,l),
(477,670,o),
(413,710,o),
(299,710,cs),
(168,710,o),
(82,653,o),
(82,535,cs),
(82,453,o),
(120,377,o),
(261,354,cs),
(341,341,ls),
(427,327,o),
(505,292,o),
(505,176,cs),
(505,66,o),
(431,8,o),
(304,8,cs),
(190,8,o),
(133,51,o),
(84,115,c),
(66,102,l),
(114,38,o),
(177,-9,o),
(292,-12,c),
(275,-84,l),
(312,-86,ls),
(357,-88,o),
(373,-107,o),
(373,-132,cs),
(373,-166,o),
(348,-184,o),
(312,-184,cs),
(282,-184,o),
(258,-174,o),
(244,-157,c),
(231,-170,l),
(243,-187,o),
(274,-202,o),
(312,-202,cs)
);
}
);
userData = {
com.typemytype.robofont.pointLabels = {
};
};
width = 600;
},
{
anchors = (
{
name = top;
pos = (298,698);
}
);
layerId = m002;
shapes = (
{
closed = 1;
nodes = (
(368,-207,o),
(420,-181,o),
(420,-124,cs),
(420,-81,o),
(391,-58,o),
(352,-58,cs),
(340,-58,o),
(326,-60,o),
(313,-64,c),
(310,-61,l),
(320,-11,l),
(461,-4,o),
(542,72,o),
(542,195,cs),
(542,286,o),
(497,362,o),
(360,386,cs),
(285,399,ls),
(186,416,o),
(154,456,o),
(154,518,cs),
(154,597,o),
(207,638,o),
(301,638,cs),
(388,638,o),
(438,603,o),
(477,552,c),
(536,603,l),
(489,670,o),
(413,710,o),
(302,710,cs),
(160,710,o),
(69,644,o),
(69,516,cs),
(69,428,o),
(112,349,o),
(249,326,cs),
(327,313,ls),
(422,297,o),
(457,261,o),
(457,193,cs),
(457,109,o),
(402,60,o),
(301,60,cs),
(217,60,o),
(160,93,o),
(106,161,c),
(45,111,l),
(93,44,o),
(161,-4,o),
(270,-11,c),
(257,-77,l),
(285,-81,ls),
(341,-89,o),
(353,-104,o),
(353,-122,cs),
(353,-143,o),
(334,-153,o),
(309,-153,cs),
(280,-153,o),
(260,-140,o),
(248,-125,c),
(210,-166,l),
(224,-185,o),
(255,-207,o),
(309,-207,cs)
);
}
);
userData = {
com.typemytype.robofont.pointLabels = {
};
};
width = 600;
},
{
anchors = (
{
name = top;
pos = (305,698);
}
);
layerId = m003;
shapes = (
{
closed = 1;
nodes = (
(374,-212,o),
(438,-189,o),
(438,-121,cs),
(438,-72,o),
(405,-52,o),
(365,-52,cs),
(349,-52,o),
(333,-55,o),
(317,-59,c),
(313,-55,l),
(322,-11,l),
(475,0,o),
(556,92,o),
(556,215,cs),
(556,325,o),
(491,391,o),
(379,411,cs),
(306,424,ls),
(238,436,o),
(210,457,o),
(210,505,cs),
(210,560,o),
(244,588,o),
(311,588,cs),
(374,588,o),
(426,563,o),
(463,522,c),
(548,617,l),
(499,674,o),
(417,710,o),
(310,710,cs),
(152,710,o),
(59,632,o),
(59,498,cs),
(59,396,o),
(112,319,o),
(237,298,cs),
(310,286,ls),
(378,275,o),
(404,252,o),
(404,203,cs),
(404,143,o),
(365,110,o),
(294,110,cs),
(232,110,o),
(169,136,o),
(118,192,c),
(31,96,l),
(79,36,o),
(156,-3,o),
(255,-11,c),
(242,-74,l),
(263,-76,ls),
(325,-82,o),
(338,-101,o),
(338,-116,cs),
(338,-133,o),
(319,-141,o),
(294,-141,cs),
(263,-141,o),
(241,-128,o),
(228,-112,c),
(182,-168,l),
(199,-188,o),
(237,-212,o),
(306,-212,cs)
);
}
);
userData = {
com.typemytype.robofont.pointLabels = {
};
};
width = 600;
}
);
unicode = 350;
},
{
glyphname = Germandbls;
layers = (
{
layerId = m001;
shapes = (
{
closed = 1;
nodes = (
(120,0,l),
(120,678,l),
(496,678,l),
(309,399,l),
(309,379,l),
(335,379,ls),
(486,379,o),
(551,317,o),
(551,211,cs),
(551,169,ls),
(551,61,o),
(481,8,o),
(383,8,cs),
(297,8,o),
(254,40,o),
(216,90,c),
(199,77,l),
(238,24,o),
(290,-12,o),
(383,-12,cs),
(500,-12,o),
(575,54,o),
(575,191,cs),
(575,328,o),
(499,398,o),
(335,398,c),
(335,402,l),
(519,676,l),
(519,698,l),
(98,698,l),
(98,0,l)
);
}
);
userData = {
com.typemytype.robofont.pointLabels = {
};
};
width = 600;
},
{
layerId = m002;
shapes = (
{
closed = 1;
nodes = (
(147,0,l),
(147,625,l),
(451,625,l),
(278,409,l),
(278,332,l),
(372,332,ls),
(445,332,o),
(491,286,o),
(491,213,cs),
(491,177,ls),
(491,104,o),
(445,58,o),
(373,58,cs),
(322,58,o),
(278,81,o),
(247,122,c),
(189,73,l),
(231,15,o),
(294,-12,o),
(370,-12,cs),
(499,-12,o),
(580,65,o),
(580,195,cs),
(580,326,o),
(499,399,o),
(367,401,c),
(367,405,l),
(536,616,l),
(536,698,l),
(63,698,l),
(63,0,l)
);
}
);
userData = {
com.typemytype.robofont.pointLabels = {
};
};
width = 600;
},
{
layerId = m003;
shapes = (
{
closed = 1;
nodes = (
(193,0,l),
(193,582,l),
(412,582,l),
(285,419,l),
(285,302,l),
(371,302,ls),
(426,302,o),
(449,271,o),
(449,228,cs),
(449,192,ls),
(449,145,o),
(434,105,o),
(379,105,cs),
(349,105,o),
(319,117,o),
(292,141,c),
(229,37,l),
(274,-1,o),
(330,-12,o),
(381,-12,cs),
(535,-12,o),
(600,89,o),
(600,209,cs),
(600,352,o),
(506,401,o),
(432,406,c),
(432,412,l),
(556,569,l),
(556,698,l),
(46,698,l),
(46,0,l)
);
}
);
userData = {
com.typemytype.robofont.pointLabels = {
};
};
width = 600;
}
);
unicode = 7838;
},
{
glyphname = T;
layers = (
{
anchors = (
{
name = bottom;
pos = (300,0);
},
{
name = top;
pos = (300,698);
}
);
layerId = m001;
shapes = (
{
closed = 1;
nodes = (
(559,698,l),
(41,698,l),
(41,678,l),
(289,678,l),
(289,0,l),
(311,0,l),
(311,678,l),
(559,678,l)
);
}
);
userData = {
com.typemytype.robofont.pointLabels = {
};
};
width = 600;
},
{
anchors = (
{
name = bottom;
pos = (300,0);
},
{
name = top;
pos = (300,698);
}
);
layerId = m002;
shapes = (
{
closed = 1;
nodes = (
(575,698,l),
(25,698,l),
(25,625,l),
(258,625,l),
(258,0,l),
(342,0,l),
(342,625,l),
(575,625,l)
);
}
);
userData = {
com.typemytype.robofont.pointLabels = {
};
};
width = 600;
},
{
anchors = (
{
name = bottom;
pos = (300,0);
},
{
name = top;
pos = (300,698);
}
);
layerId = m003;
shapes = (
{
closed = 1;
nodes = (
(576,698,l),
(24,698,l),
(24,575,l),
(225,575,l),
(225,0,l),
(375,0,l),
(375,575,l),
(576,575,l)
);
}
);
userData = {
com.typemytype.robofont.pointLabels = {
};
};
width = 600;
}
);
unicode = 84;
},
{
glyphname = Tbar;
layers = (
{
anchors = (
{
name = bottom;
pos = (300,0);
},
{
name = top;
pos = (300,698);
}
);
layerId = m001;
shapes = (
{
closed = 1;
nodes = (
(502,384,l),
(311,384,l),
(311,678,l),
(559,678,l),
(559,698,l),
(41,698,l),
(41,678,l),
(289,678,l),
(289,384,l),
(98,384,l),
(98,365,l),
(289,365,l),
(289,0,l),
(311,0,l),
(311,365,l),
(502,365,l)
);
}
);
userData = {
com.typemytype.robofont.pointLabels = {
};
};
width = 600;
},
{
anchors = (
{
name = bottom;
pos = (300,0);
},
{
name = top;
pos = (300,698);
}
);
layerId = m002;
shapes = (
{
closed = 1;
nodes = (
(515,400,l),
(342,400,l),
(342,625,l),
(575,625,l),
(575,698,l),
(25,698,l),
(25,625,l),
(258,625,l),
(258,400,l),
(85,400,l),
(85,336,l),
(258,336,l),
(258,0,l),
(342,0,l),
(342,336,l),
(515,336,l)
);
}
);
userData = {
com.typemytype.robofont.pointLabels = {
};
};
width = 600;
},
{
anchors = (
{
name = bottom;
pos = (300,0);
},
{
name = top;
pos = (300,698);
}
);
layerId = m003;
shapes = (
{
closed = 1;
nodes = (
(518,396,l),
(375,396,l),
(375,575,l),
(576,575,l),
(576,698,l),
(24,698,l),
(24,575,l),
(225,575,l),
(225,396,l),
(82,396,l),
(82,282,l),
(225,282,l),
(225,0,l),
(375,0,l),
(375,282,l),
(518,282,l)
);
}
);
userData = {
com.typemytype.robofont.pointLabels = {
};
};
width = 600;
}
);
unicode = 358;
},
{
glyphname = Tcedilla;
layers = (
{
anchors = (
{
name = top;
pos = (300,698);
}
);
layerId = m001;
shapes = (
{
closed = 1;
nodes = (
(359,-202,o),
(390,-169,o),
(390,-131,cs),
(390,-95,o),
(362,-72,o),
(323,-72,cs),
(314,-72,o),
(302,-73,o),
(293,-75,c),
(291,-73,l),
(309,0,l),
(311,0,l),
(311,678,l),
(559,678,l),
(559,698,l),
(41,698,l),
(41,678,l),
(289,678,l),
(289,0,l),
(291,0,l),
(271,-84,l),
(308,-86,ls),
(353,-88,o),
(369,-107,o),
(369,-132,cs),
(369,-166,o),
(344,-184,o),
(308,-184,cs),
(278,-184,o),
(254,-174,o),
(240,-157,c),
(227,-170,l),
(239,-187,o),
(270,-202,o),
(308,-202,cs)
);
}
);
userData = {
com.typemytype.robofont.pointLabels = {
};
};
width = 600;
},
{
anchors = (
{
name = top;
pos = (300,698);
}
);
layerId = m002;
shapes = (
{
closed = 1;
nodes = (
(371,-207,o),
(423,-181,o),
(423,-124,cs),
(423,-81,o),
(394,-58,o),
(355,-58,cs),
(343,-58,o),
(329,-60,o),
(316,-64,c),
(313,-61,l),
(325,0,l),
(342,0,l),
(342,625,l),
(575,625,l),
(575,698,l),
(25,698,l),
(25,625,l),
(258,625,l),
(258,0,l),
(275,0,l),
(260,-77,l),
(288,-81,ls),
(344,-89,o),
(356,-104,o),
(356,-122,cs),
(356,-143,o),
(337,-153,o),
(312,-153,cs),
(283,-153,o),
(263,-140,o),
(251,-125,c),
(213,-166,l),
(227,-185,o),
(258,-207,o),
(312,-207,cs)
);
}
);
userData = {
com.typemytype.robofont.pointLabels = {
};
};
width = 600;
},
{
anchors = (
{
name = top;
pos = (300,698);
}
);
layerId = m003;
shapes = (
{
closed = 1;
nodes = (
(382,-212,o),
(446,-189,o),
(446,-121,cs),
(446,-72,o),
(413,-52,o),
(373,-52,cs),
(357,-52,o),
(341,-55,o),
(325,-59,c),
(321,-55,l),
(332,0,l),
(375,0,l),
(375,575,l),
(576,575,l),
(576,698,l),
(24,698,l),
(24,575,l),
(225,575,l),
(225,0,l),
(265,0,l),
(250,-74,l),
(271,-76,ls),
(333,-82,o),
(346,-101,o),
(346,-116,cs),
(346,-133,o),
(327,-141,o),
(302,-141,cs),
(271,-141,o),
(249,-128,o),
(236,-112,c),
(190,-168,l),
(207,-188,o),
(245,-212,o),
(314,-212,cs)
);
}
);
userData = {
com.typemytype.robofont.pointLabels = {
};
};
width = 600;
}
);
unicode = 354;
},
{
glyphname = U;
layers = (
{
anchors = (
{
name = bottom;
pos = (300,0);
},
{
name = bottomright;
pos = (390,0);
},
{
name = top;
pos = (300,698);
}
);
layerId = m001;
shapes = (
{
closed = 1;
nodes = (
(98,273,ls),
(98,54,o),
(147,-12,o),
(300,-12,cs),
(453,-12,o),
(502,54,o),
(502,273,cs),
(502,698,l),
(480,698,l),
(480,273,ls),
(480,67,o),
(440,8,o),
(300,8,cs),
(160,8,o),
(120,67,o),
(120,273,cs),
(120,698,l),
(98,698,l)
);
}
);
userData = {
com.typemytype.robofont.pointLabels = {
};
};
width = 600;
},
{
anchors = (
{
name = bottom;
pos = (300,0);
},
{
name = bottomright;
pos = (394,0);
},
{
name = top;
pos = (300,698);
}
);
layerId = m002;
shapes = (
{
closed = 1;
nodes = (
(80,299,ls),
(80,92,o),
(110,-12,o),
(300,-12,cs),
(490,-12,o),
(520,92,o),
(520,299,cs),
(520,698,l),
(436,698,l),
(436,279,ls),
(436,144,o),
(431,61,o),
(300,61,cs),
(169,61,o),
(164,144,o),
(164,279,cs),
(164,698,l),
(80,698,l)
);
}
);
userData = {
com.typemytype.robofont.pointLabels = {
};
};
width = 600;
},
{
anchors = (
{
name = bottom;
pos = (300,0);
},
{
name = bottomright;
pos = (404,0);
},
{
name = top;
pos = (300,698);
}
);
layerId = m003;
shapes = (
{
closed = 1;
nodes = (
(55,276,ls),
(55,85,o),
(97,-12,o),
(300,-12,cs),
(503,-12,o),
(545,85,o),
(545,276,cs),
(545,698,l),
(395,698,l),
(395,256,ls),
(395,167,o),
(388,109,o),
(300,109,cs),
(212,109,o),
(205,167,o),
(205,256,cs),
(205,698,l),
(55,698,l)
);
}
);
userData = {
com.typemytype.robofont.pointLabels = {
};
};
width = 600;
}
);
unicode = 85;
},
{
glyphname = Uhorn;
layers = (
{
anchors = (
{
name = bottom;
pos = (300,0);
},
{
name = top;
pos = (300,698);
}
);
layerId = m001;
shapes = (
{
closed = 1;
nodes = (
(98,273,ls),
(98,54,o),
(147,-12,o),
(300,-12,cs),
(453,-12,o),
(502,54,o),
(502,273,cs),
(502,680,l),
(569,680,ls),
(589,680,o),
(598,689,o),
(598,709,cs),
(598,809,l),
(578,809,l),
(578,698,l),
(480,698,l),
(480,273,ls),
(480,67,o),
(440,8,o),
(300,8,cs),
(160,8,o),
(120,67,o),
(120,273,cs),
(120,698,l),
(98,698,l)
);
}
);
userData = {
com.typemytype.robofont.pointLabels = {
};
};
width = 600;
},
{
anchors = (
{
name = bottom;
pos = (300,0);
},
{
name = top;
pos = (300,698);
}
);
layerId = m002;
shapes = (
{
closed = 1;
nodes = (
(80,299,ls),
(80,92,o),
(110,-12,o),
(300,-12,cs),
(490,-12,o),
(520,92,o),
(520,299,cs),
(520,645,l),
(537,645,ls),
(587,645,o),
(600,673,o),
(600,708,cs),
(600,810,l),
(529,810,l),
(529,698,l),
(436,698,l),
(436,279,ls),
(436,144,o),
(431,61,o),
(300,61,cs),
(169,61,o),
(164,144,o),
(164,279,cs),
(164,698,l),
(80,698,l)
);
}
);
userData = {
com.typemytype.robofont.pointLabels = {
};
};
width = 600;
},
{
anchors = (
{
name = bottom;
pos = (300,0);
},
{
name = top;
pos = (300,698);
}
);
layerId = m003;
shapes = (
{
closed = 1;
nodes = (
(55,276,ls),
(55,85,o),
(97,-12,o),
(300,-12,cs),
(503,-12,o),
(545,85,o),
(545,276,cs),
(545,614,l),
(588,626,o),
(600,658,o),
(600,710,cs),
(600,813,l),
(476,813,l),
(476,698,l),
(395,698,l),
(395,256,ls),
(395,167,o),
(388,109,o),
(300,109,cs),
(212,109,o),
(205,167,o),
(205,256,cs),
(205,698,l),
(55,698,l)
);
}
);
userData = {
com.typemytype.robofont.pointLabels = {
};
};
width = 600;
}
);
unicode = 431;
},
{
glyphname = Uogonek;
layers = (
{
anchors = (
{
name = bottom;
pos = (300,0);
},
{
name = top;
pos = (300,698);
}
);
layerId = m001;
shapes = (
{
closed = 1;
nodes = (
(98,273,ls),
(98,54,o),
(147,-12,o),
(300,-12,cs),
(329,-12,o),
(353,-9,o),
(375,-3,c),
(376,-5,l),
(285,-57,o),
(262,-96,o),
(262,-134,cs),
(262,-179,o),
(296,-202,o),
(341,-202,cs),
(377,-202,o),
(403,-188,o),
(416,-170,c),
(402,-159,l),
(392,-171,o),
(374,-184,o),
(341,-184,cs),
(307,-184,o),
(283,-170,o),
(283,-132,cs),
(283,-82,o),
(324,-56,o),
(429,19,cs),
(481,56,o),
(502,135,o),
(502,273,cs),
(502,698,l),
(480,698,l),
(480,273,ls),
(480,67,o),
(440,8,o),
(300,8,cs),
(160,8,o),
(120,67,o),
(120,273,cs),
(120,698,l),
(98,698,l)
);
}
);
userData = {
com.typemytype.robofont.pointLabels = {
};
};
width = 600;
},
{
anchors = (
{
name = bottom;
pos = (300,0);
},
{
name = top;
pos = (300,698);
}
);
layerId = m002;
shapes = (
{
closed = 1;
nodes = (
(80,299,ls),
(80,95,o),
(110,-12,o),
(295,-12,cs),
(313,-12,o),
(329,-11,o),
(345,-7,c),
(347,-11,l),
(272,-45,o),
(232,-82,o),
(232,-128,cs),
(232,-179,o),
(280,-207,o),
(341,-207,cs),
(391,-207,o),
(421,-188,o),
(434,-166,c),
(394,-125,l),
(381,-141,o),
(364,-151,o),
(342,-151,cs),
(320,-151,o),
(300,-140,o),
(300,-116,cs),
(300,-72,o),
(369,-32,o),
(413,0,cs),
(510,71,o),
(520,146,o),
(520,299,cs),
(520,698,l),
(436,698,l),
(436,279,ls),
(436,144,o),
(431,61,o),
(300,61,cs),
(169,61,o),
(164,144,o),
(164,279,cs),
(164,698,l),
(80,698,l)
);
}
);
userData = {
com.typemytype.robofont.pointLabels = {
};
};
width = 600;
},
{
anchors = (
{
name = bottom;
pos = (300,0);
},
{
name = top;
pos = (300,698);
}
);
layerId = m003;
shapes = (
{
closed = 1;
nodes = (
(55,276,ls),
(55,88,o),
(97,-12,o),
(294,-12,cs),
(314,-12,o),
(324,-11,o),
(335,-9,c),
(337,-14,l),
(261,-47,o),
(218,-75,o),
(218,-128,cs),
(218,-190,o),
(275,-212,o),
(342,-212,cs),
(405,-212,o),
(447,-193,o),
(464,-161,c),
(411,-110,l),
(397,-126,o),
(380,-138,o),
(356,-138,cs),
(337,-138,o),
(318,-130,o),
(318,-105,cs),
(318,-82,o),
(333,-70,o),
(430,-1,cs),
(540,77,o),
(545,149,o),
(545,276,cs),
(545,698,l),
(395,698,l),
(395,256,ls),
(395,167,o),
(388,109,o),
(300,109,cs),
(212,109,o),
(205,167,o),
(205,256,cs),
(205,698,l),
(55,698,l)
);
}
);
userData = {
com.typemytype.robofont.pointLabels = {
};
};
width = 600;
}
);
unicode = 370;
},
{
glyphname = V;
layers = (
{
anchors = (
{
name = bottom;
pos = (300,0);
},
{
name = top;
pos = (300,698);
}
);
layerId = m001;
shapes = (
{
closed = 1;
nodes = (
(545,698,l),
(523,698,l),
(302,25,l),
(299,25,l),
(79,698,l),
(55,698,l),
(285,0,l),
(315,0,l)
);
}
);
userData = {
com.typemytype.robofont.pointLabels = {
};
};
width = 600;
},
{
anchors = (
{
name = bottom;
pos = (300,0);
},
{
name = top;
pos = (300,698);
}
);
layerId = m002;
shapes = (
{
closed = 1;
nodes = (
(564,698,l),
(478,698,l),
(379,349,l),
(304,85,l),
(299,85,l),
(224,349,l),
(125,698,l),
(36,698,l),
(243,0,l),
(357,0,l)
);
}
);
userData = {
com.typemytype.robofont.pointLabels = {
};
};
width = 600;
},
{
anchors = (
{
name = bottom;
pos = (300,0);
},
{
name = top;
pos = (300,698);
}
);
layerId = m003;
shapes = (
{
closed = 1;
nodes = (
(591,698,l),
(432,698,l),
(349,343,l),
(307,142,l),
(299,142,l),
(258,343,l),
(176,698,l),
(9,698,l),
(194,0,l),
(406,0,l)
);
}
);
userData = {
com.typemytype.robofont.pointLabels = {
};
};
width = 600;
}
);
unicode = 86;
},
{
glyphname = W;
layers = (
{
anchors = (
{
name = bottom;
pos = (300,0);
},
{
name = top;
pos = (300,698);
}
);
layerId = m001;
shapes = (
{
closed = 1;
nodes = (
(299,454,l),
(302,454,l),
(436,0,l),
(474,0,l),
(542,698,l),
(522,698,l),
(456,22,l),
(452,22,l),
(314,484,l),
(287,484,l),
(149,22,l),
(145,22,l),
(79,698,l),
(58,698,l),
(126,0,l),
(164,0,l)
);
}
);
userData = {
com.typemytype.robofont.pointLabels = {
};
};
width = 600;
},
{
anchors = (
{
name = bottom;
pos = (300,0);
},
{
name = top;
pos = (300,698);
}
);
layerId = m002;
shapes = (
{
closed = 1;
nodes = (
(296,417,l),
(304,417,l),
(389,0,l),
(510,0,l),
(565,698,l),
(492,698,l),
(463,298,l),
(448,87,l),
(440,87,l),
(348,516,l),
(254,516,l),
(162,87,l),
(154,87,l),
(139,298,l),
(110,698,l),
(35,698,l),
(90,0,l),
(211,0,l)
);
}
);
userData = {
com.typemytype.robofont.pointLabels = {
};
};
width = 600;
},
{
anchors = (
{
name = bottom;
pos = (300,0);
},
{
name = top;
pos = (300,698);
}
);
layerId = m003;
shapes = (
{
closed = 1;
nodes = (
(295,385,l),
(305,385,l),
(356,0,l),
(546,0,l),
(589,698,l),
(465,698,l),
(445,276,l),
(439,148,l),
(430,148,l),
(370,546,l),
(235,546,l),
(175,148,l),
(166,148,l),
(160,280,l),
(140,698,l),
(11,698,l),
(54,0,l),
(244,0,l)
);
}
);
userData = {
com.typemytype.robofont.pointLabels = {
};
};
width = 600;
}
);
unicode = 87;
},
{
glyphname = X;
layers = (
{
anchors = (
{
name = bottom;
pos = (300,0);
},
{
name = top;
pos = (300,698);
}
);
layerId = m001;
shapes = (
{
closed = 1;
nodes = (
(542,698,l),
(516,698,l),
(302,375,l),
(299,375,l),
(85,698,l),
(58,698,l),
(287,354,l),
(49,0,l),
(75,0,l),
(299,336,l),
(302,336,l),
(524,0,l),
(551,0,l),
(314,357,l)
);
}
);
userData = {
com.typemytype.robofont.pointLabels = {
};
};
width = 600;
},
{
anchors = (
{
name = bottom;
pos = (300,0);
},
{
name = top;
pos = (300,698);
}
);
layerId = m002;
shapes = (
{
closed = 1;
nodes = (
(568,698,l),
(476,698,l),
(392,563,l),
(306,422,l),
(302,422,l),
(215,563,l),
(134,698,l),
(39,698,l),
(254,356,l),
(26,0,l),
(118,0,l),
(206,139,l),
(301,291,l),
(305,291,l),
(397,139,l),
(480,0,l),
(575,0,l),
(352,357,l)
);
}
);
userData = {
com.typemytype.robofont.pointLabels = {
};
};
width = 600;
},
{
anchors = (
{
name = bottom;
pos = (300,0);
},
{
name = top;
pos = (300,698);
}
);
layerId = m003;
shapes = (
{
closed = 1;
nodes = (
(578,698,l),
(421,698,l),
(361,587,l),
(309,475,l),
(301,475,l),
(250,587,l),
(193,698,l),
(22,698,l),
(205,361,l),
(9,0,l),
(166,0,l),
(240,139,l),
(290,249,l),
(299,249,l),
(348,139,l),
(420,0,l),
(591,0,l),
(395,359,l)
);
}
);
userData = {
com.typemytype.robofont.pointLabels = {
};
};
width = 600;
}
);
unicode = 88;
},
{
glyphname = Y;
layers = (
{
anchors = (
{
name = bottom;
pos = (300,0);
},
{
name = top;
pos = (300,698);
}
);
layerId = m001;
shapes = (
{
closed = 1;
nodes = (
(311,294,l),
(572,698,l),
(548,698,l),
(302,318,l),
(299,318,l),
(53,698,l),
(28,698,l),
(289,294,l),
(289,0,l),
(311,0,l)
);
}
);
userData = {
com.typemytype.robofont.pointLabels = {
};
};
width = 600;
},
{
anchors = (
{
name = bottom;
pos = (300,0);
},
{
name = top;
pos = (300,698);
}
);
layerId = m002;
shapes = (
{
closed = 1;
nodes = (
(342,274,l),
(583,698,l),
(489,698,l),
(389,516,l),
(302,357,l),
(298,357,l),
(213,516,l),
(113,698,l),
(17,698,l),
(258,274,l),
(258,0,l),
(342,0,l)
);
}
);
userData = {
com.typemytype.robofont.pointLabels = {
};
};
width = 600;
},
{
anchors = (
{
name = bottom;
pos = (300,0);
},
{
name = top;
pos = (300,698);
}
);
layerId = m003;
shapes = (
{
closed = 1;
nodes = (
(375,247,l),
(596,698,l),
(435,698,l),
(361,536,l),
(307,399,l),
(299,399,l),
(245,536,l),
(171,698,l),
(4,698,l),
(225,247,l),
(225,0,l),
(375,0,l)
);
}
);
userData = {
com.typemytype.robofont.pointLabels = {
};
};
width = 600;
}
);
unicode = 89;
},
{
glyphname = Z;
layers = (
{
anchors = (
{
name = bottom;
pos = (301,0);
},
{
name = top;
pos = (300,698);
}
);
layerId = m001;
shapes = (
{
closed = 1;
nodes = (
(72,20,l),
(529,676,l),
(529,698,l),
(71,698,l),
(71,678,l),
(505,678,l),
(48,22,l),
(48,0,l),
(552,0,l),
(552,20,l)
);
}
);
userData = {
com.typemytype.robofont.pointLabels = {
};
};
width = 600;
},
{
anchors = (
{
name = bottom;
pos = (300,0);
},
{
name = top;
pos = (300,698);
}
);
layerId = m002;
shapes = (
{
closed = 1;
nodes = (
(139,73,l),
(535,623,l),
(535,698,l),
(65,698,l),
(65,625,l),
(443,625,l),
(48,75,l),
(48,0,l),
(552,0,l),
(552,73,l)
);
}
);
userData = {
com.typemytype.robofont.pointLabels = {
};
};
width = 600;
},
{
anchors = (
{
name = bottom;
pos = (299,0);
},
{
name = top;
pos = (300,698);
}
);
layerId = m003;
shapes = (
{
closed = 1;
nodes = (
(216,123,l),
(541,567,l),
(541,698,l),
(58,698,l),
(58,575,l),
(373,575,l),
(48,131,l),
(48,0,l),
(551,0,l),
(551,123,l)
);
}
);
userData = {
com.typemytype.robofont.pointLabels = {
};
};
width = 600;
}
);
unicode = 90;
},
{
glyphname = a;
layers = (
{
anchors = (
{
name = bottom;
pos = (275,0);
},
{
name = bottomright;
pos = (531,0);
},
{
name = top;
pos = (275,516);
}
);
layerId = m001;
shapes = (
{
closed = 1;
nodes = (
(531,19,l),
(446,19,l),
(446,359,ls),
(446,466,o),
(383,528,o),
(275,528,cs),
(183,528,o),
(124,486,o),
(95,420,c),
(112,410,l),
(141,479,o),
(202,509,o),
(275,509,cs),
(368,509,o),
(425,460,o),
(425,356,cs),
(425,275,l),
(275,275,ls),
(123,275,o),
(78,214,o),
(78,130,cs),
(78,39,o),
(139,-12,o),
(249,-12,cs),
(346,-12,o),
(397,29,o),
(422,77,c),
(425,77,l),
(425,29,ls),
(425,9,o),
(434,0,o),
(454,0,cs),
(531,0,l)
);
},
{
closed = 1;
nodes = (
(162,7,o),
(101,45,o),
(101,114,cs),
(101,146,ls),
(101,212,o),
(150,257,o),
(276,257,cs),
(425,257,l),
(425,148,ls),
(425,54,o),
(343,7,o),
(249,7,cs)
);
}
);
userData = {
com.typemytype.robofont.pointLabels = {
};
};
width = 600;
},
{
anchors = (
{
name = bottom;
pos = (283,0);
},
{
name = bottomright;
pos = (550,0);
},
{
name = top;
pos = (283,516);
}
);
layerId = m002;
shapes = (
{
closed = 1;
nodes = (
(550,70,l),
(478,70,l),
(478,354,ls),
(478,463,o),
(401,528,o),
(280,528,cs),
(175,528,o),
(109,478,o),
(83,424,c),
(137,384,l),
(164,431,o),
(206,460,o),
(275,460,cs),
(353,460,o),
(398,421,o),
(398,346,cs),
(398,295,l),
(288,295,ls),
(133,295,o),
(66,240,o),
(66,145,cs),
(66,48,o),
(135,-12,o),
(243,-12,cs),
(327,-12,o),
(376,25,o),
(398,84,c),
(403,84,l),
(409,36,o),
(433,0,o),
(495,0,cs),
(550,0,l)
);
},
{
closed = 1;
nodes = (
(191,55,o),
(150,83,o),
(150,136,cs),
(150,157,ls),
(150,207,o),
(193,235,o),
(288,235,cs),
(398,235,l),
(398,150,ls),
(398,97,o),
(339,55,o),
(257,55,cs)
);
}
);
userData = {
com.typemytype.robofont.pointLabels = {
};
};
width = 600;
},
{
anchors = (
{
name = bottom;
pos = (292,0);
},
{
name = bottomright;
pos = (572,0);
},
{
name = top;
pos = (292,516);
}
);
layerId = m003;
shapes = (
{
closed = 1;
nodes = (
(572,107,l),
(515,107,l),
(515,333,ls),
(515,463,o),
(431,528,o),
(290,528,cs),
(175,528,o),
(100,485,o),
(66,427,c),
(147,355,l),
(175,393,o),
(211,420,o),
(273,420,cs),
(341,420,o),
(367,388,o),
(367,327,cs),
(367,301,l),
(284,301,ls),
(133,301,o),
(52,250,o),
(52,142,cs),
(52,45,o),
(118,-12,o),
(218,-12,cs),
(297,-12,o),
(357,24,o),
(375,91,c),
(380,91,l),
(386,33,o),
(426,0,o),
(487,0,cs),
(572,0,l)
);
},
{
closed = 1;
nodes = (
(227,85,o),
(197,104,o),
(197,140,cs),
(197,160,ls),
(197,200,o),
(229,221,o),
(288,221,cs),
(367,221,l),
(367,159,ls),
(367,111,o),
(326,85,o),
(274,85,cs)
);
}
);
userData = {
com.typemytype.robofont.pointLabels = {
};
};
width = 600;
}
);
unicode = 97;
},
{
glyphname = aogonek;
layers = (
{
anchors = (
{
name = bottom;
pos = (275,0);
},
{
name = top;
pos = (275,516);
}
);
layerId = m001;
shapes = (
{
closed = 1;
nodes = (
(446,19,l),
(446,359,ls),
(446,466,o),
(383,528,o),
(275,528,cs),
(183,528,o),
(124,486,o),
(95,420,c),
(112,410,l),
(141,479,o),
(202,509,o),
(275,509,cs),
(368,509,o),
(425,460,o),
(425,356,cs),
(425,275,l),
(275,275,ls),
(123,275,o),
(78,214,o),
(78,130,cs),
(78,39,o),
(139,-12,o),
(249,-12,cs),
(346,-12,o),
(397,29,o),
(422,77,c),
(425,77,l),
(425,29,ls),
(425,9,o),
(434,0,o),
(454,0,cs),
(503,0,l),
(504,-2,l),
(417,-51,o),
(391,-95,o),
(391,-134,cs),
(391,-179,o),
(425,-202,o),
(470,-202,cs),
(506,-202,o),
(532,-188,o),
(545,-170,c),
(531,-159,l),
(521,-171,o),
(503,-184,o),
(470,-184,cs),
(436,-184,o),
(412,-170,o),
(412,-133,cs),
(412,-80,o),
(460,-46,o),
(531,0,c),
(531,19,l)
);
},
{
closed = 1;
nodes = (
(425,148,ls),
(425,54,o),
(343,7,o),
(249,7,cs),
(162,7,o),
(101,45,o),
(101,114,cs),
(101,146,ls),
(101,212,o),
(150,257,o),
(276,257,cs),
(425,257,l)
);
}
);
userData = {
com.typemytype.robofont.pointLabels = {
};
};
width = 600;
},
{
anchors = (
{
name = bottom;
pos = (283,0);
},
{
name = top;
pos = (283,516);
}
);
layerId = m002;
shapes = (
{
closed = 1;
nodes = (
(478,70,l),
(478,354,ls),
(478,463,o),
(401,528,o),
(280,528,cs),
(175,528,o),
(109,478,o),
(83,424,c),
(137,384,l),
(164,431,o),
(206,460,o),
(274,460,cs),
(353,460,o),
(398,421,o),
(398,346,cs),
(398,295,l),
(288,295,ls),
(133,295,o),
(66,240,o),
(66,145,cs),
(66,48,o),
(135,-12,o),
(243,-12,c),
(327,-12,o),
(376,25,o),
(398,84,c),
(403,84,l),
(407,37,o),
(434,4,o),
(483,0,c),
(484,-3,l),
(409,-39,o),
(369,-79,o),
(369,-127,cs),
(369,-180,o),
(417,-207,o),
(478,-207,cs),
(528,-207,o),
(558,-188,o),
(571,-166,c),
(531,-125,l),
(518,-141,o),
(501,-151,o),
(479,-151,cs),
(458,-151,o),
(437,-142,o),
(437,-114,cs),
(437,-94,o),
(447,-65,o),
(550,0,c),
(550,70,l)
);
},
{
closed = 1;
nodes = (
(398,150,ls),
(398,97,o),
(339,55,o),
(257,55,cs),
(191,55,o),
(150,83,o),
(150,136,cs),
(150,157,ls),
(150,207,o),
(193,235,o),
(288,235,cs),
(398,235,l)
);
}
);
userData = {
com.typemytype.robofont.pointLabels = {
};
};
width = 600;
},
{
anchors = (
{
name = bottom;
pos = (292,0);
},
{
name = top;
pos = (292,516);
}
);
layerId = m003;
shapes = (
{
closed = 1;
nodes = (
(515,107,l),
(515,333,ls),
(515,463,o),
(431,528,o),
(290,528,cs),
(175,528,o),
(100,485,o),
(66,427,c),
(147,355,l),
(175,393,o),
(211,420,o),
(273,420,cs),
(341,420,o),
(367,388,o),
(367,327,cs),
(367,301,l),
(284,301,ls),
(133,301,o),
(52,250,o),
(52,142,cs),
(52,45,o),
(118,-12,o),
(218,-12,cs),
(297,-12,o),
(357,24,o),
(375,91,c),
(380,91,l),
(385,36,o),
(420,4,o),
(475,0,c),
(477,-4,l),
(403,-38,o),
(358,-71,o),
(358,-127,cs),
(358,-191,o),
(416,-212,o),
(482,-212,cs),
(545,-212,o),
(587,-193,o),
(604,-161,c),
(551,-110,l),
(537,-126,o),
(520,-138,o),
(496,-138,cs),
(476,-138,o),
(458,-130,o),
(458,-105,cs),
(458,-81,o),
(474,-60,o),
(572,0,c),
(572,107,l)
);
},
{
closed = 1;
nodes = (
(367,159,ls),
(367,111,o),
(326,85,o),
(273,85,cs),
(227,85,o),
(197,104,o),
(197,140,cs),
(197,160,ls),
(197,200,o),
(229,221,o),
(288,221,cs),
(367,221,l)
);
}
);
userData = {
com.typemytype.robofont.pointLabels = {
};
};
width = 600;
}
);
unicode = 261;
},
{
glyphname = ae;
layers = (
{
anchors = (
{
name = top;
pos = (298,516);
}
);
layerId = m001;
shapes = (
{
closed = 1;
nodes = (
(234,-12,o),
(285,40,o),
(296,121,c),
(299,121,l),
(318,27,o),
(368,-12,o),
(429,-12,cs),
(504,-12,o),
(548,46,o),
(569,117,c),
(550,122,l),
(528,45,o),
(486,7,o),
(430,7,cs),
(362,7,o),
(306,64,o),
(306,240,cs),
(306,258,l),
(575,258,l),
(575,313,ls),
(575,465,o),
(519,528,o),
(436,528,cs),
(373,528,o),
(329,494,o),
(305,411,c),
(302,411,l),
(289,495,o),
(239,528,o),
(176,528,cs),
(100,528,o),
(55,480,o),
(32,429,c),
(49,421,l),
(69,462,o),
(106,509,o),
(175,509,cs),
(238,509,o),
(286,470,o),
(286,363,cs),
(286,275,l),
(205,275,ls),
(89,275,o),
(24,236,o),
(24,135,cs),
(24,44,o),
(77,-12,o),
(157,-12,cs)
);
},
{
closed = 1;
nodes = (
(90,7,o),
(46,55,o),
(46,124,cs),
(46,142,ls),
(46,225,o),
(97,258,o),
(205,258,cs),
(286,258,l),
(286,164,ls),
(286,72,o),
(237,7,o),
(158,7,cs)
);
},
{
closed = 1;
nodes = (
(503,509,o),
(554,465,o),
(554,313,cs),
(554,275,l),
(306,275,l),
(306,298,ls),
(306,445,o),
(356,509,o),
(436,509,cs)
);
}
);
userData = {
com.typemytype.robofont.pointLabels = {
};
};
width = 600;
},
{
anchors = (
{
name = top;
pos = (300,516);
}
);
layerId = m002;
shapes = (
{
closed = 1;
nodes = (
(203,-12,o),
(251,24,o),
(269,102,c),
(272,102,l),
(300,30,o),
(350,-12,o),
(418,-12,cs),
(502,-12,o),
(554,53,o),
(574,114,c),
(516,141,l),
(499,96,o),
(472,52,o),
(420,52,cs),
(357,52,o),
(324,119,o),
(324,213,cs),
(324,238,l),
(582,238,l),
(582,292,ls),
(582,447,o),
(528,528,o),
(424,528,cs),
(372,528,o),
(327,507,o),
(300,450,c),
(297,450,l),
(274,500,o),
(233,528,o),
(173,528,cs),
(93,528,o),
(43,476,o),
(22,422,c),
(75,389,l),
(94,436,o),
(119,468,o),
(170,468,cs),
(221,468,o),
(251,437,o),
(251,348,cs),
(251,295,l),
(188,295,ls),
(73,295,o),
(10,242,o),
(10,138,cs),
(10,40,o),
(66,-12,o),
(141,-12,cs)
);
},
{
closed = 1;
nodes = (
(102,50,o),
(83,83,o),
(83,137,cs),
(83,152,ls),
(83,213,o),
(126,238,o),
(199,238,cs),
(251,238,l),
(251,154,ls),
(251,99,o),
(220,50,o),
(155,50,cs)
);
},
{
closed = 1;
nodes = (
(481,470,o),
(516,424,o),
(516,329,cs),
(516,295,l),
(324,295,l),
(324,329,ls),
(324,424,o),
(359,470,o),
(420,470,cs)
);
}
);
userData = {
com.typemytype.robofont.pointLabels = {
};
};
width = 600;
},
{
anchors = (
{
name = top;
pos = (298,516);
}
);
layerId = m003;
shapes = (
{
closed = 1;
nodes = (
(200,-12,o),
(246,24,o),
(258,105,c),
(262,105,l),
(286,23,o),
(349,-12,o),
(418,-12,cs),
(511,-12,o),
(558,51,o),
(578,129,c),
(481,156,l),
(471,117,o),
(454,84,o),
(417,84,cs),
(370,84,o),
(345,136,o),
(345,213,cs),
(345,228,l),
(584,228,l),
(584,297,ls),
(584,438,o),
(518,528,o),
(417,528,cs),
(365,528,o),
(325,504,o),
(297,455,c),
(293,455,l),
(270,502,o),
(229,528,o),
(168,528,cs),
(91,528,o),
(35,487,o),
(13,401,c),
(105,368,l),
(117,410,o),
(132,436,o),
(168,436,cs),
(206,436,o),
(226,407,o),
(226,362,cs),
(226,305,l),
(186,305,ls),
(69,305,o),
(4,248,o),
(4,141,cs),
(4,39,o),
(62,-12,o),
(137,-12,cs)
);
},
{
closed = 1;
nodes = (
(136,78,o),
(120,101,o),
(120,138,cs),
(120,157,ls),
(120,204,o),
(148,228,o),
(197,228,cs),
(226,228,l),
(226,179,ls),
(226,114,o),
(211,78,o),
(169,78,cs)
);
},
{
closed = 1;
nodes = (
(454,438,o),
(475,399,o),
(475,349,cs),
(475,305,l),
(345,305,l),
(345,349,ls),
(345,399,o),
(366,438,o),
(410,438,cs)
);
}
);
userData = {
com.typemytype.robofont.pointLabels = {
};
};
width = 600;
}
);
unicode = 230;
},
{
glyphname = b;
layers = (
{
anchors = (
{
name = bottom;
pos = (310,0);
}
);
layerId = m001;
shapes = (
{
closed = 1;
nodes = (
(146,0,l),
(146,78,l),
(149,78,l),
(170,34,o),
(223,-12,o),
(310,-12,cs),
(442,-12,o),
(520,79,o),
(520,258,cs),
(520,437,o),
(442,528,o),
(310,528,cs),
(223,528,o),
(170,482,o),
(149,438,c),
(146,438,l),
(146,740,l),
(125,740,l),
(125,0,l)
);
},
{
closed = 1;
nodes = (
(224,7,o),
(146,62,o),
(146,143,cs),
(146,373,ls),
(146,454,o),
(224,509,o),
(310,509,cs),
(430,509,o),
(497,422,o),
(497,282,cs),
(497,234,ls),
(497,94,o),
(430,7,o),
(310,7,cs)
);
}
);
userData = {
com.typemytype.robofont.pointLabels = {
};
};
width = 600;
},
{
anchors = (
{
name = bottom;
pos = (317,0);
}
);
layerId = m002;
shapes = (
{
closed = 1;
nodes = (
(175,0,l),
(175,84,l),
(179,84,l),
(212,21,o),
(266,-12,o),
(338,-12,cs),
(464,-12,o),
(540,89,o),
(540,258,cs),
(540,427,o),
(464,528,o),
(338,528,cs),
(266,528,o),
(212,495,o),
(179,432,c),
(175,432,l),
(175,740,l),
(95,740,l),
(95,0,l)
);
},
{
closed = 1;
nodes = (
(236,59,o),
(175,96,o),
(175,165,c),
(175,351,l),
(175,420,o),
(236,457,o),
(307,457,cs),
(400,457,o),
(454,395,o),
(454,302,cs),
(454,214,ls),
(454,121,o),
(400,59,o),
(307,59,cs)
);
}
);
userData = {
com.typemytype.robofont.pointLabels = {
};
};
width = 600;
},
{
anchors = (
{
name = bottom;
pos = (310,0);
}
);
layerId = m003;
shapes = (
{
closed = 1;
nodes = (
(207,0,l),
(207,94,l),
(214,94,l),
(240,32,o),
(284,-12,o),
(367,-12,cs),
(481,-12,o),
(561,71,o),
(561,258,cs),
(561,445,o),
(481,528,o),
(367,528,cs),
(284,528,o),
(240,484,o),
(214,422,c),
(207,422,l),
(207,740,l),
(59,740,l),
(59,0,l)
);
},
{
closed = 1;
nodes = (
(251,103,o),
(207,128,o),
(207,182,c),
(207,334,l),
(207,388,o),
(251,413,o),
(303,413,cs),
(369,413,o),
(407,370,o),
(407,298,cs),
(407,218,l),
(407,146,o),
(369,103,o),
(303,103,cs)
);
}
);
userData = {
com.typemytype.robofont.pointLabels = {
};
};
width = 600;
}
);
unicode = 98;
},
{
glyphname = c;
layers = (
{
anchors = (
{
name = bottom;
pos = (316,0);
},
{
name = top;
pos = (320,516);
}
);
layerId = m001;
shapes = (
{
closed = 1;
nodes = (
(415,-12,o),
(477,40,o),
(503,102,c),
(485,110,l),
(457,48,o),
(402,7,o),
(322,7,cs),
(201,7,o),
(133,94,o),
(133,234,cs),
(133,282,ls),
(133,422,o),
(201,509,o),
(322,509,cs),
(398,509,o),
(452,474,o),
(477,410,c),
(496,416,l),
(473,481,o),
(412,528,o),
(322,528,cs),
(189,528,o),
(110,437,o),
(110,258,cs),
(110,79,o),
(189,-12,o),
(322,-12,cs)
);
}
);
userData = {
com.typemytype.robofont.pointLabels = {
};
};
width = 600;
},
{
anchors = (
{
name = bottom;
pos = (303,0);
},
{
name = top;
pos = (313,516);
}
);
layerId = m002;
shapes = (
{
closed = 1;
nodes = (
(421,-12,o),
(486,39,o),
(516,108,c),
(459,147,l),
(433,91,o),
(388,57,o),
(319,57,cs),
(222,57,o),
(170,123,o),
(170,214,cs),
(170,302,ls),
(170,393,o),
(223,459,o),
(317,459,cs),
(381,459,o),
(425,428,o),
(444,375,c),
(508,409,l),
(479,479,o),
(417,528,o),
(317,528,cs),
(171,528,o),
(84,422,o),
(84,258,cs),
(84,95,o),
(170,-12,o),
(318,-12,cs)
);
}
);
userData = {
com.typemytype.robofont.pointLabels = {
};
};
width = 600;
},
{
anchors = (
{
name = bottom;
pos = (301,0);
},
{
name = top;
pos = (314,516);
}
);
layerId = m003;
shapes = (
{
closed = 1;
nodes = (
(436,-12,o),
(506,39,o),
(543,114,c),
(431,178,l),
(409,136,o),
(379,106,o),
(322,106,cs),
(252,106,o),
(214,148,o),
(214,216,cs),
(214,300,ls),
(214,368,o),
(253,410,o),
(320,410,cs),
(375,410,o),
(403,380,o),
(421,340,c),
(535,402,l),
(499,477,o),
(433,528,o),
(320,528,cs),
(159,528,o),
(60,425,o),
(60,258,cs),
(60,91,o),
(158,-12,o),
(321,-12,cs)
);
}
);
userData = {
com.typemytype.robofont.pointLabels = {
};
};
width = 600;
}
);
unicode = 99;
},
{
glyphname = ccedilla;
layers = (
{
anchors = (
{
name = top;
pos = (320,516);
}
);
layerId = m001;
shapes = (
{
closed = 1;
nodes = (
(189,528,o),
(110,437,o),
(110,258,cs),
(110,86,o),
(183,-5,o),
(306,-12,c),
(289,-84,l),
(326,-86,ls),
(371,-88,o),
(387,-107,o),
(387,-132,cs),
(387,-166,o),
(362,-184,o),
(326,-184,cs),
(296,-184,o),
(272,-174,o),
(258,-157,c),
(245,-170,l),
(257,-187,o),
(288,-202,o),
(326,-202,cs),
(377,-202,o),
(408,-169,o),
(408,-131,cs),
(408,-95,o),
(380,-72,o),
(341,-72,cs),
(332,-72,o),
(320,-73,o),
(311,-75,c),
(309,-73,l),
(324,-12,l),
(415,-12,o),
(477,40,o),
(503,102,c),
(485,110,l),
(457,48,o),
(402,7,o),
(322,7,cs),
(201,7,o),
(133,94,o),
(133,234,cs),
(133,282,ls),
(133,422,o),
(201,509,o),
(322,509,cs),
(398,509,o),
(452,474,o),
(477,410,c),
(496,416,l),
(473,481,o),
(412,528,o),
(322,528,cs)
);
}
);
userData = {
com.typemytype.robofont.pointLabels = {
};
};
width = 600;
},
{
anchors = (
{
name = top;
pos = (313,516);
}
);
layerId = m002;
shapes = (
{
closed = 1;
nodes = (
(171,528,o),
(84,422,o),
(84,258,cs),
(84,111,o),
(155,9,o),
(277,-9,c),
(263,-77,l),
(291,-81,ls),
(347,-89,o),
(359,-104,o),
(359,-122,cs),
(359,-143,o),
(340,-153,o),
(315,-153,cs),
(286,-153,o),
(266,-140,o),
(254,-125,c),
(216,-166,l),
(230,-185,o),
(261,-207,o),
(315,-207,cs),
(374,-207,o),
(426,-181,o),
(426,-124,cs),
(426,-81,o),
(397,-58,o),
(358,-58,cs),
(346,-58,o),
(332,-60,o),
(319,-64,c),
(316,-61,l),
(326,-12,l),
(425,-9,o),
(486,40,o),
(516,108,c),
(459,147,l),
(433,91,o),
(388,57,o),
(319,57,cs),
(222,57,o),
(170,123,o),
(170,214,cs),
(170,302,ls),
(170,393,o),
(223,459,o),
(317,459,cs),
(381,459,o),
(425,428,o),
(444,375,c),
(508,409,l),
(479,479,o),
(417,528,o),
(317,528,cs)
);
}
);
userData = {
com.typemytype.robofont.pointLabels = {
};
};
width = 600;
},
{
anchors = (
{
name = top;
pos = (314,516);
}
);
layerId = m003;
shapes = (
{
closed = 1;
nodes = (
(159,528,o),
(60,425,o),
(60,258,cs),
(60,111,o),
(136,14,o),
(265,-7,c),
(251,-74,l),
(272,-76,ls),
(334,-82,o),
(347,-101,o),
(347,-116,cs),
(347,-133,o),
(328,-141,o),
(303,-141,cs),
(272,-141,o),
(250,-128,o),
(237,-112,c),
(191,-168,l),
(208,-188,o),
(246,-212,o),
(315,-212,cs),
(383,-212,o),
(447,-189,o),
(447,-121,cs),
(447,-72,o),
(414,-52,o),
(374,-52,cs),
(358,-52,o),
(342,-55,o),
(326,-59,c),
(322,-55,l),
(331,-12,l),
(440,-9,o),
(507,41,o),
(543,114,c),
(431,178,l),
(409,136,o),
(379,106,o),
(322,106,cs),
(252,106,o),
(214,148,o),
(214,216,cs),
(214,300,ls),
(214,368,o),
(253,410,o),
(320,410,cs),
(375,410,o),
(403,380,o),
(421,340,c),
(535,402,l),
(499,477,o),
(433,528,o),
(320,528,cs)
);
}
);
userData = {
com.typemytype.robofont.pointLabels = {
};
};
width = 600;
}
);
unicode = 231;
},
{
glyphname = d;
layers = (
{
anchors = (
{
name = bottom;
pos = (285,0);
},
{
name = topright;
pos = (545,740);
}
);
layerId = m001;
shapes = (
{
closed = 1;
nodes = (
(475,0,l),
(475,740,l),
(454,740,l),
(454,438,l),
(451,438,l),
(430,482,o),
(377,528,o),
(290,528,cs),
(158,528,o),
(80,437,o),
(80,258,cs),
(80,79,o),
(158,-12,o),
(290,-12,cs),
(377,-12,o),
(430,34,o),
(451,78,c),
(454,78,l),
(454,0,l)
);
},
{
closed = 1;
nodes = (
(170,7,o),
(103,94,o),
(103,234,cs),
(103,282,ls),
(103,422,o),
(170,509,o),
(290,509,cs),
(376,509,o),
(454,454,o),
(454,373,cs),
(454,143,ls),
(454,62,o),
(376,7,o),
(290,7,cs)
);
}
);
userData = {
com.typemytype.robofont.pointLabels = {
};
};
width = 600;
},
{
anchors = (
{
name = bottom;
pos = (282,0);
},
{
name = topright;
pos = (567,740);
}
);
layerId = m002;
shapes = (
{
closed = 1;
nodes = (
(505,0,l),
(505,740,l),
(425,740,l),
(425,432,l),
(421,432,l),
(388,495,o),
(334,528,o),
(262,528,cs),
(136,528,o),
(60,427,o),
(60,258,cs),
(60,89,o),
(136,-12,o),
(262,-12,cs),
(334,-12,o),
(388,21,o),
(421,84,c),
(425,84,l),
(425,0,l)
);
},
{
closed = 1;
nodes = (
(200,59,o),
(146,121,o),
(146,214,cs),
(146,302,ls),
(146,395,o),
(200,457,o),
(293,457,cs),
(364,457,o),
(425,420,o),
(425,351,c),
(425,165,l),
(425,96,o),
(364,59,o),
(293,59,cs)
);
}
);
userData = {
com.typemytype.robofont.pointLabels = {
};
};
width = 600;
},
{
anchors = (
{
name = bottom;
pos = (290,0);
},
{
name = topright;
pos = (592,740);
}
);
layerId = m003;
shapes = (
{
closed = 1;
nodes = (
(541,0,l),
(541,740,l),
(393,740,l),
(393,422,l),
(386,422,l),
(360,484,o),
(316,528,o),
(233,528,cs),
(119,528,o),
(39,445,o),
(39,258,cs),
(39,71,o),
(119,-12,o),
(233,-12,cs),
(316,-12,o),
(360,32,o),
(386,94,c),
(393,94,l),
(393,0,l)
);
},
{
closed = 1;
nodes = (
(231,103,o),
(193,146,o),
(193,218,cs),
(193,298,l),
(193,370,o),
(231,413,o),
(297,413,cs),
(349,413,o),
(393,388,o),
(393,334,c),
(393,182,l),
(393,128,o),
(349,103,o),
(297,103,cs)
);
}
);
userData = {
com.typemytype.robofont.pointLabels = {
};
};
width = 600;
}
);
unicode = 100;
},
{
glyphname = dcaron;
layers = (
{
layerId = m001;
shapes = (
{
closed = 1;
nodes = (
(377,-12,o),
(430,34,o),
(451,78,c),
(454,78,l),
(454,0,l),
(475,0,l),
(475,740,l),
(454,740,l),
(454,438,l),
(451,438,l),
(430,482,o),
(377,528,o),
(290,528,cs),
(158,528,o),
(80,437,o),
(80,258,cs),
(80,79,o),
(158,-12,o),
(290,-12,cs)
);
},
{
closed = 1;
nodes = (
(170,7,o),
(103,94,o),
(103,234,cs),
(103,282,ls),
(103,422,o),
(170,509,o),
(290,509,cs),
(376,509,o),
(454,454,o),
(454,373,cs),
(454,143,ls),
(454,62,o),
(376,7,o),
(290,7,cs)
);
},
{
closed = 1;
nodes = (
(562,564,l),
(587,740,l),
(562,740,l),
(546,564,l)
);
}
);
userData = {
com.typemytype.robofont.pointLabels = {
};
};
width = 600;
},
{
layerId = m002;
shapes = (
{
closed = 1;
nodes = (
(304,-12,o),
(355,21,o),
(386,84,c),
(390,84,l),
(390,0,l),
(470,0,l),
(470,740,l),
(390,740,l),
(390,432,l),
(386,432,l),
(355,495,o),
(304,528,o),
(237,528,cs),
(117,528,o),
(45,427,o),
(45,258,cs),
(45,89,o),
(117,-12,o),
(237,-12,cs)
);
},
{
closed = 1;
nodes = (
(176,59,o),
(131,118,o),
(131,214,cs),
(131,302,ls),
(131,398,o),
(176,457,o),
(263,457,cs),
(329,457,o),
(390,420,o),
(390,351,c),
(390,165,l),
(390,96,o),
(329,59,o),
(263,59,cs)
);
},
{
closed = 1;
nodes = (
(599,551,l),
(648,740,l),
(545,740,l),
(538,551,l)
);
}
);
userData = {
com.typemytype.robofont.pointLabels = {
};
};
width = 600;
},
{
layerId = m003;
shapes = (
{
closed = 1;
nodes = (
(254,-12,o),
(286,31,o),
(306,93,c),
(314,93,l),
(314,0,l),
(455,0,l),
(455,740,l),
(314,740,l),
(314,423,l),
(306,423,l),
(286,485,o),
(254,528,o),
(185,528,cs),
(86,528,o),
(27,443,o),
(27,258,cs),
(27,73,o),
(86,-12,o),
(185,-12,cs)
);
},
{
closed = 1;
nodes = (
(200,97,o),
(174,127,o),
(174,200,cs),
(174,316,ls),
(174,389,o),
(200,419,o),
(244,419,cs),
(285,419,o),
(314,392,o),
(314,336,cs),
(314,180,ls),
(314,124,o),
(285,97,o),
(244,97,cs)
);
},
{
closed = 1;
nodes = (
(583,529,l),
(637,740,l),
(508,740,l),
(506,529,l)
);
}
);
userData = {
com.typemytype.robofont.pointLabels = {
};
};
width = 600;
}
);
unicode = 271;
},
{
glyphname = dcroat;
layers = (
{
layerId = m001;
shapes = (
{
closed = 1;
nodes = (
(475,0,l),
(475,636,l),
(547,636,l),
(547,654,l),
(475,654,l),
(475,740,l),
(454,740,l),
(454,654,l),
(289,654,l),
(289,636,l),
(454,636,l),
(454,438,l),
(451,438,l),
(430,482,o),
(377,528,o),
(290,528,cs),
(158,528,o),
(80,437,o),
(80,258,cs),
(80,79,o),
(158,-12,o),
(290,-12,cs),
(377,-12,o),
(430,34,o),
(451,78,c),
(454,78,l),
(454,0,l)
);
},
{
closed = 1;
nodes = (
(170,7,o),
(103,94,o),
(103,234,cs),
(103,282,ls),
(103,422,o),
(170,509,o),
(290,509,cs),
(376,509,o),
(454,454,o),
(454,373,cs),
(454,143,ls),
(454,62,o),
(376,7,o),
(290,7,cs)
);
}
);
userData = {
com.typemytype.robofont.pointLabels = {
};
};
width = 600;
},
{
layerId = m002;
shapes = (
{
closed = 1;
nodes = (
(505,0,l),
(505,608,l),
(570,608,l),
(570,670,l),
(505,670,l),
(505,740,l),
(425,740,l),
(425,670,l),
(272,670,l),
(272,608,l),
(425,608,l),
(425,432,l),
(421,432,l),
(388,495,o),
(334,528,o),
(262,528,cs),
(136,528,o),
(60,427,o),
(60,258,cs),
(60,89,o),
(136,-12,o),
(262,-12,cs),
(334,-12,o),
(388,21,o),
(421,84,c),
(425,84,l),
(425,0,l)
);
},
{
closed = 1;
nodes = (
(200,59,o),
(146,121,o),
(146,214,cs),
(146,302,ls),
(146,395,o),
(200,457,o),
(293,457,cs),
(364,457,o),
(425,420,o),
(425,351,cs),
(425,165,ls),
(425,96,o),
(364,59,o),
(293,59,cs)
);
}
);
userData = {
com.typemytype.robofont.pointLabels = {
};
};
width = 600;
},
{
layerId = m003;
shapes = (
{
closed = 1;
nodes = (
(541,0,l),
(541,580,l),
(596,580,l),
(596,690,l),
(541,690,l),
(541,740,l),
(393,740,l),
(393,690,l),
(253,690,l),
(253,580,l),
(393,580,l),
(393,422,l),
(386,422,l),
(360,484,o),
(316,528,o),
(233,528,cs),
(119,528,o),
(39,445,o),
(39,258,cs),
(39,71,o),
(119,-12,o),
(233,-12,cs),
(316,-12,o),
(360,32,o),
(386,94,c),
(393,94,l),
(393,0,l)
);
},
{
closed = 1;
nodes = (
(231,103,o),
(193,146,o),
(193,218,cs),
(193,298,l),
(193,370,o),
(231,413,o),
(297,413,cs),
(349,413,o),
(393,388,o),
(393,334,cs),
(393,182,ls),
(393,128,o),
(349,103,o),
(297,103,cs)
);
}
);
userData = {
com.typemytype.robofont.pointLabels = {
};
};
width = 600;
}
);
unicode = 273;
},
{
glyphname = eth;
layers = (
{
layerId = m001;
shapes = (
{
closed = 1;
nodes = (
(311,670,l),
(278,699,o),
(243,722,o),
(214,740,c),
(178,740,l),
(221,714,o),
(260,688,o),
(296,658,c),
(194,586,l),
(204,572,l),
(309,647,l),
(368,594,o),
(418,528,o),
(464,425,c),
(461,423,l),
(424,477,o),
(369,508,o),
(300,508,cs),
(175,508,o),
(90,413,o),
(90,248,cs),
(90,83,o),
(175,-12,o),
(300,-12,cs),
(425,-12,o),
(510,83,o),
(510,248,cs),
(510,440,o),
(419,573,o),
(324,658,c),
(434,738,l),
(424,752,l)
);
},
{
closed = 1;
nodes = (
(191,7,o),
(113,91,o),
(113,226,cs),
(113,270,ls),
(113,405,o),
(191,489,o),
(300,489,cs),
(409,489,o),
(487,405,o),
(487,270,cs),
(487,226,ls),
(487,91,o),
(409,7,o),
(300,7,cs)
);
}
);
userData = {
com.typemytype.robofont.pointLabels = {
};
};
width = 600;
},
{
layerId = m002;
shapes = (
{
closed = 1;
nodes = (
(327,688,l),
(301,709,o),
(275,726,o),
(253,740,c),
(127,740,l),
(178,712,o),
(226,682,o),
(270,647,c),
(178,583,l),
(216,538,l),
(315,608,l),
(371,555,o),
(416,492,o),
(449,410,c),
(445,408,l),
(413,461,o),
(361,504,o),
(280,504,cs),
(155,504,o),
(66,403,o),
(66,246,cs),
(66,89,o),
(154,-12,o),
(303,-12,cs),
(445,-12,o),
(534,80,o),
(534,266,cs),
(534,440,o),
(456,565,o),
(372,647,c),
(459,708,l),
(421,753,l)
);
},
{
closed = 1;
nodes = (
(211,57,o),
(151,107,o),
(151,211,cs),
(151,281,ls),
(151,385,o),
(211,435,o),
(300,435,cs),
(389,435,o),
(449,385,o),
(449,281,cs),
(449,211,ls),
(449,107,o),
(389,57,o),
(300,57,cs)
);
}
);
userData = {
com.typemytype.robofont.pointLabels = {
};
};
width = 600;
},
{
layerId = m003;
shapes = (
{
closed = 1;
nodes = (
(348,703,l),
(331,716,o),
(314,729,o),
(297,740,c),
(71,740,l),
(130,709,o),
(185,674,o),
(233,636,c),
(151,588,l),
(202,528,l),
(294,582,l),
(350,528,o),
(390,469,o),
(408,408,c),
(399,404,l),
(367,463,o),
(317,500,o),
(242,500,cs),
(120,500,o),
(40,402,o),
(40,253,cs),
(40,89,o),
(138,-12,o),
(303,-12,cs),
(457,-12,o),
(561,75,o),
(561,278,cs),
(561,440,o),
(495,560,o),
(408,649,c),
(483,693,l),
(433,753,l)
);
},
{
closed = 1;
nodes = (
(236,98,o),
(193,141,o),
(193,217,cs),
(193,271,ls),
(193,346,o),
(233,388,o),
(301,388,cs),
(366,388,o),
(408,349,o),
(408,273,cs),
(408,217,ls),
(408,141,o),
(368,98,o),
(302,98,cs)
);
}
);
userData = {
com.typemytype.robofont.pointLabels = {
};
};
width = 600;
}
);
unicode = 240;
},
{
glyphname = e;
layers = (
{
anchors = (
{
name = bottom;
pos = (306,0);
},
{
name = bottomright;
pos = (384,0);
},
{
name = top;
pos = (302,516);
}
);
layerId = m001;
shapes = (
{
closed = 1;
nodes = (
(406,-12,o),
(473,40,o),
(503,124,c),
(485,131,l),
(454,48,o),
(392,7,o),
(306,7,cs),
(183,7,o),
(115,94,o),
(115,234,cs),
(115,260,l),
(511,260,l),
(511,267,ls),
(511,426,o),
(439,528,o),
(302,528,cs),
(170,528,o),
(92,437,o),
(92,258,cs),
(92,79,o),
(171,-12,o),
(306,-12,cs)
);
},
{
closed = 1;
nodes = (
(422,509,o),
(489,422,o),
(489,282,cs),
(489,278,l),
(115,278,l),
(115,282,ls),
(115,422,o),
(182,509,o),
(302,509,cs)
);
}
);
userData = {
com.typemytype.robofont.pointLabels = {
};
};
width = 600;
},
{
anchors = (
{
name = bottom;
pos = (309,0);
},
{
name = bottomright;
pos = (391,0);
},
{
name = top;
pos = (302,516);
}
);
layerId = m002;
shapes = (
{
closed = 1;
nodes = (
(411,-12,o),
(485,38,o),
(516,107,c),
(457,147,l),
(430,91,o),
(378,57,o),
(309,57,cs),
(212,57,o),
(151,123,o),
(151,214,cs),
(151,238,l),
(533,238,l),
(533,276,ls),
(533,422,o),
(443,528,o),
(304,528,cs),
(164,528,o),
(67,422,o),
(67,257,cs),
(67,94,o),
(161,-12,o),
(309,-12,cs)
);
},
{
closed = 1;
nodes = (
(389,462,o),
(447,400,o),
(447,309,cs),
(447,298,l),
(151,298,l),
(151,305,ls),
(151,395,o),
(216,462,o),
(304,462,cs)
);
}
);
userData = {
com.typemytype.robofont.pointLabels = {
};
};
width = 600;
},
{
anchors = (
{
name = bottom;
pos = (306,0);
},
{
name = bottomright;
pos = (409,0);
},
{
name = top;
pos = (301,516);
}
);
layerId = m003;
shapes = (
{
closed = 1;
nodes = (
(425,-12,o),
(495,30,o),
(535,79,c),
(455,166,l),
(423,128,o),
(380,102,o),
(319,102,cs),
(240,102,o),
(197,147,o),
(197,213,cs),
(197,222,l),
(550,222,l),
(550,266,ls),
(550,427,o),
(455,528,o),
(301,528,cs),
(146,528,o),
(50,425,o),
(50,256,cs),
(50,91,o),
(141,-12,o),
(314,-12,cs)
);
},
{
closed = 1;
nodes = (
(366,422,o),
(405,380,o),
(405,313,cs),
(405,305,l),
(197,305,l),
(197,313,ls),
(197,379,o),
(238,422,o),
(302,422,cs)
);
}
);
userData = {
com.typemytype.robofont.pointLabels = {
};
};
width = 600;
}
);
unicode = 101;
},
{
glyphname = eogonek;
layers = (
{
anchors = (
{
name = bottom;
pos = (306,0);
},
{
name = top;
pos = (302,516);
}
);
layerId = m001;
shapes = (
{
closed = 1;
nodes = (
(367,-202,o),
(393,-188,o),
(406,-170,c),
(392,-159,l),
(382,-171,o),
(364,-184,o),
(331,-184,cs),
(297,-184,o),
(273,-170,o),
(273,-132,cs),
(273,-82,o),
(326,-39,o),
(400,4,cs),
(461,39,o),
(485,76,o),
(503,124,c),
(485,131,l),
(454,48,o),
(392,7,o),
(306,7,cs),
(183,7,o),
(115,94,o),
(115,234,cs),
(115,260,l),
(511,260,l),
(511,267,ls),
(511,426,o),
(439,528,o),
(302,528,cs),
(170,528,o),
(92,437,o),
(92,258,cs),
(92,79,o),
(171,-12,o),
(306,-12,cs),
(328,-12,o),
(347,-8,o),
(365,-2,c),
(366,-4,l),
(276,-54,o),
(252,-96,o),
(252,-134,cs),
(252,-179,o),
(286,-202,o),
(331,-202,cs)
);
},
{
closed = 1;
nodes = (
(115,282,ls),
(115,422,o),
(182,509,o),
(302,509,cs),
(422,509,o),
(489,422,o),
(489,282,cs),
(489,278,l),
(115,278,l)
);
}
);
userData = {
com.typemytype.robofont.pointLabels = {
};
};
width = 600;
},
{
anchors = (
{
name = bottom;
pos = (309,0);
},
{
name = top;
pos = (302,516);
}
);
layerId = m002;
shapes = (
{
closed = 1;
nodes = (
(411,-207,o),
(441,-188,o),
(454,-166,c),
(414,-125,l),
(401,-141,o),
(384,-151,o),
(362,-151,cs),
(341,-151,o),
(320,-142,o),
(320,-114,cs),
(320,-85,o),
(343,-63,o),
(405,-12,cs),
(447,22,o),
(497,65,o),
(516,107,c),
(457,147,l),
(430,91,o),
(378,57,o),
(309,57,cs),
(212,57,o),
(151,123,o),
(151,214,cs),
(151,238,l),
(533,238,l),
(533,276,ls),
(533,422,o),
(443,528,o),
(304,528,cs),
(164,528,o),
(67,421,o),
(67,258,cs),
(67,94,o),
(164,-12,o),
(302,-12,cs),
(329,-12,o),
(350,-8,o),
(363,-3,c),
(365,-6,l),
(291,-41,o),
(252,-80,o),
(252,-127,cs),
(252,-180,o),
(300,-207,o),
(361,-207,cs)
);
},
{
closed = 1;
nodes = (
(151,305,ls),
(151,395,o),
(216,462,o),
(304,462,cs),
(389,462,o),
(447,400,o),
(447,309,cs),
(447,298,l),
(151,298,l)
);
}
);
userData = {
com.typemytype.robofont.pointLabels = {
};
};
width = 600;
},
{
anchors = (
{
name = bottom;
pos = (306,0);
},
{
name = top;
pos = (301,516);
}
);
layerId = m003;
shapes = (
{
closed = 1;
nodes = (
(426,-212,o),
(468,-193,o),
(485,-161,c),
(432,-110,l),
(418,-126,o),
(401,-138,o),
(377,-138,cs),
(357,-138,o),
(339,-130,o),
(339,-105,cs),
(339,-77,o),
(361,-62,o),
(432,-7,cs),
(488,36,o),
(511,53,o),
(535,79,c),
(455,166,l),
(423,128,o),
(380,102,o),
(319,102,cs),
(240,102,o),
(197,147,o),
(197,213,cs),
(197,222,l),
(550,222,l),
(550,266,ls),
(550,427,o),
(455,528,o),
(301,528,cs),
(146,528,o),
(50,425,o),
(50,257,cs),
(50,84,o),
(151,-12,o),
(305,-12,cs),
(327,-12,o),
(345,-10,o),
(355,-7,c),
(357,-12,l),
(284,-43,o),
(239,-74,o),
(239,-128,cs),
(239,-191,o),
(298,-212,o),
(363,-212,cs)
);
},
{
closed = 1;
nodes = (
(197,313,ls),
(197,379,o),
(238,422,o),
(302,422,cs),
(366,422,o),
(405,380,o),
(405,313,cs),
(405,305,l),
(197,305,l)
);
}
);
userData = {
com.typemytype.robofont.pointLabels = {
};
};
width = 600;
}
);
unicode = 281;
},
{
glyphname = schwa;
layers = (
{
layerId = m001;
shapes = (
{
closed = 1;
nodes = (
(89,249,ls),
(89,90,o),
(161,-12,o),
(298,-12,cs),
(430,-12,o),
(508,79,o),
(508,258,cs),
(508,437,o),
(429,528,o),
(294,528,cs),
(194,528,o),
(127,476,o),
(97,392,c),
(115,385,l),
(146,468,o),
(208,509,o),
(294,509,cs),
(417,509,o),
(485,422,o),
(485,282,cs),
(485,256,l),
(89,256,l)
);
},
{
closed = 1;
nodes = (
(485,238,l),
(485,234,ls),
(485,94,o),
(418,7,o),
(298,7,cs),
(178,7,o),
(111,94,o),
(111,234,cs),
(111,238,l)
);
}
);
userData = {
com.typemytype.robofont.pointLabels = {
};
};
width = 600;
},
{
layerId = m002;
shapes = (
{
closed = 1;
nodes = (
(67,240,ls),
(67,94,o),
(157,-12,o),
(296,-12,cs),
(436,-12,o),
(533,94,o),
(533,259,cs),
(533,422,o),
(439,528,o),
(291,528,cs),
(189,528,o),
(115,478,o),
(84,409,c),
(143,369,l),
(170,425,o),
(222,459,o),
(291,459,cs),
(388,459,o),
(449,393,o),
(449,302,cs),
(449,278,l),
(67,278,l)
);
},
{
closed = 1;
nodes = (
(449,218,l),
(449,211,ls),
(449,121,o),
(384,54,o),
(296,54,cs),
(211,54,o),
(153,116,o),
(153,207,cs),
(153,218,l)
);
}
);
userData = {
com.typemytype.robofont.pointLabels = {
};
};
width = 600;
},
{
layerId = m003;
shapes = (
{
closed = 1;
nodes = (
(50,250,ls),
(50,89,o),
(145,-12,o),
(299,-12,cs),
(454,-12,o),
(550,91,o),
(550,260,cs),
(550,425,o),
(459,528,o),
(286,528,cs),
(175,528,o),
(105,486,o),
(65,437,c),
(145,350,l),
(177,388,o),
(220,414,o),
(281,414,cs),
(360,414,o),
(403,369,o),
(403,303,cs),
(403,294,l),
(50,294,l)
);
},
{
closed = 1;
nodes = (
(403,211,l),
(403,203,ls),
(403,137,o),
(362,94,o),
(298,94,cs),
(234,94,o),
(195,136,o),
(195,203,cs),
(195,211,l)
);
}
);
userData = {
com.typemytype.robofont.pointLabels = {
};
};
width = 600;
}
);
unicode = 601;
},
{
glyphname = f;
layers = (
{
anchors = (
{
name = bottom;
pos = (299,0);
}
);
layerId = m001;
shapes = (
{
closed = 1;
nodes = (
(510,0,l),
(510,19,l),
(307,19,l),
(307,497,l),
(533,497,l),
(533,516,l),
(307,516,l),
(307,721,l),
(533,721,l),
(533,740,l),
(316,740,ls),
(296,740,o),
(287,731,o),
(287,711,cs),
(287,516,l),
(84,516,l),
(84,497,l),
(287,497,l),
(287,19,l),
(94,19,l),
(94,0,l)
);
}
);
userData = {
com.typemytype.robofont.pointLabels = {
};
};
width = 600;
},
{
anchors = (
{
name = bottom;
pos = (308,0);
}
);
layerId = m002;
shapes = (
{
closed = 1;
nodes = (
(521,0,l),
(521,68,l),
(337,68,l),
(337,448,l),
(544,448,l),
(544,516,l),
(337,516,l),
(337,672,l),
(544,672,l),
(544,740,l),
(371,740,ls),
(293,740,o),
(257,691,o),
(257,622,cs),
(257,516,l),
(73,516,l),
(73,448,l),
(257,448,l),
(257,68,l),
(83,68,l),
(83,0,l)
);
}
);
userData = {
com.typemytype.robofont.pointLabels = {
};
};
width = 600;
},
{
anchors = (
{
name = bottom;
pos = (297,0);
}
);
layerId = m003;
shapes = (
{
closed = 1;
nodes = (
(533,0,l),
(533,115,l),
(371,115,l),
(371,401,l),
(556,401,l),
(556,516,l),
(371,516,l),
(371,625,l),
(556,625,l),
(556,740,l),
(381,740,ls),
(273,740,o),
(223,678,o),
(223,591,cs),
(223,516,l),
(61,516,l),
(61,401,l),
(223,401,l),
(223,115,l),
(71,115,l),
(71,0,l)
);
}
);
userData = {
com.typemytype.robofont.pointLabels = {
};
};
width = 600;
}
);
unicode = 102;
},
{
glyphname = g;
layers = (
{
anchors = (
{
name = top;
pos = (305,516);
}
);
layerId = m001;
shapes = (
{
closed = 1;
nodes = (
(543,9,o),
(495,55,o),
(380,55,cs),
(245,55,ls),
(175,55,o),
(158,83,o),
(158,111,cs),
(158,149,o),
(189,175,o),
(249,191,c),
(269,187,o),
(285,184,o),
(305,184,cs),
(408,184,o),
(478,252,o),
(478,356,cs),
(478,406,o),
(462,448,o),
(435,477,c),
(435,542,l),
(556,542,l),
(556,561,l),
(445,561,ls),
(425,561,o),
(416,553,o),
(416,534,cs),
(416,494,l),
(387,516,o),
(350,528,o),
(305,528,cs),
(198,528,o),
(132,460,o),
(132,356,cs),
(132,279,o),
(166,226,o),
(223,201,c),
(223,198,l),
(179,185,o),
(138,157,o),
(138,110,cs),
(138,78,o),
(154,54,o),
(191,43,c),
(191,40,l),
(128,20,o),
(90,-20,o),
(90,-81,cs),
(90,-160,o),
(154,-212,o),
(304,-212,cs),
(456,-212,o),
(543,-165,o),
(543,-63,cs)
);
},
{
closed = 1;
nodes = (
(521,-153,o),
(443,-193,o),
(328,-193,cs),
(279,-193,ls),
(178,-193,o),
(114,-152,o),
(114,-82,cs),
(114,-17,o),
(159,19,o),
(222,35,c),
(377,35,ls),
(485,35,o),
(521,-2,o),
(521,-64,cs)
);
},
{
closed = 1;
nodes = (
(212,203,o),
(156,261,o),
(156,337,cs),
(156,375,ls),
(156,451,o),
(210,509,o),
(305,509,cs),
(400,509,o),
(454,451,o),
(454,375,cs),
(454,337,ls),
(454,261,o),
(400,203,o),
(305,203,cs)
);
}
);
userData = {
com.typemytype.robofont.pointLabels = {
};
};
width = 600;
},
{
anchors = (
{
name = top;
pos = (297,516);
}
);
layerId = m002;
shapes = (
{
closed = 1;
nodes = (
(561,25,o),
(504,79,o),
(371,79,cs),
(257,79,ls),
(208,79,o),
(174,86,o),
(174,117,cs),
(174,152,o),
(217,170,o),
(248,176,c),
(264,173,o),
(280,172,o),
(297,172,cs),
(418,172,o),
(498,245,o),
(498,350,cs),
(498,404,o),
(477,449,o),
(440,481,c),
(440,516,l),
(556,516,l),
(556,586,l),
(461,586,ls),
(416,586,o),
(399,556,o),
(399,516,cs),
(399,507,l),
(370,521,o),
(336,528,o),
(297,528,cs),
(176,528,o),
(97,455,o),
(97,350,cs),
(97,277,o),
(135,220,o),
(198,192,c),
(198,188,l),
(145,175,o),
(105,151,o),
(105,98,cs),
(105,63,o),
(122,41,o),
(151,27,c),
(151,15,l),
(98,1,o),
(67,-29,o),
(67,-84,cs),
(67,-166,o),
(135,-212,o),
(301,-212,cs),
(473,-212,o),
(561,-163,o),
(561,-59,cs)
);
},
{
closed = 1;
nodes = (
(486,-119,o),
(431,-148,o),
(338,-148,cs),
(260,-148,ls),
(176,-148,o),
(143,-110,o),
(143,-65,cs),
(143,-32,o),
(161,-9,o),
(195,5,c),
(374,5,ls),
(457,5,o),
(486,-22,o),
(486,-63,cs)
);
},
{
closed = 1;
nodes = (
(218,234,o),
(181,275,o),
(181,336,cs),
(181,365,ls),
(181,426,o),
(218,466,o),
(297,466,cs),
(377,466,o),
(414,426,o),
(414,365,cs),
(414,336,ls),
(414,275,o),
(377,234,o),
(297,234,cs)
);
}
);
userData = {
com.typemytype.robofont.pointLabels = {
};
};
width = 600;
},
{
anchors = (
{
name = top;
pos = (294,516);
}
);
layerId = m003;
shapes = (
{
closed = 1;
nodes = (
(583,35,o),
(526,97,o),
(378,97,cs),
(260,97,ls),
(219,97,o),
(184,99,o),
(184,132,cs),
(184,150,o),
(195,162,o),
(210,170,c),
(235,163,o),
(264,160,o),
(294,160,cs),
(430,160,o),
(520,225,o),
(520,344,cs),
(520,417,o),
(487,469,o),
(431,498,c),
(431,507,l),
(555,507,l),
(555,615,l),
(464,615,ls),
(415,615,o),
(385,585,o),
(385,545,cs),
(385,517,l),
(358,524,o),
(327,528,o),
(294,528,cs),
(159,528,o),
(70,464,o),
(70,344,cs),
(70,268,o),
(106,214,o),
(167,185,c),
(167,179,l),
(111,166,o),
(74,145,o),
(74,95,cs),
(74,50,o),
(102,27,o),
(146,14,c),
(146,8,l),
(84,-8,o),
(47,-35,o),
(47,-93,cs),
(47,-163,o),
(101,-212,o),
(297,-212,cs),
(493,-212,o),
(583,-161,o),
(583,-52,cs)
);
},
{
closed = 1;
nodes = (
(443,-98,o),
(413,-117,o),
(346,-117,cs),
(259,-117,ls),
(194,-117,o),
(169,-94,o),
(169,-62,cs),
(169,-45,o),
(176,-31,o),
(189,-20,c),
(366,-20,ls),
(426,-20,o),
(443,-36,o),
(443,-63,cs)
);
},
{
closed = 1;
nodes = (
(236,254,o),
(210,287,o),
(210,332,cs),
(210,356,l),
(210,401,o),
(236,434,o),
(294,434,cs),
(353,434,o),
(380,401,o),
(380,356,cs),
(380,332,ls),
(380,287,o),
(353,254,o),
(294,254,cs)
);
}
);
userData = {
com.typemytype.robofont.pointLabels = {
};
};
width = 600;
}
);
unicode = 103;
},
{
glyphname = h;
layers = (
{
anchors = (
{
name = bottom;
pos = (305,0);
},
{
name = top;
pos = (138,698);
}
);
layerId = m001;
shapes = (
{
closed = 1;
nodes = (
(148,0,l),
(148,372,ls),
(148,464,o),
(223,509,o),
(306,509,cs),
(406,509,o),
(462,456,o),
(462,333,cs),
(462,0,l),
(483,0,l),
(483,336,ls),
(483,461,o),
(423,528,o),
(309,528,cs),
(218,528,o),
(169,486,o),
(151,442,c),
(148,442,l),
(148,740,l),
(127,740,l),
(127,0,l)
);
}
);
userData = {
com.typemytype.robofont.pointLabels = {
};
};
width = 600;
},
{
anchors = (
{
name = bottom;
pos = (303,0);
},
{
name = top;
pos = (138,698);
}
);
layerId = m002;
shapes = (
{
closed = 1;
nodes = (
(178,0,l),
(178,358,l),
(178,426,o),
(242,457,o),
(306,457,cs),
(385,457,o),
(428,411,o),
(428,317,cs),
(428,0,l),
(508,0,l),
(508,331,ls),
(508,456,o),
(437,528,o),
(329,528,cs),
(244,528,o),
(204,483,o),
(182,432,c),
(178,432,l),
(178,740,l),
(98,740,l),
(98,0,l)
);
}
);
userData = {
com.typemytype.robofont.pointLabels = {
};
};
width = 600;
},
{
anchors = (
{
name = bottom;
pos = (302,0);
},
{
name = top;
pos = (139,698);
}
);
layerId = m003;
shapes = (
{
closed = 1;
nodes = (
(213,0,l),
(213,339,l),
(213,389,o),
(258,414,o),
(304,414,cs),
(362,414,o),
(391,379,o),
(391,314,cs),
(391,0,l),
(539,0,l),
(539,334,ls),
(539,459,o),
(470,528,o),
(371,528,cs),
(288,528,o),
(242,480,o),
(219,422,c),
(213,422,l),
(213,740,l),
(65,740,l),
(65,0,l)
);
}
);
userData = {
com.typemytype.robofont.pointLabels = {
};
};
width = 600;
}
);
unicode = 104;
},
{
glyphname = hbar;
layers = (
{
layerId = m001;
shapes = (
{
closed = 1;
nodes = (
(148,372,ls),
(148,464,o),
(223,509,o),
(306,509,cs),
(406,509,o),
(462,456,o),
(462,333,cs),
(462,0,l),
(483,0,l),
(483,336,ls),
(483,461,o),
(423,528,o),
(309,528,cs),
(218,528,o),
(169,486,o),
(151,442,c),
(148,442,l),
(148,636,l),
(313,636,l),
(313,654,l),
(148,654,l),
(148,740,l),
(127,740,l),
(127,654,l),
(55,654,l),
(55,636,l),
(127,636,l),
(127,0,l),
(148,0,l)
);
}
);
userData = {
com.typemytype.robofont.pointLabels = {
};
};
width = 600;
},
{
layerId = m002;
shapes = (
{
closed = 1;
nodes = (
(178,358,ls),
(178,426,o),
(242,457,o),
(306,457,cs),
(385,457,o),
(428,411,o),
(428,317,cs),
(428,0,l),
(508,0,l),
(508,331,ls),
(508,456,o),
(437,528,o),
(329,528,cs),
(244,528,o),
(204,483,o),
(182,432,c),
(178,432,l),
(178,608,l),
(331,608,l),
(331,670,l),
(178,670,l),
(178,740,l),
(98,740,l),
(98,670,l),
(33,670,l),
(33,608,l),
(98,608,l),
(98,0,l),
(178,0,l)
);
}
);
userData = {
com.typemytype.robofont.pointLabels = {
};
};
width = 600;
},
{
layerId = m003;
shapes = (
{
closed = 1;
nodes = (
(213,339,ls),
(213,389,o),
(258,414,o),
(304,414,cs),
(362,414,o),
(391,379,o),
(391,314,cs),
(391,0,l),
(539,0,l),
(539,334,ls),
(539,459,o),
(470,528,o),
(371,528,cs),
(288,528,o),
(242,480,o),
(219,422,c),
(213,422,l),
(213,580,l),
(353,580,l),
(353,690,l),
(213,690,l),
(213,740,l),
(65,740,l),
(65,690,l),
(9,690,l),
(9,580,l),
(65,580,l),
(65,0,l),
(213,0,l)
);
}
);
userData = {
com.typemytype.robofont.pointLabels = {
};
};
width = 600;
}
);
unicode = 295;
},
{
glyphname = i;
layers = (
{
anchors = (
{
name = bottom;
pos = (332,0);
},
{
name = bottomright;
pos = (535,0);
}
);
layerId = m001;
shapes = (
{
closed = 1;
nodes = (
(353,691,o),
(361,701,o),
(361,714,cs),
(361,722,ls),
(361,735,o),
(353,745,o),
(332,745,cs),
(311,745,o),
(303,735,o),
(303,722,cs),
(303,714,ls),
(303,701,o),
(311,691,o),
(332,691,cs)
);
},
{
closed = 1;
nodes = (
(535,0,l),
(535,19,l),
(343,19,l),
(343,516,l),
(117,516,l),
(117,497,l),
(322,497,l),
(322,19,l),
(117,19,l),
(117,0,l)
);
}
);
userData = {
com.typemytype.robofont.pointLabels = {
};
};
width = 600;
},
{
anchors = (
{
name = bottom;
pos = (332,0);
},
{
name = bottomright;
pos = (546,0);
}
);
layerId = m002;
shapes = (
{
closed = 1;
nodes = (
(378,630,o),
(395,652,o),
(395,681,cs),
(395,697,ls),
(395,726,o),
(378,748,o),
(332,748,cs),
(286,748,o),
(269,726,o),
(269,697,cs),
(269,681,ls),
(269,652,o),
(286,630,o),
(332,630,cs)
);
},
{
closed = 1;
nodes = (
(546,0,l),
(546,68,l),
(372,68,l),
(372,516,l),
(106,516,l),
(106,448,l),
(292,448,l),
(292,68,l),
(106,68,l),
(106,0,l)
);
}
);
userData = {
com.typemytype.robofont.pointLabels = {
};
};
width = 600;
},
{
anchors = (
{
name = bottom;
pos = (332,0);
},
{
name = bottomright;
pos = (558,0);
}
);
layerId = m003;
shapes = (
{
closed = 1;
nodes = (
(398,582,o),
(421,613,o),
(421,652,cs),
(421,681,ls),
(421,721,o),
(398,751,o),
(332,751,cs),
(266,751,o),
(243,721,o),
(243,681,cs),
(243,652,ls),
(243,613,o),
(266,582,o),
(332,582,cs)
);
},
{
closed = 1;
nodes = (
(558,0,l),
(558,115,l),
(406,115,l),
(406,516,l),
(94,516,l),
(94,401,l),
(258,401,l),
(258,115,l),
(94,115,l),
(94,0,l)
);
}
);
userData = {
com.typemytype.robofont.pointLabels = {
};
};
width = 600;
}
);
unicode = 105;
},
{
glyphname = dotlessi;
layers = (
{
anchors = (
{
name = bottom;
pos = (332,0);
},
{
name = bottomright;
pos = (535,0);
},
{
name = top;
pos = (332,516);
}
);
layerId = m001;
shapes = (
{
closed = 1;
nodes = (
(535,0,l),
(535,19,l),
(343,19,l),
(343,516,l),
(117,516,l),
(117,497,l),
(322,497,l),
(322,19,l),
(117,19,l),
(117,0,l)
);
}
);
userData = {
com.typemytype.robofont.pointLabels = {
};
};
width = 600;
},
{
anchors = (
{
name = bottom;
pos = (332,0);
},
{
name = bottomright;
pos = (546,0);
},
{
name = top;
pos = (332,516);
}
);
layerId = m002;
shapes = (
{
closed = 1;
nodes = (
(546,0,l),
(546,68,l),
(372,68,l),
(372,516,l),
(106,516,l),
(106,448,l),
(292,448,l),
(292,68,l),
(106,68,l),
(106,0,l)
);
}
);
userData = {
com.typemytype.robofont.pointLabels = {
};
};
width = 600;
},
{
anchors = (
{
name = bottom;
pos = (332,0);
},
{
name = bottomright;
pos = (558,0);
},
{
name = top;
pos = (332,516);
}
);
layerId = m003;
shapes = (
{
closed = 1;
nodes = (
(558,0,l),
(558,115,l),
(406,115,l),
(406,516,l),
(94,516,l),
(94,401,l),
(258,401,l),
(258,115,l),
(94,115,l),
(94,0,l)
);
}
);
userData = {
com.typemytype.robofont.pointLabels = {
};
};
width = 600;
}
);
unicode = 305;
},
{
glyphname = iogonek;
layers = (
{
anchors = (
{
name = bottom;
pos = (332,0);
}
);
layerId = m001;
shapes = (
{
closed = 1;
nodes = (
(510,-202,o),
(536,-188,o),
(549,-170,c),
(535,-159,l),
(525,-171,o),
(507,-184,o),
(474,-184,cs),
(440,-184,o),
(416,-170,o),
(416,-133,cs),
(416,-80,o),
(464,-46,o),
(535,0,c),
(535,19,l),
(343,19,l),
(343,516,l),
(117,516,l),
(117,497,l),
(322,497,l),
(322,19,l),
(117,19,l),
(117,0,l),
(507,0,l),
(508,-2,l),
(421,-51,o),
(395,-95,o),
(395,-134,cs),
(395,-179,o),
(429,-202,o),
(474,-202,cs)
);
},
{
closed = 1;
nodes = (
(353,691,o),
(361,701,o),
(361,714,cs),
(361,722,ls),
(361,735,o),
(353,745,o),
(332,745,cs),
(311,745,o),
(303,735,o),
(303,722,cs),
(303,714,ls),
(303,701,o),
(311,691,o),
(332,691,cs)
);
}
);
userData = {
com.typemytype.robofont.pointLabels = {
};
};
width = 600;
},
{
anchors = (
{
name = bottom;
pos = (332,0);
}
);
layerId = m002;
shapes = (
{
closed = 1;
nodes = (
(524,-207,o),
(554,-188,o),
(567,-166,c),
(527,-125,l),
(514,-141,o),
(497,-151,o),
(475,-151,cs),
(454,-151,o),
(433,-142,o),
(433,-114,cs),
(433,-94,o),
(443,-65,o),
(546,0,c),
(546,68,l),
(372,68,l),
(372,516,l),
(106,516,l),
(106,448,l),
(292,448,l),
(292,68,l),
(106,68,l),
(106,0,l),
(479,0,l),
(480,-3,l),
(405,-39,o),
(365,-79,o),
(365,-127,cs),
(365,-180,o),
(413,-207,o),
(474,-207,cs)
);
},
{
closed = 1;
nodes = (
(378,630,o),
(395,652,o),
(395,681,cs),
(395,697,ls),
(395,726,o),
(378,748,o),
(332,748,cs),
(286,748,o),
(269,726,o),
(269,697,cs),
(269,681,ls),
(269,652,o),
(286,630,o),
(332,630,cs)
);
}
);
userData = {
com.typemytype.robofont.pointLabels = {
};
};
width = 600;
},
{
anchors = (
{
name = bottom;
pos = (332,0);
}
);
layerId = m003;
shapes = (
{
closed = 1;
nodes = (
(531,-212,o),
(573,-193,o),
(590,-161,c),
(537,-110,l),
(523,-126,o),
(506,-138,o),
(482,-138,cs),
(462,-138,o),
(444,-130,o),
(444,-105,cs),
(444,-81,o),
(460,-60,o),
(558,0,c),
(558,115,l),
(406,115,l),
(406,516,l),
(94,516,l),
(94,401,l),
(258,401,l),
(258,115,l),
(94,115,l),
(94,0,l),
(462,0,l),
(463,-4,l),
(389,-38,o),
(344,-71,o),
(344,-127,cs),
(344,-191,o),
(402,-212,o),
(468,-212,cs)
);
},
{
closed = 1;
nodes = (
(398,582,o),
(421,613,o),
(421,652,cs),
(421,681,ls),
(421,721,o),
(398,751,o),
(332,751,cs),
(266,751,o),
(243,721,o),
(243,681,cs),
(243,652,ls),
(243,613,o),
(266,582,o),
(332,582,cs)
);
}
);
userData = {
com.typemytype.robofont.pointLabels = {
};
};
width = 600;
}
);
unicode = 303;
},
{
glyphname = ij;
layers = (
{
layerId = m001;
shapes = (
{
closed = 1;
nodes = (
(153,0,l),
(153,516,l),
(132,516,l),
(132,0,l)
);
},
{
closed = 1;
nodes = (
(439,-200,ls),
(459,-200,o),
(468,-191,o),
(468,-171,cs),
(468,516,l),
(447,516,l),
(447,-181,l),
(152,-181,l),
(152,-200,l)
);
},
{
closed = 1;
nodes = (
(161,691,o),
(171,699,o),
(171,714,cs),
(171,722,ls),
(171,737,o),
(161,745,o),
(142,745,cs),
(123,745,o),
(113,737,o),
(113,722,cs),
(113,714,ls),
(113,699,o),
(123,691,o),
(142,691,cs)
);
},
{
closed = 1;
nodes = (
(477,691,o),
(487,699,o),
(487,714,cs),
(487,722,ls),
(487,737,o),
(477,745,o),
(458,745,cs),
(439,745,o),
(429,737,o),
(429,722,cs),
(429,714,ls),
(429,699,o),
(439,691,o),
(458,691,cs)
);
}
);
userData = {
com.typemytype.robofont.pointLabels = {
};
};
width = 600;
},
{
layerId = m002;
shapes = (
{
closed = 1;
nodes = (
(185,0,l),
(185,516,l),
(105,516,l),
(105,0,l)
);
},
{
closed = 1;
nodes = (
(381,-200,ls),
(459,-200,o),
(495,-151,o),
(495,-82,cs),
(495,516,l),
(415,516,l),
(415,-132,l),
(185,-132,l),
(185,-200,l)
);
},
{
closed = 1;
nodes = (
(191,630,o),
(208,652,o),
(208,681,cs),
(208,697,ls),
(208,726,o),
(191,748,o),
(145,748,cs),
(99,748,o),
(82,726,o),
(82,697,cs),
(82,681,ls),
(82,652,o),
(99,630,o),
(145,630,cs)
);
},
{
closed = 1;
nodes = (
(501,630,o),
(518,652,o),
(518,681,cs),
(518,697,ls),
(518,726,o),
(501,748,o),
(455,748,cs),
(409,748,o),
(392,726,o),
(392,697,cs),
(392,681,ls),
(392,652,o),
(409,630,o),
(455,630,cs)
);
}
);
userData = {
com.typemytype.robofont.pointLabels = {
};
};
width = 600;
},
{
layerId = m003;
shapes = (
{
closed = 1;
nodes = (
(222,0,l),
(222,516,l),
(74,516,l),
(74,0,l)
);
},
{
closed = 1;
nodes = (
(368,-200,ls),
(475,-200,o),
(526,-138,o),
(526,-51,cs),
(526,516,l),
(378,516,l),
(378,-85,l),
(222,-85,l),
(222,-200,l)
);
},
{
closed = 1;
nodes = (
(215,582,o),
(238,613,o),
(238,652,cs),
(238,681,ls),
(238,721,o),
(215,751,o),
(148,751,cs),
(82,751,o),
(59,721,o),
(59,681,cs),
(59,652,ls),
(59,613,o),
(82,582,o),
(148,582,cs)
);
},
{
closed = 1;
nodes = (
(518,582,o),
(541,613,o),
(541,652,cs),
(541,681,ls),
(541,721,o),
(518,751,o),
(452,751,cs),
(385,751,o),
(362,721,o),
(362,681,cs),
(362,652,ls),
(362,613,o),
(385,582,o),
(452,582,cs)
);
}
);
userData = {
com.typemytype.robofont.pointLabels = {
};
};
width = 600;
}
);
unicode = 307;
},
{
glyphname = j;
layers = (
{
layerId = m001;
shapes = (
{
closed = 1;
nodes = (
(398,-200,ls),
(418,-200,o),
(427,-191,o),
(427,-171,cs),
(427,516,l),
(96,516,l),
(96,497,l),
(406,497,l),
(406,-181,l),
(111,-181,l),
(111,-200,l)
);
},
{
closed = 1;
nodes = (
(438,691,o),
(446,701,o),
(446,714,cs),
(446,722,ls),
(446,735,o),
(438,745,o),
(417,745,cs),
(396,745,o),
(388,735,o),
(388,722,cs),
(388,714,ls),
(388,701,o),
(396,691,o),
(417,691,cs)
);
}
);
userData = {
com.typemytype.robofont.pointLabels = {
};
};
width = 600;
},
{
layerId = m002;
shapes = (
{
closed = 1;
nodes = (
(318,-200,ls),
(396,-200,o),
(432,-151,o),
(432,-82,cs),
(432,516,l),
(93,516,l),
(93,448,l),
(352,448,l),
(352,-132,l),
(102,-132,l),
(102,-200,l)
);
},
{
closed = 1;
nodes = (
(438,630,o),
(455,652,o),
(455,681,cs),
(455,697,ls),
(455,726,o),
(438,748,o),
(392,748,cs),
(346,748,o),
(329,726,o),
(329,697,cs),
(329,681,ls),
(329,652,o),
(346,630,o),
(392,630,cs)
);
}
);
userData = {
com.typemytype.robofont.pointLabels = {
};
};
width = 600;
},
{
layerId = m003;
shapes = (
{
closed = 1;
nodes = (
(281,-200,ls),
(387,-200,o),
(438,-138,o),
(438,-51,cs),
(438,516,l),
(90,516,l),
(90,401,l),
(290,401,l),
(290,-85,l),
(92,-85,l),
(92,-200,l)
);
},
{
closed = 1;
nodes = (
(429,582,o),
(453,613,o),
(453,652,cs),
(453,681,ls),
(453,721,o),
(429,751,o),
(364,751,cs),
(298,751,o),
(275,721,o),
(275,681,cs),
(275,652,ls),
(275,613,o),
(298,582,o),
(364,582,cs)
);
}
);
userData = {
com.typemytype.robofont.pointLabels = {
};
};
width = 600;
}
);
unicode = 106;
},
{
glyphname = dotlessj;
layers = (
{
anchors = (
{
name = top;
pos = (417,516);
}
);
layerId = m001;
shapes = (
{
closed = 1;
nodes = (
(398,-200,ls),
(418,-200,o),
(427,-191,o),
(427,-171,cs),
(427,516,l),
(96,516,l),
(96,497,l),
(406,497,l),
(406,-181,l),
(111,-181,l),
(111,-200,l)
);
}
);
userData = {
com.typemytype.robofont.pointLabels = {
};
};
width = 600;
},
{
anchors = (
{
name = top;
pos = (392,516);
}
);
layerId = m002;
shapes = (
{
closed = 1;
nodes = (
(318,-200,ls),
(396,-200,o),
(432,-151,o),
(432,-82,cs),
(432,516,l),
(93,516,l),
(93,448,l),
(352,448,l),
(352,-132,l),
(102,-132,l),
(102,-200,l)
);
}
);
userData = {
com.typemytype.robofont.pointLabels = {
};
};
width = 600;
},
{
anchors = (
{
name = top;
pos = (364,516);
}
);
layerId = m003;
shapes = (
{
closed = 1;
nodes = (
(281,-200,ls),
(387,-200,o),
(438,-138,o),
(438,-51,cs),
(438,516,l),
(90,516,l),
(90,401,l),
(290,401,l),
(290,-85,l),
(92,-85,l),
(92,-200,l)
);
}
);
userData = {
com.typemytype.robofont.pointLabels = {
};
};
width = 600;
}
);
unicode = 567;
},
{
glyphname = k;
layers = (
{
anchors = (
{
name = bottom;
pos = (337,0);
}
);
layerId = m001;
shapes = (
{
closed = 1;
nodes = (
(160,0,l),
(160,192,l),
(285,300,l),
(535,0,l),
(561,0,l),
(301,314,l),
(533,516,l),
(505,516,l),
(281,322,l),
(163,219,l),
(160,219,l),
(160,740,l),
(139,740,l),
(139,0,l)
);
}
);
userData = {
com.typemytype.robofont.pointLabels = {
};
};
width = 600;
},
{
anchors = (
{
name = bottom;
pos = (323,0);
}
);
layerId = m002;
shapes = (
{
closed = 1;
nodes = (
(185,0,l),
(185,187,l),
(274,268,l),
(475,0,l),
(574,0,l),
(335,314,l),
(549,516,l),
(451,516,l),
(279,358,l),
(189,273,l),
(185,273,l),
(185,740,l),
(105,740,l),
(105,0,l)
);
}
);
userData = {
com.typemytype.robofont.pointLabels = {
};
};
width = 600;
},
{
anchors = (
{
name = bottom;
pos = (308,0);
}
);
layerId = m003;
shapes = (
{
closed = 1;
nodes = (
(213,0,l),
(213,179,l),
(262,228,l),
(412,0,l),
(588,0,l),
(367,312,l),
(567,516,l),
(397,516,l),
(289,401,l),
(220,320,l),
(213,320,l),
(213,740,l),
(65,740,l),
(65,0,l)
);
}
);
userData = {
com.typemytype.robofont.pointLabels = {
};
};
width = 600;
}
);
unicode = 107;
},
{
glyphname = kgreenlandic;
layers = (
{
anchors = (
{
name = bottom;
pos = (337,0);
}
);
layerId = m001;
shapes = (
{
closed = 1;
nodes = (
(561,0,l),
(299,306,l),
(533,516,l),
(505,516,l),
(284,317,l),
(163,209,l),
(160,209,l),
(160,516,l),
(139,516,l),
(139,0,l),
(160,0,l),
(160,182,l),
(284,292,l),
(535,0,l)
);
}
);
userData = {
com.typemytype.robofont.pointLabels = {
};
};
width = 600;
},
{
anchors = (
{
name = bottom;
pos = (323,0);
}
);
layerId = m002;
shapes = (
{
closed = 1;
nodes = (
(578,0,l),
(339,306,l),
(553,516,l),
(455,516,l),
(285,348,l),
(190,255,l),
(186,255,l),
(186,516,l),
(106,516,l),
(106,0,l),
(186,0,l),
(186,165,l),
(283,253,l),
(479,0,l)
);
}
);
userData = {
com.typemytype.robofont.pointLabels = {
};
};
width = 600;
},
{
anchors = (
{
name = bottom;
pos = (308,0);
}
);
layerId = m003;
shapes = (
{
closed = 1;
nodes = (
(588,0,l),
(367,312,l),
(567,516,l),
(397,516,l),
(289,401,l),
(220,308,l),
(213,308,l),
(213,516,l),
(65,516,l),
(65,0,l),
(213,0,l),
(213,179,l),
(262,228,l),
(412,0,l)
);
}
);
userData = {
com.typemytype.robofont.pointLabels = {
};
};
width = 600;
}
);
unicode = 312;
},
{
glyphname = l;
layers = (
{
anchors = (
{
name = bottom;
pos = (300,0);
},
{
name = top;
pos = (300,698);
},
{
name = topright;
pos = (416,740);
}
);
layerId = m001;
shapes = (
{
closed = 1;
nodes = (
(510,0,l),
(510,19,l),
(311,19,l),
(311,740,l),
(91,740,l),
(91,721,l),
(290,721,l),
(290,19,l),
(91,19,l),
(91,0,l)
);
}
);
userData = {
com.typemytype.robofont.pointLabels = {
};
};
width = 600;
},
{
anchors = (
{
name = bottom;
pos = (300,0);
},
{
name = top;
pos = (300,698);
},
{
name = topright;
pos = (426,740);
}
);
layerId = m002;
shapes = (
{
closed = 1;
nodes = (
(520,0,l),
(520,68,l),
(340,68,l),
(340,740,l),
(80,740,l),
(80,672,l),
(260,672,l),
(260,68,l),
(80,68,l),
(80,0,l)
);
}
);
userData = {
com.typemytype.robofont.pointLabels = {
};
};
width = 600;
},
{
anchors = (
{
name = bottom;
pos = (300,0);
},
{
name = top;
pos = (300,698);
},
{
name = topright;
pos = (437,740);
}
);
layerId = m003;
shapes = (
{
closed = 1;
nodes = (
(532,0,l),
(532,115,l),
(374,115,l),
(374,740,l),
(68,740,l),
(68,625,l),
(226,625,l),
(226,115,l),
(68,115,l),
(68,0,l)
);
}
);
userData = {
com.typemytype.robofont.pointLabels = {
};
};
width = 600;
}
);
unicode = 108;
},
{
glyphname = lslash;
layers = (
{
layerId = m001;
shapes = (
{
closed = 1;
nodes = (
(510,0,l),
(510,19,l),
(311,19,l),
(311,328,l),
(484,385,l),
(484,405,l),
(311,348,l),
(311,740,l),
(91,740,l),
(91,721,l),
(290,721,l),
(290,342,l),
(116,286,l),
(116,266,l),
(290,322,l),
(290,19,l),
(91,19,l),
(91,0,l)
);
}
);
userData = {
com.typemytype.robofont.pointLabels = {
};
};
width = 600;
},
{
layerId = m002;
shapes = (
{
closed = 1;
nodes = (
(520,0,l),
(520,68,l),
(340,68,l),
(340,311,l),
(493,361,l),
(493,428,l),
(340,378,l),
(340,740,l),
(80,740,l),
(80,672,l),
(260,672,l),
(260,355,l),
(107,305,l),
(107,238,l),
(260,288,l),
(260,68,l),
(80,68,l),
(80,0,l)
);
}
);
userData = {
com.typemytype.robofont.pointLabels = {
};
};
width = 600;
},
{
layerId = m003;
shapes = (
{
closed = 1;
nodes = (
(532,0,l),
(532,115,l),
(374,115,l),
(374,301,l),
(503,343,l),
(503,452,l),
(374,410,l),
(374,740,l),
(68,740,l),
(68,625,l),
(226,625,l),
(226,365,l),
(97,323,l),
(97,214,l),
(226,256,l),
(226,115,l),
(68,115,l),
(68,0,l)
);
}
);
userData = {
com.typemytype.robofont.pointLabels = {
};
};
width = 600;
}
);
unicode = 322;
},
{
glyphname = m;
layers = (
{
anchors = (
{
name = bottom;
pos = (300,0);
},
{
name = top;
pos = (300,516);
}
);
layerId = m001;
shapes = (
{
closed = 1;
nodes = (
(94,384,ls),
(94,468,o),
(145,509,o),
(201,509,cs),
(258,509,o),
(290,474,o),
(290,397,cs),
(290,0,l),
(311,0,l),
(311,384,ls),
(311,468,o),
(361,509,o),
(418,509,cs),
(475,509,o),
(507,474,o),
(507,397,cs),
(507,0,l),
(528,0,l),
(528,400,ls),
(528,483,o),
(491,528,o),
(420,528,cs),
(358,528,o),
(323,492,o),
(308,446,c),
(306,446,l),
(296,499,o),
(260,528,o),
(203,528,cs),
(145,528,o),
(112,497,o),
(97,455,c),
(94,455,l),
(94,516,l),
(73,516,l),
(73,0,l),
(94,0,l)
);
}
);
userData = {
com.typemytype.robofont.pointLabels = {
};
};
width = 600;
},
{
anchors = (
{
name = bottom;
pos = (300,0);
},
{
name = top;
pos = (300,516);
}
);
layerId = m002;
shapes = (
{
closed = 1;
nodes = (
(128,379,l),
(128,434,o),
(158,462,o),
(201,462,cs),
(248,462,o),
(263,433,o),
(263,345,cs),
(263,0,l),
(337,0,l),
(337,379,l),
(337,434,o),
(367,462,o),
(409,462,cs),
(457,462,o),
(472,433,o),
(472,345,cs),
(472,0,l),
(546,0,l),
(546,358,ls),
(546,467,o),
(524,528,o),
(440,528,cs),
(379,528,o),
(347,494,o),
(328,447,c),
(325,447,l),
(319,495,o),
(290,528,o),
(231,528,cs),
(174,528,o),
(148,496,o),
(132,456,c),
(128,456,l),
(128,516,l),
(54,516,l),
(54,0,l),
(128,0,l)
);
}
);
userData = {
com.typemytype.robofont.pointLabels = {
};
};
width = 600;
},
{
anchors = (
{
name = bottom;
pos = (300,0);
},
{
name = top;
pos = (300,516);
}
);
layerId = m003;
shapes = (
{
closed = 1;
nodes = (
(149,368,l),
(149,403,o),
(170,419,o),
(197,419,cs),
(223,419,o),
(240,402,o),
(240,354,cs),
(240,0,l),
(360,0,l),
(360,368,l),
(360,403,o),
(381,419,o),
(406,419,cs),
(433,419,o),
(451,402,o),
(451,354,cs),
(451,0,l),
(570,0,l),
(570,369,ls),
(570,475,o),
(534,528,o),
(462,528,cs),
(398,528,o),
(369,487,o),
(352,440,c),
(346,440,l),
(335,497,o),
(303,528,o),
(254,528,cs),
(199,528,o),
(172,488,o),
(156,440,c),
(149,440,l),
(149,516,l),
(30,516,l),
(30,0,l),
(149,0,l)
);
}
);
userData = {
com.typemytype.robofont.pointLabels = {
};
};
width = 600;
}
);
unicode = 109;
},
{
glyphname = n;
layers = (
{
anchors = (
{
name = bottom;
pos = (305,0);
},
{
name = top;
pos = (305,516);
}
);
layerId = m001;
shapes = (
{
closed = 1;
nodes = (
(148,372,ls),
(148,464,o),
(223,509,o),
(306,509,cs),
(406,509,o),
(462,456,o),
(462,333,cs),
(462,0,l),
(483,0,l),
(483,336,ls),
(483,461,o),
(423,528,o),
(309,528,cs),
(218,528,o),
(169,486,o),
(151,442,c),
(148,442,l),
(148,516,l),
(127,516,l),
(127,0,l),
(148,0,l)
);
}
);
userData = {
com.typemytype.robofont.pointLabels = {
};
};
width = 600;
},
{
anchors = (
{
name = bottom;
pos = (303,0);
},
{
name = top;
pos = (303,516);
}
);
layerId = m002;
shapes = (
{
closed = 1;
nodes = (
(178,358,l),
(178,426,o),
(242,457,o),
(306,457,cs),
(385,457,o),
(428,411,o),
(428,317,cs),
(428,0,l),
(508,0,l),
(508,331,ls),
(508,456,o),
(437,528,o),
(329,528,cs),
(244,528,o),
(204,483,o),
(182,432,c),
(178,432,l),
(178,516,l),
(98,516,l),
(98,0,l),
(178,0,l)
);
}
);
userData = {
com.typemytype.robofont.pointLabels = {
};
};
width = 600;
},
{
anchors = (
{
name = bottom;
pos = (302,0);
},
{
name = top;
pos = (302,516);
}
);
layerId = m003;
shapes = (
{
closed = 1;
nodes = (
(213,339,l),
(213,389,o),
(258,414,o),
(304,414,cs),
(362,414,o),
(391,379,o),
(391,314,cs),
(391,0,l),
(539,0,l),
(539,334,ls),
(539,459,o),
(470,528,o),
(371,528,cs),
(288,528,o),
(242,480,o),
(219,422,c),
(213,422,l),
(213,516,l),
(65,516,l),
(65,0,l),
(213,0,l)
);
}
);
userData = {
com.typemytype.robofont.pointLabels = {
};
};
width = 600;
}
);
unicode = 110;
},
{
glyphname = napostrophe;
layers = (
{
layerId = m001;
shapes = (
{
closed = 1;
nodes = (
(148,0,l),
(148,372,ls),
(148,464,o),
(223,509,o),
(306,509,cs),
(406,509,o),
(462,456,o),
(462,333,cs),
(462,0,l),
(483,0,l),
(483,336,ls),
(483,461,o),
(423,528,o),
(309,528,cs),
(218,528,o),
(169,486,o),
(151,442,c),
(148,442,l),
(148,516,l),
(127,516,l),
(127,0,l)
);
},
{
closed = 1;
nodes = (
(32,555,l),
(82,740,l),
(44,740,l),
(15,555,l)
);
}
);
userData = {
com.typemytype.robofont.pointLabels = {
};
};
width = 600;
},
{
layerId = m002;
shapes = (
{
closed = 1;
nodes = (
(178,0,l),
(178,358,l),
(178,426,o),
(242,457,o),
(306,457,cs),
(385,457,o),
(428,411,o),
(428,317,cs),
(428,0,l),
(508,0,l),
(508,331,ls),
(508,456,o),
(437,528,o),
(329,528,cs),
(244,528,o),
(204,483,o),
(182,432,c),
(178,432,l),
(178,516,l),
(98,516,l),
(98,0,l)
);
},
{
closed = 1;
nodes = (
(53,555,l),
(105,740,l),
(12,740,l),
(0,555,l)
);
}
);
userData = {
com.typemytype.robofont.pointLabels = {
};
};
width = 600;
},
{
layerId = m003;
shapes = (
{
closed = 1;
nodes = (
(251,0,l),
(251,339,l),
(251,393,o),
(291,420,o),
(333,420,cs),
(383,420,o),
(409,382,o),
(409,314,cs),
(409,0,l),
(549,0,l),
(549,342,ls),
(549,467,o),
(489,528,o),
(400,528,cs),
(321,528,o),
(278,480,o),
(257,422,c),
(251,422,l),
(251,516,l),
(111,516,l),
(111,0,l)
);
},
{
closed = 1;
nodes = (
(69,529,l),
(135,740,l),
(6,740,l),
(0,529,l)
);
}
);
userData = {
com.typemytype.robofont.pointLabels = {
};
};
width = 600;
}
);
unicode = 329;
},
{
glyphname = eng;
layers = (
{
anchors = (
{
name = top;
pos = (305,516);
}
);
layerId = m001;
shapes = (
{
closed = 1;
nodes = (
(454,-200,ls),
(474,-200,o),
(483,-191,o),
(483,-171,cs),
(483,336,ls),
(483,461,o),
(423,528,o),
(309,528,cs),
(218,528,o),
(169,486,o),
(151,442,c),
(148,442,l),
(148,516,l),
(127,516,l),
(127,0,l),
(148,0,l),
(148,372,ls),
(148,464,o),
(223,509,o),
(306,509,cs),
(406,509,o),
(462,456,o),
(462,333,cs),
(462,-181,l),
(208,-181,l),
(208,-200,l)
);
}
);
userData = {
com.typemytype.robofont.pointLabels = {
};
};
width = 600;
},
{
anchors = (
{
name = top;
pos = (303,516);
}
);
layerId = m002;
shapes = (
{
closed = 1;
nodes = (
(394,-200,ls),
(472,-200,o),
(508,-151,o),
(508,-82,cs),
(508,331,ls),
(508,456,o),
(437,528,o),
(329,528,cs),
(244,528,o),
(204,483,o),
(182,432,c),
(178,432,l),
(178,516,l),
(98,516,l),
(98,0,l),
(178,0,l),
(178,358,l),
(178,426,o),
(242,457,o),
(306,457,cs),
(385,457,o),
(428,411,o),
(428,317,cs),
(428,-132,l),
(178,-132,l),
(178,-200,l)
);
}
);
userData = {
com.typemytype.robofont.pointLabels = {
};
};
width = 600;
},
{
anchors = (
{
name = top;
pos = (302,516);
}
);
layerId = m003;
shapes = (
{
closed = 1;
nodes = (
(382,-200,ls),
(489,-200,o),
(539,-138,o),
(539,-51,cs),
(539,334,ls),
(539,459,o),
(470,528,o),
(371,528,cs),
(288,528,o),
(242,480,o),
(219,422,c),
(213,422,l),
(213,516,l),
(65,516,l),
(65,0,l),
(213,0,l),
(213,339,l),
(213,389,o),
(258,414,o),
(304,414,cs),
(362,414,o),
(391,379,o),
(391,314,cs),
(391,-85,l),
(213,-85,l),
(213,-200,l)
);
}
);
userData = {
com.typemytype.robofont.pointLabels = {
};
};
width = 600;
}
);
unicode = 331;
},
{
glyphname = o;
layers = (
{
anchors = (
{
name = bottom;
pos = (300,0);
},
{
name = top;
pos = (300,516);
}
);
layerId = m001;
shapes = (
{
closed = 1;
nodes = (
(432,-12,o),
(510,79,o),
(510,258,cs),
(510,437,o),
(432,528,o),
(300,528,cs),
(168,528,o),
(90,437,o),
(90,258,cs),
(90,79,o),
(168,-12,o),
(300,-12,cs)
);
},
{
closed = 1;
nodes = (
(180,7,o),
(113,94,o),
(113,234,cs),
(113,282,ls),
(113,422,o),
(180,509,o),
(300,509,cs),
(420,509,o),
(487,422,o),
(487,282,cs),
(487,234,ls),
(487,94,o),
(420,7,o),
(300,7,cs)
);
}
);
userData = {
com.typemytype.robofont.pointLabels = {
};
};
width = 600;
},
{
anchors = (
{
name = bottom;
pos = (300,0);
},
{
name = top;
pos = (300,516);
}
);
layerId = m002;
shapes = (
{
closed = 1;
nodes = (
(445,-12,o),
(534,94,o),
(534,258,cs),
(534,422,o),
(445,528,o),
(300,528,cs),
(155,528,o),
(66,422,o),
(66,258,cs),
(66,94,o),
(155,-12,o),
(300,-12,cs)
);
},
{
closed = 1;
nodes = (
(211,57,o),
(151,110,o),
(151,221,cs),
(151,295,ls),
(151,406,o),
(211,459,o),
(300,459,cs),
(389,459,o),
(449,406,o),
(449,295,cs),
(449,221,ls),
(449,110,o),
(389,57,o),
(300,57,cs)
);
}
);
userData = {
com.typemytype.robofont.pointLabels = {
};
};
width = 600;
},
{
anchors = (
{
name = bottom;
pos = (300,0);
},
{
name = top;
pos = (300,516);
}
);
layerId = m003;
shapes = (
{
closed = 1;
nodes = (
(461,-12,o),
(559,91,o),
(559,258,cs),
(559,425,o),
(461,528,o),
(300,528,cs),
(139,528,o),
(41,425,o),
(41,258,cs),
(41,91,o),
(139,-12,o),
(300,-12,cs)
);
},
{
closed = 1;
nodes = (
(234,98,o),
(194,141,o),
(194,217,cs),
(194,299,l),
(194,375,o),
(234,418,o),
(300,418,cs),
(366,418,o),
(406,375,o),
(406,299,cs),
(406,217,ls),
(406,141,o),
(366,98,o),
(300,98,cs)
);
}
);
userData = {
com.typemytype.robofont.pointLabels = {
};
};
width = 600;
}
);
unicode = 111;
},
{
glyphname = ohorn;
layers = (
{
anchors = (
{
name = bottom;
pos = (300,0);
},
{
name = top;
pos = (300,516);
}
);
layerId = m001;
shapes = (
{
closed = 1;
nodes = (
(480,516,l),
(375,516,l),
(352,524,o),
(327,528,o),
(300,528,cs),
(168,528,o),
(90,437,o),
(90,258,cs),
(90,79,o),
(168,-12,o),
(300,-12,cs),
(432,-12,o),
(510,79,o),
(510,258,cs),
(510,377,o),
(475,458,o),
(412,498,c),
(471,498,ls),
(491,498,o),
(500,508,o),
(500,528,cs),
(500,627,l),
(480,627,l)
);
},
{
closed = 1;
nodes = (
(180,7,o),
(113,94,o),
(113,234,cs),
(113,282,ls),
(113,422,o),
(180,509,o),
(300,509,cs),
(420,509,o),
(487,422,o),
(487,282,cs),
(487,234,ls),
(487,94,o),
(420,7,o),
(300,7,cs)
);
}
);
userData = {
com.typemytype.robofont.pointLabels = {
};
};
width = 600;
},
{
anchors = (
{
name = bottom;
pos = (300,0);
},
{
name = top;
pos = (300,516);
}
);
layerId = m002;
shapes = (
{
closed = 1;
nodes = (
(469,516,l),
(379,516,l),
(355,524,o),
(328,528,o),
(300,528,cs),
(155,528,o),
(66,422,o),
(66,258,cs),
(66,94,o),
(155,-12,o),
(300,-12,cs),
(445,-12,o),
(534,94,o),
(534,258,cs),
(534,348,o),
(506,420,o),
(455,467,c),
(477,467,ls),
(527,467,o),
(540,495,o),
(540,528,cs),
(540,628,l),
(469,628,l)
);
},
{
closed = 1;
nodes = (
(211,57,o),
(151,110,o),
(151,221,cs),
(151,295,ls),
(151,406,o),
(211,459,o),
(300,459,cs),
(389,459,o),
(449,406,o),
(449,295,cs),
(449,221,ls),
(449,110,o),
(389,57,o),
(300,57,cs)
);
}
);
userData = {
com.typemytype.robofont.pointLabels = {
};
};
width = 600;
},
{
anchors = (
{
name = bottom;
pos = (300,0);
},
{
name = top;
pos = (300,516);
}
);
layerId = m003;
shapes = (
{
closed = 1;
nodes = (
(459,516,l),
(389,516,l),
(362,524,o),
(332,528,o),
(300,528,cs),
(139,528,o),
(41,425,o),
(41,258,cs),
(41,91,o),
(139,-12,o),
(300,-12,cs),
(461,-12,o),
(559,91,o),
(559,258,cs),
(559,330,o),
(540,386,o),
(507,428,c),
(567,434,o),
(583,468,o),
(583,528,cs),
(583,631,l),
(459,631,l)
);
},
{
closed = 1;
nodes = (
(234,98,o),
(194,141,o),
(194,217,cs),
(194,299,ls),
(194,375,o),
(234,418,o),
(300,418,cs),
(366,418,o),
(406,375,o),
(406,299,cs),
(406,217,ls),
(406,141,o),
(366,98,o),
(300,98,cs)
);
}
);
userData = {
com.typemytype.robofont.pointLabels = {
};
};
width = 600;
}
);
unicode = 417;
},
{
glyphname = oslash;
layers = (
{
anchors = (
{
name = bottom;
pos = (300,0);
},
{
name = top;
pos = (300,516);
}
);
layerId = m001;
shapes = (
{
closed = 1;
nodes = (
(147,55,l),
(183,10,o),
(234,-12,o),
(300,-12,cs),
(432,-12,o),
(510,79,o),
(510,258,cs),
(510,339,o),
(494,402,o),
(464,447,c),
(533,531,l),
(519,542,l),
(453,461,l),
(417,506,o),
(366,528,o),
(300,528,cs),
(168,528,o),
(90,437,o),
(90,258,cs),
(90,177,o),
(106,114,o),
(136,69,c),
(67,-15,l),
(81,-26,l)
);
},
{
closed = 1;
nodes = (
(362,509,o),
(408,486,o),
(440,445,c),
(149,86,l),
(125,124,o),
(113,174,o),
(113,234,cs),
(113,282,ls),
(113,422,o),
(180,509,o),
(300,509,cs)
);
},
{
closed = 1;
nodes = (
(238,7,o),
(192,30,o),
(160,71,c),
(451,430,l),
(475,392,o),
(487,342,o),
(487,282,cs),
(487,234,ls),
(487,94,o),
(420,7,o),
(300,7,cs)
);
}
);
userData = {
com.typemytype.robofont.pointLabels = {
};
};
width = 600;
},
{
anchors = (
{
name = bottom;
pos = (300,0);
},
{
name = top;
pos = (300,516);
}
);
layerId = m002;
shapes = (
{
closed = 1;
nodes = (
(155,37,l),
(193,6,o),
(242,-12,o),
(300,-12,cs),
(445,-12,o),
(534,94,o),
(534,258,cs),
(534,330,o),
(516,392,o),
(484,438,c),
(553,522,l),
(508,556,l),
(445,479,l),
(407,510,o),
(358,528,o),
(300,528,cs),
(155,528,o),
(66,422,o),
(66,258,cs),
(66,186,o),
(84,124,o),
(116,78,c),
(47,-6,l),
(92,-40,l)
);
},
{
closed = 1;
nodes = (
(341,459,o),
(376,448,o),
(401,425,c),
(166,138,l),
(156,160,o),
(151,189,o),
(151,221,cs),
(151,295,ls),
(151,406,o),
(211,459,o),
(300,459,cs)
);
},
{
closed = 1;
nodes = (
(259,57,o),
(224,68,o),
(199,91,c),
(434,378,l),
(444,356,o),
(449,327,o),
(449,295,cs),
(449,221,ls),
(449,110,o),
(389,57,o),
(300,57,cs)
);
}
);
userData = {
com.typemytype.robofont.pointLabels = {
};
};
width = 600;
},
{
anchors = (
{
name = bottom;
pos = (300,0);
},
{
name = top;
pos = (300,516);
}
);
layerId = m003;
shapes = (
{
closed = 1;
nodes = (
(169,18,l),
(205,-1,o),
(250,-12,o),
(300,-12,cs),
(461,-12,o),
(559,91,o),
(559,258,cs),
(559,328,o),
(542,387,o),
(508,432,c),
(577,515,l),
(495,575,l),
(431,498,l),
(395,517,o),
(350,528,o),
(300,528,cs),
(139,528,o),
(41,425,o),
(41,258,cs),
(41,188,o),
(58,129,o),
(92,84,c),
(23,1,l),
(105,-59,l)
);
},
{
closed = 1;
nodes = (
(324,418,o),
(345,412,o),
(361,401,c),
(196,200,l),
(194,207,o),
(194,217,o),
(194,225,cs),
(194,299,ls),
(194,375,o),
(234,418,o),
(300,418,cs)
);
},
{
closed = 1;
nodes = (
(276,98,o),
(255,104,o),
(239,115,c),
(404,316,l),
(406,309,o),
(406,299,o),
(406,291,cs),
(406,217,ls),
(406,141,o),
(366,98,o),
(300,98,cs)
);
}
);
userData = {
com.typemytype.robofont.pointLabels = {
};
};
width = 600;
}
);
unicode = 248;
},
{
glyphname = oe;
layers = (
{
layerId = m001;
shapes = (
{
closed = 1;
nodes = (
(98,7,o),
(46,80,o),
(46,230,cs),
(46,286,ls),
(46,436,o),
(98,509,o),
(168,509,cs),
(238,509,o),
(290,436,o),
(290,286,cs),
(290,230,ls),
(290,80,o),
(238,7,o),
(168,7,cs)
);
},
{
closed = 1;
nodes = (
(311,298,ls),
(311,445,o),
(360,509,o),
(438,509,cs),
(504,509,o),
(554,465,o),
(554,313,cs),
(554,275,l),
(311,275,l)
);
},
{
closed = 1;
nodes = (
(508,-12,o),
(550,50,o),
(569,117,c),
(550,122,l),
(531,52,o),
(491,7,o),
(431,7,cs),
(366,7,o),
(311,60,o),
(311,226,cs),
(311,258,l),
(575,258,l),
(575,313,ls),
(575,465,o),
(520,528,o),
(438,528,cs),
(368,528,o),
(320,484,o),
(302,384,c),
(299,384,l),
(283,477,o),
(235,528,o),
(167,528,cs),
(82,528,o),
(24,448,o),
(24,258,cs),
(24,66,o),
(83,-12,o),
(167,-12,cs),
(229,-12,o),
(282,31,o),
(297,132,c),
(300,132,l),
(316,28,o),
(368,-12,o),
(430,-12,cs)
);
}
);
userData = {
com.typemytype.robofont.pointLabels = {
};
};
width = 600;
},
{
guides = (
{
angle = 90;
pos = (298,0);
userData = {
UFO.identifier = skHZU6kmXC;
};
}
);
layerId = m002;
shapes = (
{
closed = 1;
nodes = (
(123,48,o),
(91,90,o),
(91,205,cs),
(91,311,ls),
(91,426,o),
(123,468,o),
(176,468,cs),
(229,468,o),
(261,426,o),
(261,311,cs),
(261,205,ls),
(261,90,o),
(229,48,o),
(176,48,cs)
);
},
{
closed = 1;
nodes = (
(334,329,ls),
(334,424,o),
(367,470,o),
(425,470,cs),
(483,470,o),
(516,424,o),
(516,329,cs),
(516,295,l),
(334,295,l)
);
},
{
closed = 1;
nodes = (
(508,-12,o),
(555,53,o),
(574,114,c),
(516,141,l),
(501,96,o),
(478,52,o),
(429,52,cs),
(368,52,o),
(334,118,o),
(334,213,cs),
(334,238,l),
(582,238,l),
(582,292,ls),
(582,447,o),
(531,528,o),
(432,528,cs),
(377,528,o),
(329,503,o),
(300,434,c),
(297,434,l),
(273,496,o),
(228,528,o),
(170,528,cs),
(64,528,o),
(14,422,o),
(14,258,cs),
(14,94,o),
(64,-12,o),
(170,-12,cs),
(227,-12,o),
(267,18,o),
(293,73,c),
(296,73,l),
(326,19,o),
(371,-12,o),
(427,-12,cs)
);
}
);
userData = {
com.typemytype.robofont.pointLabels = {
};
};
width = 600;
},
{
layerId = m003;
shapes = (
{
closed = 1;
nodes = (
(147,84,o),
(125,117,o),
(125,175,cs),
(125,341,ls),
(125,399,o),
(147,432,o),
(183,432,cs),
(219,432,o),
(241,399,o),
(241,341,cs),
(241,175,ls),
(241,117,o),
(219,84,o),
(183,84,cs)
);
},
{
closed = 1;
nodes = (
(353,349,ls),
(353,399,o),
(372,438,o),
(414,438,cs),
(456,438,o),
(475,399,o),
(475,349,cs),
(475,305,l),
(353,305,l)
);
},
{
closed = 1;
nodes = (
(513,-12,o),
(559,51,o),
(578,129,c),
(481,156,l),
(472,117,o),
(456,84,o),
(421,84,cs),
(377,84,o),
(353,136,o),
(353,213,cs),
(353,228,l),
(584,228,l),
(584,297,ls),
(584,439,o),
(520,528,o),
(420,528,cs),
(369,528,o),
(330,504,o),
(301,454,c),
(297,454,l),
(272,502,o),
(234,528,o),
(176,528,cs),
(76,528,o),
(12,452,o),
(12,258,cs),
(12,63,o),
(77,-12,o),
(174,-12,cs),
(228,-12,o),
(265,12,o),
(291,54,c),
(295,54,l),
(325,8,o),
(371,-12,o),
(423,-12,cs)
);
}
);
userData = {
com.typemytype.robofont.pointLabels = {
};
};
width = 600;
}
);
unicode = 339;
},
{
glyphname = p;
layers = (
{
anchors = (
{
name = top;
pos = (310,516);
}
);
layerId = m001;
shapes = (
{
closed = 1;
nodes = (
(146,-200,l),
(146,78,l),
(149,78,l),
(170,34,o),
(223,-12,o),
(310,-12,cs),
(442,-12,o),
(520,79,o),
(520,258,cs),
(520,437,o),
(442,528,o),
(310,528,cs),
(223,528,o),
(170,482,o),
(149,438,c),
(146,438,l),
(146,516,l),
(125,516,l),
(125,-200,l)
);
},
{
closed = 1;
nodes = (
(224,7,o),
(146,62,o),
(146,143,cs),
(146,373,ls),
(146,454,o),
(224,509,o),
(310,509,cs),
(430,509,o),
(497,422,o),
(497,282,cs),
(497,234,ls),
(497,94,o),
(430,7,o),
(310,7,cs)
);
}
);
userData = {
com.typemytype.robofont.pointLabels = {
};
};
width = 600;
},
{
anchors = (
{
name = top;
pos = (317,516);
}
);
layerId = m002;
shapes = (
{
closed = 1;
nodes = (
(175,-200,l),
(175,84,l),
(179,84,l),
(212,21,o),
(266,-12,o),
(338,-12,cs),
(464,-12,o),
(540,89,o),
(540,258,cs),
(540,427,o),
(464,528,o),
(338,528,cs),
(266,528,o),
(212,495,o),
(179,432,c),
(175,432,l),
(175,516,l),
(95,516,l),
(95,-200,l)
);
},
{
closed = 1;
nodes = (
(236,59,o),
(175,96,o),
(175,165,c),
(175,351,l),
(175,420,o),
(236,457,o),
(307,457,cs),
(400,457,o),
(454,395,o),
(454,302,cs),
(454,214,ls),
(454,121,o),
(400,59,o),
(307,59,cs)
);
}
);
userData = {
com.typemytype.robofont.pointLabels = {
};
};
width = 600;
},
{
anchors = (
{
name = top;
pos = (310,516);
}
);
layerId = m003;
shapes = (
{
closed = 1;
nodes = (
(207,-200,l),
(207,94,l),
(214,94,l),
(240,32,o),
(284,-12,o),
(367,-12,cs),
(481,-12,o),
(561,71,o),
(561,258,cs),
(561,445,o),
(481,528,o),
(367,528,cs),
(284,528,o),
(240,484,o),
(214,422,c),
(207,422,l),
(207,516,l),
(59,516,l),
(59,-200,l)
);
},
{
closed = 1;
nodes = (
(251,103,o),
(207,128,o),
(207,182,c),
(207,334,l),
(207,388,o),
(251,413,o),
(303,413,cs),
(369,413,o),
(407,370,o),
(407,298,cs),
(407,218,l),
(407,146,o),
(369,103,o),
(303,103,cs)
);
}
);
userData = {
com.typemytype.robofont.pointLabels = {
};
};
width = 600;
}
);
unicode = 112;
},
{
glyphname = thorn;
layers = (
{
layerId = m001;
shapes = (
{
closed = 1;
nodes = (
(146,-200,l),
(146,78,l),
(149,78,l),
(170,35,o),
(221,-12,o),
(313,-12,cs),
(436,-12,o),
(520,67,o),
(520,258,cs),
(520,449,o),
(436,528,o),
(313,528,cs),
(221,528,o),
(170,481,o),
(149,438,c),
(146,438,l),
(146,740,l),
(125,740,l),
(125,-200,l)
);
},
{
closed = 1;
nodes = (
(224,7,o),
(146,62,o),
(146,143,cs),
(146,373,ls),
(146,454,o),
(224,509,o),
(311,509,cs),
(423,509,o),
(497,433,o),
(497,286,cs),
(497,230,ls),
(497,83,o),
(422,7,o),
(311,7,cs)
);
}
);
userData = {
com.typemytype.robofont.pointLabels = {
};
};
width = 600;
},
{
layerId = m002;
shapes = (
{
closed = 1;
nodes = (
(175,-200,l),
(175,84,l),
(179,84,l),
(212,21,o),
(266,-12,o),
(338,-12,cs),
(464,-12,o),
(540,89,o),
(540,258,cs),
(540,427,o),
(464,528,o),
(338,528,cs),
(266,528,o),
(212,495,o),
(179,432,c),
(175,432,l),
(175,740,l),
(95,740,l),
(95,-200,l)
);
},
{
closed = 1;
nodes = (
(236,59,o),
(175,96,o),
(175,165,c),
(175,351,ls),
(175,420,o),
(236,457,o),
(307,457,cs),
(400,457,o),
(454,395,o),
(454,302,cs),
(454,214,ls),
(454,121,o),
(400,59,o),
(307,59,cs)
);
}
);
userData = {
com.typemytype.robofont.pointLabels = {
};
};
width = 600;
},
{
layerId = m003;
shapes = (
{
closed = 1;
nodes = (
(207,-200,l),
(207,94,l),
(214,94,l),
(240,32,o),
(284,-12,o),
(367,-12,cs),
(481,-12,o),
(561,71,o),
(561,258,cs),
(561,445,o),
(481,528,o),
(367,528,cs),
(284,528,o),
(240,484,o),
(214,422,c),
(207,422,l),
(207,740,l),
(59,740,l),
(59,-200,l)
);
},
{
closed = 1;
nodes = (
(251,103,o),
(207,128,o),
(207,182,c),
(207,334,l),
(207,388,o),
(251,413,o),
(303,413,cs),
(369,413,o),
(407,370,o),
(407,298,cs),
(407,218,l),
(407,146,o),
(369,103,o),
(303,103,cs)
);
}
);
userData = {
com.typemytype.robofont.pointLabels = {
};
};
width = 600;
}
);
unicode = 254;
},
{
glyphname = q;
layers = (
{
anchors = (
{
name = top;
pos = (290,516);
}
);
layerId = m001;
shapes = (
{
closed = 1;
nodes = (
(475,-200,l),
(475,516,l),
(454,516,l),
(454,438,l),
(451,438,l),
(430,482,o),
(377,528,o),
(290,528,cs),
(158,528,o),
(80,437,o),
(80,258,cs),
(80,79,o),
(158,-12,o),
(290,-12,cs),
(377,-12,o),
(430,34,o),
(451,78,c),
(454,78,l),
(454,-200,l)
);
},
{
closed = 1;
nodes = (
(170,7,o),
(103,94,o),
(103,234,cs),
(103,282,ls),
(103,422,o),
(170,509,o),
(290,509,cs),
(376,509,o),
(454,454,o),
(454,373,cs),
(454,143,ls),
(454,62,o),
(376,7,o),
(290,7,cs)
);
}
);
userData = {
com.typemytype.robofont.pointLabels = {
};
};
width = 600;
},
{
anchors = (
{
name = top;
pos = (282,516);
}
);
layerId = m002;
shapes = (
{
closed = 1;
nodes = (
(505,-200,l),
(505,516,l),
(425,516,l),
(425,432,l),
(421,432,l),
(388,495,o),
(334,528,o),
(262,528,cs),
(136,528,o),
(60,427,o),
(60,258,cs),
(60,89,o),
(136,-12,o),
(262,-12,cs),
(334,-12,o),
(388,21,o),
(421,84,c),
(425,84,l),
(425,-200,l)
);
},
{
closed = 1;
nodes = (
(200,59,o),
(146,121,o),
(146,214,cs),
(146,302,ls),
(146,395,o),
(200,457,o),
(293,457,cs),
(364,457,o),
(425,420,o),
(425,351,c),
(425,165,l),
(425,96,o),
(364,59,o),
(293,59,cs)
);
}
);
userData = {
com.typemytype.robofont.pointLabels = {
};
};
width = 600;
},
{
anchors = (
{
name = top;
pos = (290,516);
}
);
layerId = m003;
shapes = (
{
closed = 1;
nodes = (
(541,-200,l),
(541,516,l),
(393,516,l),
(393,422,l),
(386,422,l),
(360,484,o),
(316,528,o),
(233,528,cs),
(119,528,o),
(39,445,o),
(39,258,cs),
(39,71,o),
(119,-12,o),
(233,-12,cs),
(316,-12,o),
(360,32,o),
(386,94,c),
(393,94,l),
(393,-200,l)
);
},
{
closed = 1;
nodes = (
(231,103,o),
(193,146,o),
(193,218,cs),
(193,298,l),
(193,370,o),
(231,413,o),
(297,413,cs),
(349,413,o),
(393,388,o),
(393,334,c),
(393,182,l),
(393,128,o),
(349,103,o),
(297,103,cs)
);
}
);
userData = {
com.typemytype.robofont.pointLabels = {
};
};
width = 600;
}
);
unicode = 113;
},
{
glyphname = r;
layers = (
{
anchors = (
{
name = bottom;
pos = (269,0);
},
{
name = top;
pos = (378,516);
}
);
layerId = m001;
shapes = (
{
closed = 1;
nodes = (
(477,0,l),
(477,19,l),
(279,19,l),
(279,331,ls),
(279,445,o),
(355,497,o),
(437,497,cs),
(556,497,l),
(556,516,l),
(441,516,ls),
(347,516,o),
(305,471,o),
(282,416,c),
(279,416,l),
(279,516,l),
(80,516,l),
(80,497,l),
(258,497,l),
(258,19,l),
(80,19,l),
(80,0,l)
);
}
);
userData = {
com.typemytype.robofont.pointLabels = {
};
};
width = 600;
},
{
anchors = (
{
name = bottom;
pos = (268,0);
},
{
name = top;
pos = (353,516);
}
);
layerId = m002;
shapes = (
{
closed = 1;
nodes = (
(469,0,l),
(469,68,l),
(308,68,l),
(308,291,ls),
(308,371,o),
(361,436,o),
(462,436,cs),
(559,436,l),
(559,516,l),
(487,516,ls),
(379,516,o),
(333,454,o),
(313,386,c),
(308,386,l),
(308,516,l),
(77,516,l),
(77,448,l),
(228,448,l),
(228,68,l),
(77,68,l),
(77,0,l)
);
}
);
userData = {
com.typemytype.robofont.pointLabels = {
};
};
width = 600;
},
{
anchors = (
{
name = bottom;
pos = (267,0);
},
{
name = top;
pos = (325,516);
}
);
layerId = m003;
shapes = (
{
closed = 1;
nodes = (
(470,0,l),
(470,115,l),
(341,115,l),
(341,268,ls),
(341,330,o),
(379,380,o),
(452,380,cs),
(562,380,l),
(562,516,l),
(513,516,ls),
(411,516,o),
(367,446,o),
(348,370,c),
(341,370,l),
(341,516,l),
(74,516,l),
(74,401,l),
(193,401,l),
(193,115,l),
(74,115,l),
(74,0,l)
);
}
);
userData = {
com.typemytype.robofont.pointLabels = {
};
};
width = 600;
}
);
unicode = 114;
},
{
glyphname = s;
layers = (
{
anchors = (
{
name = bottom;
pos = (308,0);
},
{
name = top;
pos = (300,516);
}
);
layerId = m001;
shapes = (
{
closed = 1;
nodes = (
(430,-12,o),
(517,34,o),
(517,139,cs),
(517,231,o),
(450,256,o),
(357,269,cs),
(277,280,ls),
(189,292,o),
(136,314,o),
(136,391,cs),
(136,474,o),
(200,509,o),
(297,509,cs),
(395,509,o),
(445,472,o),
(481,432,c),
(495,447,l),
(457,488,o),
(400,528,o),
(298,528,cs),
(198,528,o),
(115,491,o),
(115,390,cs),
(115,298,o),
(182,273,o),
(275,260,cs),
(355,249,ls),
(443,237,o),
(496,215,o),
(496,138,cs),
(496,49,o),
(425,7,o),
(317,7,cs),
(226,7,o),
(159,36,o),
(106,103,c),
(91,90,l),
(146,21,o),
(220,-12,o),
(318,-12,cs)
);
}
);
userData = {
com.typemytype.robofont.pointLabels = {
};
};
width = 600;
},
{
anchors = (
{
name = bottom;
pos = (294,0);
},
{
name = top;
pos = (298,516);
}
);
layerId = m002;
shapes = (
{
closed = 1;
nodes = (
(438,-12,o),
(524,47,o),
(524,149,cs),
(524,261,o),
(421,281,o),
(347,292,cs),
(266,304,ls),
(220,311,o),
(175,325,o),
(175,379,cs),
(175,432,o),
(220,461,o),
(301,461,cs),
(392,461,o),
(438,425,o),
(462,396,c),
(514,445,l),
(465,497,o),
(397,528,o),
(304,528,cs),
(184,528,o),
(96,477,o),
(96,374,cs),
(96,262,o),
(200,242,o),
(273,231,cs),
(354,219,ls),
(401,212,o),
(445,198,o),
(445,144,cs),
(445,83,o),
(388,55,o),
(308,55,cs),
(226,55,o),
(170,84,o),
(121,136,c),
(67,89,l),
(121,28,o),
(198,-12,o),
(306,-12,cs)
);
}
);
userData = {
com.typemytype.robofont.pointLabels = {
};
};
width = 600;
},
{
anchors = (
{
name = bottom;
pos = (293,0);
},
{
name = top;
pos = (305,516);
}
);
layerId = m003;
shapes = (
{
closed = 1;
nodes = (
(447,-12,o),
(534,56,o),
(534,163,cs),
(534,261,o),
(461,300,o),
(368,314,cs),
(286,327,ls),
(246,333,o),
(222,342,o),
(222,372,cs),
(222,406,o),
(252,424,o),
(308,424,cs),
(375,424,o),
(424,398,o),
(454,365,c),
(528,449,l),
(485,499,o),
(414,528,o),
(313,528,cs),
(164,528,o),
(77,463,o),
(77,355,cs),
(77,257,o),
(150,218,o),
(242,204,cs),
(325,191,ls),
(365,185,o),
(389,176,o),
(389,147,cs),
(389,110,o),
(353,92,o),
(295,92,cs),
(226,92,o),
(172,118,o),
(132,162,c),
(49,85,l),
(91,25,o),
(180,-12,o),
(294,-12,cs)
);
}
);
userData = {
com.typemytype.robofont.pointLabels = {
};
};
width = 600;
}
);
unicode = 115;
},
{
glyphname = scedilla;
layers = (
{
anchors = (
{
name = top;
pos = (300,516);
}
);
layerId = m001;
shapes = (
{
closed = 1;
nodes = (
(369,-202,o),
(400,-169,o),
(400,-131,cs),
(400,-95,o),
(372,-72,o),
(333,-72,cs),
(324,-72,o),
(312,-73,o),
(303,-75,c),
(301,-73,l),
(316,-12,l),
(318,-12,ls),
(430,-12,o),
(517,34,o),
(517,139,cs),
(517,231,o),
(450,256,o),
(357,269,cs),
(277,280,ls),
(189,292,o),
(136,314,o),
(136,391,cs),
(136,474,o),
(200,509,o),
(297,509,cs),
(395,509,o),
(445,472,o),
(481,432,c),
(495,447,l),
(457,488,o),
(400,528,o),
(298,528,cs),
(198,528,o),
(115,491,o),
(115,390,cs),
(115,298,o),
(182,273,o),
(275,260,cs),
(355,249,ls),
(443,237,o),
(496,215,o),
(496,138,cs),
(496,49,o),
(425,7,o),
(317,7,cs),
(226,7,o),
(159,36,o),
(106,103,c),
(91,90,l),
(142,26,o),
(210,-7,o),
(298,-12,c),
(281,-84,l),
(318,-86,ls),
(363,-88,o),
(379,-107,o),
(379,-132,cs),
(379,-166,o),
(354,-184,o),
(318,-184,cs),
(288,-184,o),
(264,-174,o),
(250,-157,c),
(237,-170,l),
(249,-187,o),
(280,-202,o),
(318,-202,cs)
);
}
);
userData = {
com.typemytype.robofont.pointLabels = {
};
};
width = 600;
},
{
anchors = (
{
name = top;
pos = (298,516);
}
);
layerId = m002;
shapes = (
{
closed = 1;
nodes = (
(369,-207,o),
(421,-181,o),
(421,-124,cs),
(421,-81,o),
(392,-58,o),
(353,-58,cs),
(341,-58,o),
(327,-60,o),
(314,-64,c),
(311,-61,l),
(320,-12,l),
(444,-8,o),
(524,51,o),
(524,149,cs),
(524,261,o),
(421,281,o),
(347,292,cs),
(266,304,ls),
(220,311,o),
(175,325,o),
(175,379,cs),
(175,432,o),
(220,461,o),
(301,461,cs),
(392,461,o),
(438,425,o),
(462,396,c),
(514,445,l),
(465,497,o),
(397,528,o),
(304,528,cs),
(184,528,o),
(96,477,o),
(96,374,cs),
(96,262,o),
(200,242,o),
(273,231,cs),
(354,219,ls),
(401,212,o),
(445,198,o),
(445,144,cs),
(445,83,o),
(388,55,o),
(308,55,cs),
(226,55,o),
(170,84,o),
(121,136,c),
(67,89,l),
(115,35,o),
(181,-3,o),
(271,-10,c),
(258,-77,l),
(286,-81,ls),
(342,-89,o),
(354,-104,o),
(354,-122,cs),
(354,-143,o),
(335,-153,o),
(310,-153,cs),
(281,-153,o),
(261,-140,o),
(249,-125,c),
(211,-166,l),
(225,-185,o),
(256,-207,o),
(310,-207,cs)
);
}
);
userData = {
com.typemytype.robofont.pointLabels = {
};
};
width = 600;
},
{
anchors = (
{
name = top;
pos = (305,516);
}
);
layerId = m003;
shapes = (
{
closed = 1;
nodes = (
(375,-212,o),
(439,-189,o),
(439,-121,cs),
(439,-72,o),
(406,-52,o),
(366,-52,cs),
(350,-52,o),
(334,-55,o),
(318,-59,c),
(314,-55,l),
(323,-11,l),
(458,-2,o),
(534,63,o),
(534,163,cs),
(534,261,o),
(461,300,o),
(368,314,cs),
(286,327,ls),
(246,333,o),
(222,342,o),
(222,372,cs),
(222,406,o),
(252,424,o),
(308,424,cs),
(375,424,o),
(424,398,o),
(454,365,c),
(528,449,l),
(485,499,o),
(414,528,o),
(313,528,cs),
(164,528,o),
(77,463,o),
(77,355,cs),
(77,257,o),
(150,218,o),
(242,204,cs),
(325,191,ls),
(365,185,o),
(389,176,o),
(389,147,cs),
(389,110,o),
(353,92,o),
(295,92,cs),
(226,92,o),
(172,118,o),
(132,162,c),
(49,85,l),
(86,32,o),
(160,-3,o),
(256,-10,c),
(243,-74,l),
(264,-76,ls),
(326,-82,o),
(339,-101,o),
(339,-116,cs),
(339,-133,o),
(320,-141,o),
(295,-141,cs),
(264,-141,o),
(242,-128,o),
(229,-112,c),
(183,-168,l),
(200,-188,o),
(238,-212,o),
(307,-212,cs)
);
}
);
userData = {
com.typemytype.robofont.pointLabels = {
};
};
width = 600;
}
);
unicode = 351;
},
{
glyphname = germandbls;
layers = (
{
layerId = m001;
shapes = (
{
closed = 1;
nodes = (
(161,497,l),
(506,497,l),
(279,209,l),
(279,189,l),
(306,189,ls),
(450,189,o),
(542,143,o),
(542,26,cs),
(542,-5,ls),
(542,-120,o),
(462,-181,o),
(308,-181,cs),
(244,-181,l),
(244,-200,l),
(308,-200,ls),
(476,-200,o),
(565,-130,o),
(565,9,cs),
(565,152,o),
(474,208,o),
(302,208,c),
(529,496,l),
(529,516,l),
(161,516,l),
(161,721,l),
(386,721,l),
(386,740,l),
(169,740,ls),
(149,740,o),
(140,731,o),
(140,711,cs),
(140,0,l),
(161,0,l)
);
}
);
userData = {
com.typemytype.robofont.pointLabels = {
};
};
width = 600;
},
{
layerId = m002;
shapes = (
{
closed = 1;
nodes = (
(182,448,l),
(452,448,l),
(276,220,l),
(276,152,l),
(292,152,ls),
(427,152,o),
(487,117,o),
(487,28,cs),
(487,3,ls),
(487,-91,o),
(429,-132,o),
(310,-132,cs),
(244,-132,l),
(244,-200,l),
(310,-200,ls),
(470,-200,o),
(572,-125,o),
(572,14,cs),
(572,140,o),
(489,203,o),
(352,212,c),
(525,437,l),
(525,516,l),
(182,516,l),
(182,671,l),
(353,671,l),
(353,740,l),
(216,740,ls),
(138,740,o),
(102,691,o),
(102,622,cs),
(102,0,l),
(182,0,l)
);
}
);
userData = {
com.typemytype.robofont.pointLabels = {
};
};
width = 600;
},
{
layerId = m003;
shapes = (
{
closed = 1;
nodes = (
(204,405,l),
(396,405,l),
(273,230,l),
(273,119,l),
(297,119,ls),
(385,119,o),
(425,91,o),
(425,26,cs),
(425,3,ls),
(425,-60,o),
(387,-89,o),
(303,-89,cs),
(246,-89,l),
(246,-200,l),
(312,-200,ls),
(472,-200,o),
(574,-126,o),
(574,16,cs),
(574,129,o),
(509,193,o),
(401,213,c),
(540,410,l),
(540,516,l),
(204,516,l),
(204,629,l),
(376,629,l),
(376,740,l),
(218,740,ls),
(110,740,o),
(60,678,o),
(60,591,cs),
(60,0,l),
(204,0,l)
);
}
);
userData = {
com.typemytype.robofont.pointLabels = {
};
};
width = 600;
}
);
unicode = 223;
},
{
glyphname = longs;
layers = (
{
layerId = m001;
shapes = (
{
closed = 1;
nodes = (
(510,0,l),
(510,19,l),
(307,19,l),
(307,721,l),
(533,721,l),
(533,740,l),
(316,740,ls),
(296,740,o),
(287,731,o),
(287,711,cs),
(287,516,l),
(84,516,l),
(84,497,l),
(287,497,l),
(287,19,l),
(94,19,l),
(94,0,l)
);
}
);
userData = {
com.typemytype.robofont.pointLabels = {
};
};
width = 600;
},
{
layerId = m002;
shapes = (
{
closed = 1;
nodes = (
(521,0,l),
(521,68,l),
(337,68,l),
(337,672,l),
(544,672,l),
(544,740,l),
(371,740,ls),
(293,740,o),
(257,691,o),
(257,622,cs),
(257,516,l),
(73,516,l),
(73,448,l),
(257,448,l),
(257,68,l),
(83,68,l),
(83,0,l)
);
}
);
userData = {
com.typemytype.robofont.pointLabels = {
};
};
width = 600;
},
{
layerId = m003;
shapes = (
{
closed = 1;
nodes = (
(533,0,l),
(533,115,l),
(371,115,l),
(371,625,l),
(556,625,l),
(556,740,l),
(381,740,ls),
(273,740,o),
(223,678,o),
(223,591,cs),
(223,516,l),
(61,516,l),
(61,401,l),
(223,401,l),
(223,115,l),
(71,115,l),
(71,0,l)
);
}
);
userData = {
com.typemytype.robofont.pointLabels = {
};
};
width = 600;
}
);
unicode = 383;
},
{
glyphname = t;
layers = (
{
anchors = (
{
name = bottom;
pos = (378,0);
},
{
name = topright;
pos = (389,760);
}
);
layerId = m001;
shapes = (
{
closed = 1;
nodes = (
(522,19,l),
(258,19,l),
(258,497,l),
(522,497,l),
(522,516,l),
(258,516,l),
(258,698,l),
(237,698,l),
(237,545,ls),
(237,525,o),
(228,516,o),
(208,516,cs),
(36,516,l),
(36,497,l),
(237,497,l),
(237,29,ls),
(237,9,o),
(246,0,o),
(266,0,cs),
(522,0,l)
);
}
);
userData = {
com.typemytype.robofont.pointLabels = {
};
};
width = 600;
},
{
anchors = (
{
name = bottom;
pos = (375,0);
},
{
name = topright;
pos = (387,760);
}
);
layerId = m002;
shapes = (
{
closed = 1;
nodes = (
(526,68,l),
(291,68,l),
(291,448,l),
(526,448,l),
(526,516,l),
(291,516,l),
(291,698,l),
(214,698,l),
(214,563,ls),
(214,528,o),
(201,516,o),
(167,516,cs),
(39,516,l),
(39,448,l),
(211,448,l),
(211,118,ls),
(211,49,o),
(247,0,o),
(325,0,cs),
(526,0,l)
);
}
);
userData = {
com.typemytype.robofont.pointLabels = {
};
};
width = 600;
},
{
anchors = (
{
name = bottom;
pos = (361,0);
},
{
name = topright;
pos = (396,780);
}
);
layerId = m003;
shapes = (
{
closed = 1;
nodes = (
(531,115,l),
(330,115,l),
(330,401,l),
(531,401,l),
(531,516,l),
(330,516,l),
(330,698,l),
(194,698,l),
(194,577,ls),
(194,531,o),
(177,516,o),
(133,516,cs),
(42,516,l),
(42,401,l),
(182,401,l),
(182,149,ls),
(182,62,o),
(233,0,o),
(340,0,cs),
(531,0,l)
);
}
);
userData = {
com.typemytype.robofont.pointLabels = {
};
};
width = 600;
}
);
unicode = 116;
},
{
glyphname = tbar;
layers = (
{
anchors = (
{
name = bottom;
pos = (378,0);
},
{
name = topright;
pos = (389,760);
}
);
layerId = m001;
shapes = (
{
closed = 1;
nodes = (
(258,19,l),
(258,283,l),
(451,283,l),
(451,301,l),
(258,301,l),
(258,497,l),
(522,497,l),
(522,516,l),
(258,516,l),
(258,698,l),
(237,698,l),
(237,545,ls),
(237,525,o),
(228,516,o),
(208,516,cs),
(36,516,l),
(36,497,l),
(237,497,l),
(237,301,l),
(107,301,l),
(107,283,l),
(237,283,l),
(237,29,ls),
(237,9,o),
(246,0,o),
(266,0,cs),
(522,0,l),
(522,19,l)
);
}
);
userData = {
com.typemytype.robofont.pointLabels = {
};
};
width = 600;
},
{
anchors = (
{
name = bottom;
pos = (375,0);
},
{
name = topright;
pos = (387,760);
}
);
layerId = m002;
shapes = (
{
closed = 1;
nodes = (
(291,68,l),
(291,247,l),
(464,247,l),
(464,309,l),
(291,309,l),
(291,448,l),
(526,448,l),
(526,516,l),
(291,516,l),
(291,698,l),
(214,698,l),
(214,563,ls),
(214,528,o),
(201,516,o),
(167,516,cs),
(39,516,l),
(39,448,l),
(211,448,l),
(211,309,l),
(102,309,l),
(102,247,l),
(211,247,l),
(211,118,ls),
(211,49,o),
(247,0,o),
(325,0,cs),
(524,0,l),
(524,68,l)
);
}
);
userData = {
com.typemytype.robofont.pointLabels = {
};
};
width = 600;
},
{
anchors = (
{
name = bottom;
pos = (361,0);
},
{
name = topright;
pos = (396,780);
}
);
layerId = m003;
shapes = (
{
closed = 1;
nodes = (
(330,115,l),
(330,212,l),
(481,212,l),
(481,317,l),
(330,317,l),
(330,401,l),
(531,401,l),
(531,516,l),
(330,516,l),
(330,698,l),
(194,698,l),
(194,577,ls),
(194,531,o),
(177,516,o),
(133,516,cs),
(42,516,l),
(42,401,l),
(182,401,l),
(182,317,l),
(94,317,l),
(94,212,l),
(182,212,l),
(182,149,ls),
(182,62,o),
(233,0,o),
(340,0,cs),
(531,0,l),
(531,115,l)
);
}
);
userData = {
com.typemytype.robofont.pointLabels = {
};
};
width = 600;
}
);
unicode = 359;
},
{
glyphname = tcedilla;
layers = (
{
anchors = (
{
name = topright;
pos = (389,760);
}
);
layerId = m001;
shapes = (
{
closed = 1;
nodes = (
(439,-202,o),
(470,-169,o),
(470,-131,cs),
(470,-95,o),
(442,-72,o),
(403,-72,cs),
(394,-72,o),
(382,-73,o),
(373,-75,c),
(371,-73,l),
(389,0,l),
(522,0,l),
(522,19,l),
(258,19,l),
(258,497,l),
(522,497,l),
(522,516,l),
(258,516,l),
(258,698,l),
(237,698,l),
(237,545,ls),
(237,525,o),
(228,516,o),
(208,516,cs),
(36,516,l),
(36,497,l),
(237,497,l),
(237,29,ls),
(237,9,o),
(246,0,o),
(266,0,cs),
(371,0,l),
(351,-84,l),
(388,-86,ls),
(433,-88,o),
(449,-107,o),
(449,-132,cs),
(449,-166,o),
(424,-184,o),
(388,-184,cs),
(358,-184,o),
(334,-174,o),
(320,-157,c),
(307,-170,l),
(319,-187,o),
(350,-202,o),
(388,-202,cs)
);
}
);
userData = {
com.typemytype.robofont.pointLabels = {
};
};
width = 600;
},
{
anchors = (
{
name = topright;
pos = (387,760);
}
);
layerId = m002;
shapes = (
{
closed = 1;
nodes = (
(446,-207,o),
(498,-181,o),
(498,-124,cs),
(498,-81,o),
(469,-58,o),
(430,-58,cs),
(418,-58,o),
(404,-60,o),
(391,-64,c),
(388,-61,l),
(400,0,l),
(526,0,l),
(526,68,l),
(291,68,l),
(291,448,l),
(526,448,l),
(526,516,l),
(291,516,l),
(291,698,l),
(214,698,l),
(214,563,ls),
(214,528,o),
(201,516,o),
(167,516,cs),
(39,516,l),
(39,448,l),
(211,448,l),
(211,118,ls),
(211,49,o),
(247,0,o),
(325,0,cs),
(350,0,l),
(335,-77,l),
(363,-81,ls),
(419,-89,o),
(431,-104,o),
(431,-122,cs),
(431,-143,o),
(412,-153,o),
(387,-153,cs),
(358,-153,o),
(338,-140,o),
(326,-125,c),
(288,-166,l),
(302,-185,o),
(333,-207,o),
(387,-207,cs)
);
}
);
userData = {
com.typemytype.robofont.pointLabels = {
};
};
width = 600;
},
{
anchors = (
{
name = topright;
pos = (396,780);
}
);
layerId = m003;
shapes = (
{
closed = 1;
nodes = (
(443,-212,o),
(507,-189,o),
(507,-121,cs),
(507,-72,o),
(474,-52,o),
(434,-52,cs),
(418,-52,o),
(402,-55,o),
(386,-59,c),
(382,-55,l),
(393,0,l),
(531,0,l),
(531,115,l),
(330,115,l),
(330,401,l),
(531,401,l),
(531,516,l),
(330,516,l),
(330,698,l),
(194,698,l),
(194,577,ls),
(194,531,o),
(177,516,o),
(133,516,cs),
(42,516,l),
(42,401,l),
(182,401,l),
(182,149,ls),
(182,66,o),
(229,5,o),
(326,0,c),
(311,-74,l),
(332,-76,ls),
(394,-82,o),
(407,-101,o),
(407,-116,cs),
(407,-133,o),
(388,-141,o),
(363,-141,cs),
(332,-141,o),
(310,-128,o),
(297,-112,c),
(251,-168,l),
(268,-188,o),
(306,-212,o),
(375,-212,cs)
);
}
);
userData = {
com.typemytype.robofont.pointLabels = {
};
};
width = 600;
}
);
unicode = 355;
},
{
glyphname = u;
layers = (
{
anchors = (
{
name = bottom;
pos = (296,0);
},
{
name = bottomright;
pos = (473,0);
},
{
name = top;
pos = (296,516);
}
);
layerId = m001;
shapes = (
{
closed = 1;
nodes = (
(473,0,l),
(473,516,l),
(452,516,l),
(452,144,ls),
(452,52,o),
(377,7,o),
(294,7,cs),
(194,7,o),
(138,60,o),
(138,183,cs),
(138,516,l),
(117,516,l),
(117,180,ls),
(117,55,o),
(177,-12,o),
(291,-12,cs),
(382,-12,o),
(431,30,o),
(449,74,c),
(452,74,l),
(452,0,l)
);
}
);
userData = {
com.typemytype.robofont.pointLabels = {
};
};
width = 600;
},
{
anchors = (
{
name = bottom;
pos = (297,0);
},
{
name = bottomright;
pos = (502,0);
},
{
name = top;
pos = (297,516);
}
);
layerId = m002;
shapes = (
{
closed = 1;
nodes = (
(502,0,l),
(502,516,l),
(422,516,l),
(422,158,l),
(422,90,o),
(358,59,o),
(294,59,cs),
(215,59,o),
(172,105,o),
(172,199,cs),
(172,516,l),
(92,516,l),
(92,185,ls),
(92,60,o),
(163,-12,o),
(271,-12,cs),
(356,-12,o),
(396,33,o),
(418,84,c),
(422,84,l),
(422,0,l)
);
}
);
userData = {
com.typemytype.robofont.pointLabels = {
};
};
width = 600;
},
{
anchors = (
{
name = bottom;
pos = (298,0);
},
{
name = bottomright;
pos = (535,0);
},
{
name = top;
pos = (298,516);
}
);
layerId = m003;
shapes = (
{
closed = 1;
nodes = (
(535,0,l),
(535,516,l),
(387,516,l),
(387,177,ls),
(387,127,o),
(342,102,o),
(296,102,cs),
(238,102,o),
(209,137,o),
(209,202,cs),
(209,516,l),
(61,516,l),
(61,182,ls),
(61,57,o),
(130,-12,o),
(229,-12,cs),
(312,-12,o),
(358,36,o),
(381,94,c),
(387,94,l),
(387,0,l)
);
}
);
userData = {
com.typemytype.robofont.pointLabels = {
};
};
width = 600;
}
);
unicode = 117;
},
{
glyphname = uhorn;
layers = (
{
anchors = (
{
name = bottom;
pos = (296,0);
},
{
name = top;
pos = (296,516);
}
);
layerId = m001;
shapes = (
{
closed = 1;
nodes = (
(549,627,l),
(549,516,l),
(452,516,l),
(452,144,ls),
(452,52,o),
(377,7,o),
(294,7,cs),
(194,7,o),
(138,60,o),
(138,183,cs),
(138,516,l),
(117,516,l),
(117,180,ls),
(117,55,o),
(177,-12,o),
(291,-12,cs),
(382,-12,o),
(431,30,o),
(449,74,c),
(452,74,l),
(452,0,l),
(473,0,l),
(473,498,l),
(540,498,ls),
(560,498,o),
(569,507,o),
(569,527,cs),
(569,627,l)
);
}
);
userData = {
com.typemytype.robofont.pointLabels = {
};
};
width = 600;
},
{
anchors = (
{
name = bottom;
pos = (297,0);
},
{
name = top;
pos = (297,516);
}
);
layerId = m002;
shapes = (
{
closed = 1;
nodes = (
(516,628,l),
(516,516,l),
(422,516,l),
(422,158,ls),
(422,90,o),
(358,59,o),
(294,59,cs),
(215,59,o),
(172,105,o),
(172,199,cs),
(172,516,l),
(92,516,l),
(92,185,ls),
(92,60,o),
(163,-12,o),
(271,-12,cs),
(356,-12,o),
(396,33,o),
(418,84,c),
(422,84,l),
(422,0,l),
(502,0,l),
(502,463,l),
(524,463,ls),
(574,463,o),
(587,491,o),
(587,526,cs),
(587,628,l)
);
}
);
userData = {
com.typemytype.robofont.pointLabels = {
};
};
width = 600;
},
{
anchors = (
{
name = bottom;
pos = (298,0);
},
{
name = top;
pos = (298,516);
}
);
layerId = m003;
shapes = (
{
closed = 1;
nodes = (
(474,631,l),
(474,516,l),
(387,516,l),
(387,177,ls),
(387,127,o),
(342,102,o),
(296,102,cs),
(238,102,o),
(209,137,o),
(209,202,cs),
(209,516,l),
(61,516,l),
(61,182,ls),
(61,57,o),
(130,-12,o),
(229,-12,cs),
(312,-12,o),
(358,36,o),
(381,94,c),
(387,94,l),
(387,0,l),
(535,0,l),
(535,430,l),
(584,440,o),
(598,473,o),
(598,528,cs),
(598,631,l)
);
}
);
userData = {
com.typemytype.robofont.pointLabels = {
};
};
width = 600;
}
);
unicode = 432;
},
{
glyphname = uogonek;
layers = (
{
anchors = (
{
name = bottom;
pos = (296,0);
},
{
name = top;
pos = (296,516);
}
);
layerId = m001;
shapes = (
{
closed = 1;
nodes = (
(452,516,l),
(452,144,ls),
(452,52,o),
(377,7,o),
(294,7,cs),
(194,7,o),
(138,60,o),
(138,183,cs),
(138,516,l),
(117,516,l),
(117,180,ls),
(117,55,o),
(177,-12,o),
(291,-12,cs),
(382,-12,o),
(431,30,o),
(449,74,c),
(452,74,l),
(452,2,l),
(359,-51,o),
(333,-95,o),
(333,-134,cs),
(333,-179,o),
(367,-202,o),
(412,-202,cs),
(448,-202,o),
(474,-188,o),
(487,-170,c),
(473,-159,l),
(463,-171,o),
(445,-184,o),
(412,-184,cs),
(378,-184,o),
(354,-170,o),
(354,-133,cs),
(354,-80,o),
(402,-46,o),
(473,0,c),
(473,516,l)
);
}
);
userData = {
com.typemytype.robofont.pointLabels = {
};
};
width = 600;
},
{
anchors = (
{
name = bottom;
pos = (297,0);
},
{
name = top;
pos = (297,516);
}
);
layerId = m002;
shapes = (
{
closed = 1;
nodes = (
(422,516,l),
(422,158,ls),
(422,90,o),
(358,59,o),
(294,59,cs),
(215,59,o),
(172,105,o),
(172,199,cs),
(172,516,l),
(92,516,l),
(92,185,ls),
(92,60,o),
(163,-12,o),
(271,-12,cs),
(356,-12,o),
(396,33,o),
(418,84,c),
(422,84,l),
(422,0,l),
(435,0,l),
(436,-3,l),
(361,-39,o),
(321,-79,o),
(321,-127,cs),
(321,-180,o),
(369,-207,o),
(430,-207,cs),
(480,-207,o),
(510,-188,o),
(523,-166,c),
(483,-125,l),
(470,-141,o),
(453,-151,o),
(431,-151,cs),
(410,-151,o),
(389,-142,o),
(389,-114,cs),
(389,-94,o),
(399,-65,o),
(502,0,c),
(502,516,l)
);
}
);
userData = {
com.typemytype.robofont.pointLabels = {
};
};
width = 600;
},
{
anchors = (
{
name = bottom;
pos = (298,0);
},
{
name = top;
pos = (298,516);
}
);
layerId = m003;
shapes = (
{
closed = 1;
nodes = (
(387,516,l),
(387,177,ls),
(387,127,o),
(342,102,o),
(296,102,cs),
(238,102,o),
(209,137,o),
(209,202,cs),
(209,516,l),
(61,516,l),
(61,182,ls),
(61,57,o),
(130,-12,o),
(229,-12,cs),
(312,-12,o),
(358,36,o),
(381,94,c),
(387,94,l),
(387,0,l),
(439,0,l),
(440,-4,l),
(366,-38,o),
(321,-71,o),
(321,-127,cs),
(321,-191,o),
(379,-212,o),
(445,-212,cs),
(508,-212,o),
(550,-193,o),
(567,-161,c),
(514,-110,l),
(500,-126,o),
(483,-138,o),
(459,-138,cs),
(439,-138,o),
(421,-130,o),
(421,-105,cs),
(421,-81,o),
(437,-60,o),
(535,0,c),
(535,516,l)
);
}
);
userData = {
com.typemytype.robofont.pointLabels = {
};
};
width = 600;
}
);
unicode = 371;
},
{
glyphname = v;
layers = (
{
anchors = (
{
name = bottom;
pos = (300,0);
},
{
name = top;
pos = (300,516);
}
);
layerId = m001;
shapes = (
{
closed = 1;
nodes = (
(507,516,l),
(486,516,l),
(302,24,l),
(299,24,l),
(115,516,l),
(93,516,l),
(287,0,l),
(313,0,l)
);
}
);
userData = {
com.typemytype.robofont.pointLabels = {
};
};
width = 600;
},
{
anchors = (
{
name = bottom;
pos = (300,0);
},
{
name = top;
pos = (300,516);
}
);
layerId = m002;
shapes = (
{
closed = 1;
nodes = (
(536,516,l),
(457,516,l),
(383,300,l),
(303,67,l),
(299,67,l),
(219,300,l),
(145,516,l),
(64,516,l),
(249,0,l),
(351,0,l)
);
}
);
userData = {
com.typemytype.robofont.pointLabels = {
};
};
width = 600;
},
{
anchors = (
{
name = bottom;
pos = (300,0);
},
{
name = top;
pos = (300,516);
}
);
layerId = m003;
shapes = (
{
closed = 1;
nodes = (
(573,516,l),
(423,516,l),
(356,295,l),
(307,123,l),
(299,123,l),
(250,295,l),
(183,516,l),
(27,516,l),
(212,0,l),
(388,0,l)
);
}
);
userData = {
com.typemytype.robofont.pointLabels = {
};
};
width = 600;
}
);
unicode = 118;
},
{
glyphname = w;
layers = (
{
anchors = (
{
name = bottom;
pos = (300,0);
},
{
name = top;
pos = (300,516);
}
);
layerId = m001;
shapes = (
{
closed = 1;
nodes = (
(169,0,l),
(299,496,l),
(302,496,l),
(431,0,l),
(465,0,l),
(562,516,l),
(543,516,l),
(449,19,l),
(446,19,l),
(316,516,l),
(285,516,l),
(155,19,l),
(152,19,l),
(58,516,l),
(38,516,l),
(135,0,l)
);
}
);
userData = {
com.typemytype.robofont.pointLabels = {
};
};
width = 600;
},
{
anchors = (
{
name = bottom;
pos = (300,0);
},
{
name = top;
pos = (300,516);
}
);
layerId = m002;
shapes = (
{
closed = 1;
nodes = (
(213,0,l),
(297,432,l),
(305,432,l),
(387,0,l),
(491,0,l),
(570,516,l),
(501,516,l),
(442,70,l),
(433,70,l),
(345,516,l),
(257,516,l),
(169,70,l),
(160,70,l),
(101,516,l),
(30,516,l),
(109,0,l)
);
}
);
userData = {
com.typemytype.robofont.pointLabels = {
};
};
width = 600;
},
{
anchors = (
{
name = bottom;
pos = (300,0);
},
{
name = top;
pos = (300,516);
}
);
layerId = m003;
shapes = (
{
closed = 1;
nodes = (
(244,0,l),
(295,356,l),
(305,356,l),
(356,0,l),
(532,0,l),
(593,516,l),
(476,516,l),
(438,98,l),
(428,98,l),
(368,516,l),
(238,516,l),
(177,98,l),
(167,98,l),
(130,516,l),
(7,516,l),
(68,0,l)
);
}
);
userData = {
com.typemytype.robofont.pointLabels = {
};
};
width = 600;
}
);
unicode = 119;
},
{
glyphname = x;
layers = (
{
anchors = (
{
name = bottom;
pos = (300,0);
},
{
name = top;
pos = (300,516);
}
);
layerId = m001;
shapes = (
{
closed = 1;
nodes = (
(299,243,l),
(301,243,l),
(485,0,l),
(511,0,l),
(313,260,l),
(508,516,l),
(483,516,l),
(301,277,l),
(299,277,l),
(118,516,l),
(92,516,l),
(287,259,l),
(89,0,l),
(114,0,l)
);
}
);
userData = {
com.typemytype.robofont.pointLabels = {
};
};
width = 600;
},
{
anchors = (
{
name = bottom;
pos = (300,0);
},
{
name = top;
pos = (300,516);
}
);
layerId = m002;
shapes = (
{
closed = 1;
nodes = (
(237,121,l),
(294,203,l),
(298,203,l),
(357,121,l),
(444,0,l),
(540,0,l),
(346,263,l),
(535,516,l),
(443,516,l),
(366,407,l),
(306,321,l),
(302,321,l),
(240,407,l),
(162,516,l),
(66,516,l),
(253,262,l),
(61,0,l),
(153,0,l)
);
}
);
userData = {
com.typemytype.robofont.pointLabels = {
};
};
width = 600;
},
{
anchors = (
{
name = bottom;
pos = (300,0);
},
{
name = top;
pos = (300,516);
}
);
layerId = m003;
shapes = (
{
closed = 1;
nodes = (
(245,97,l),
(289,166,l),
(297,166,l),
(342,97,l),
(407,0,l),
(577,0,l),
(384,270,l),
(564,516,l),
(409,516,l),
(353,433,l),
(310,366,l),
(302,366,l),
(260,433,l),
(205,516,l),
(36,516,l),
(216,262,l),
(23,0,l),
(179,0,l)
);
}
);
userData = {
com.typemytype.robofont.pointLabels = {
};
};
width = 600;
}
);
unicode = 120;
},
{
glyphname = y;
layers = (
{
anchors = (
{
name = bottom;
pos = (440,0);
},
{
name = top;
pos = (297,516);
}
);
layerId = m001;
shapes = (
{
closed = 1;
nodes = (
(299,49,l),
(106,516,l),
(83,516,l),
(289,19,l),
(205,-181,l),
(94,-181,l),
(94,-200,l),
(196,-200,ls),
(211,-200,o),
(221,-194,o),
(227,-181,cs),
(517,516,l),
(495,516,l),
(302,49,l)
);
}
);
userData = {
com.typemytype.robofont.pointLabels = {
};
};
width = 600;
},
{
anchors = (
{
name = bottom;
pos = (460,0);
},
{
name = top;
pos = (300,516);
}
);
layerId = m002;
shapes = (
{
closed = 1;
nodes = (
(303,104,l),
(299,104,l),
(222,300,l),
(135,516,l),
(53,516,l),
(261,10,l),
(203,-132,l),
(83,-132,l),
(83,-200,l),
(159,-200,ls),
(237,-200,o),
(267,-172,o),
(291,-113,cs),
(547,516,l),
(467,516,l),
(380,300,l)
);
}
);
userData = {
com.typemytype.robofont.pointLabels = {
};
};
width = 600;
},
{
anchors = (
{
name = bottom;
pos = (482,0);
},
{
name = top;
pos = (303,516);
}
);
layerId = m003;
shapes = (
{
closed = 1;
nodes = (
(308,149,l),
(300,149,l),
(253,299,l),
(178,516,l),
(19,516,l),
(227,3,l),
(195,-85,l),
(71,-85,l),
(71,-200,l),
(173,-200,ls),
(261,-200,o),
(308,-158,o),
(338,-83,cs),
(581,516,l),
(430,516,l),
(353,299,l)
);
}
);
userData = {
com.typemytype.robofont.pointLabels = {
};
};
width = 600;
}
);
unicode = 121;
},
{
glyphname = z;
layers = (
{
anchors = (
{
name = bottom;
pos = (300,0);
},
{
name = top;
pos = (300,516);
}
);
layerId = m001;
shapes = (
{
closed = 1;
nodes = (
(498,19,l),
(125,19,l),
(488,495,l),
(488,516,l),
(112,516,l),
(112,497,l),
(465,497,l),
(102,21,l),
(102,0,l),
(498,0,l)
);
}
);
userData = {
com.typemytype.robofont.pointLabels = {
};
};
width = 600;
},
{
anchors = (
{
name = bottom;
pos = (300,0);
},
{
name = top;
pos = (300,516);
}
);
layerId = m002;
shapes = (
{
closed = 1;
nodes = (
(515,68,l),
(172,68,l),
(505,439,l),
(505,516,l),
(96,516,l),
(96,448,l),
(418,448,l),
(85,77,l),
(85,0,l),
(515,0,l)
);
}
);
userData = {
com.typemytype.robofont.pointLabels = {
};
};
width = 600;
},
{
anchors = (
{
name = bottom;
pos = (300,0);
},
{
name = top;
pos = (300,516);
}
);
layerId = m003;
shapes = (
{
closed = 1;
nodes = (
(534,115,l),
(237,115,l),
(524,393,l),
(524,516,l),
(76,516,l),
(76,401,l),
(353,401,l),
(66,123,l),
(66,0,l),
(534,0,l)
);
}
);
userData = {
com.typemytype.robofont.pointLabels = {
};
};
width = 600;
}
);
unicode = 122;
},
{
glyphname = a.alt01;
layers = (
{
anchors = (
{
name = bottom;
pos = (290,0);
},
{
name = bottomright;
pos = (475,0);
},
{
name = top;
pos = (290,516);
}
);
layerId = m001;
shapes = (
{
closed = 1;
nodes = (
(475,0,l),
(475,516,l),
(454,516,l),
(454,438,l),
(451,438,l),
(430,482,o),
(377,528,o),
(290,528,cs),
(158,528,o),
(80,437,o),
(80,258,cs),
(80,79,o),
(158,-12,o),
(290,-12,cs),
(377,-12,o),
(430,34,o),
(451,78,c),
(454,78,l),
(454,0,l)
);
},
{
closed = 1;
nodes = (
(170,7,o),
(103,94,o),
(103,234,cs),
(103,282,ls),
(103,422,o),
(170,509,o),
(290,509,cs),
(376,509,o),
(454,454,o),
(454,373,cs),
(454,143,ls),
(454,62,o),
(376,7,o),
(290,7,cs)
);
}
);
userData = {
com.typemytype.robofont.pointLabels = {
};
};
width = 600;
},
{
anchors = (
{
name = bottom;
pos = (287,0);
},
{
name = bottomright;
pos = (505,0);
},
{
name = top;
pos = (287,516);
}
);
layerId = m002;
shapes = (
{
closed = 1;
nodes = (
(505,0,l),
(505,516,l),
(425,516,l),
(425,432,l),
(421,432,l),
(388,495,o),
(334,528,o),
(262,528,cs),
(136,528,o),
(60,427,o),
(60,258,cs),
(60,89,o),
(136,-12,o),
(262,-12,cs),
(334,-12,o),
(388,21,o),
(421,84,c),
(425,84,l),
(425,0,l)
);
},
{
closed = 1;
nodes = (
(200,59,o),
(146,121,o),
(146,214,cs),
(146,302,ls),
(146,395,o),
(200,457,o),
(293,457,cs),
(364,457,o),
(425,420,o),
(425,351,c),
(425,165,l),
(425,96,o),
(364,59,o),
(293,59,cs)
);
}
);
userData = {
com.typemytype.robofont.pointLabels = {
};
};
width = 600;
},
{
anchors = (
{
name = bottom;
pos = (291,0);
},
{
name = bottomright;
pos = (541,0);
},
{
name = top;
pos = (291,516);
}
);
layerId = m003;
shapes = (
{
closed = 1;
nodes = (
(541,0,l),
(541,516,l),
(393,516,l),
(393,422,l),
(386,422,l),
(360,484,o),
(316,528,o),
(233,528,cs),
(119,528,o),
(39,445,o),
(39,258,cs),
(39,71,o),
(119,-12,o),
(233,-12,cs),
(316,-12,o),
(360,32,o),
(386,94,c),
(393,94,l),
(393,0,l)
);
},
{
closed = 1;
nodes = (
(231,103,o),
(193,146,o),
(193,218,cs),
(193,298,l),
(193,370,o),
(231,413,o),
(297,413,cs),
(349,413,o),
(393,388,o),
(393,334,c),
(393,182,l),
(393,128,o),
(349,103,o),
(297,103,cs)
);
}
);
userData = {
com.typemytype.robofont.pointLabels = {
};
};
width = 600;
}
);
},
{
glyphname = aogonek.alt01;
layers = (
{
anchors = (
{
name = bottom;
pos = (290,0);
},
{
name = top;
pos = (290,516);
}
);
layerId = m001;
shapes = (
{
closed = 1;
nodes = (
(454,516,l),
(454,438,l),
(451,438,l),
(430,482,o),
(377,528,o),
(290,528,cs),
(158,528,o),
(80,437,o),
(80,258,cs),
(80,79,o),
(158,-12,o),
(290,-12,cs),
(377,-12,o),
(430,34,o),
(451,78,c),
(454,78,l),
(454,2,l),
(361,-51,o),
(335,-95,o),
(335,-134,cs),
(335,-179,o),
(369,-202,o),
(414,-202,cs),
(450,-202,o),
(476,-188,o),
(489,-170,c),
(475,-159,l),
(465,-171,o),
(447,-184,o),
(414,-184,cs),
(380,-184,o),
(356,-170,o),
(356,-133,cs),
(356,-80,o),
(404,-46,o),
(475,0,c),
(475,516,l)
);
},
{
closed = 1;
nodes = (
(170,7,o),
(103,94,o),
(103,234,cs),
(103,282,ls),
(103,422,o),
(170,509,o),
(290,509,cs),
(376,509,o),
(454,454,o),
(454,373,cs),
(454,143,ls),
(454,62,o),
(376,7,o),
(290,7,cs)
);
}
);
userData = {
com.typemytype.robofont.pointLabels = {
};
};
width = 600;
},
{
anchors = (
{
name = bottom;
pos = (287,0);
},
{
name = top;
pos = (287,516);
}
);
layerId = m002;
shapes = (
{
closed = 1;
nodes = (
(483,-207,o),
(513,-188,o),
(526,-166,c),
(486,-125,l),
(473,-141,o),
(456,-151,o),
(434,-151,cs),
(413,-151,o),
(392,-142,o),
(392,-114,cs),
(392,-94,o),
(402,-65,o),
(505,0,c),
(505,516,l),
(425,516,l),
(425,432,l),
(421,432,l),
(388,495,o),
(334,528,o),
(262,528,cs),
(136,528,o),
(60,427,o),
(60,258,cs),
(60,89,o),
(136,-12,o),
(262,-12,cs),
(334,-12,o),
(388,21,o),
(421,84,c),
(425,84,l),
(425,0,l),
(438,0,l),
(439,-3,l),
(364,-39,o),
(324,-79,o),
(324,-127,cs),
(324,-180,o),
(372,-207,o),
(433,-207,cs)
);
},
{
closed = 1;
nodes = (
(200,59,o),
(146,121,o),
(146,214,c),
(146,302,ls),
(146,395,o),
(200,457,o),
(293,457,cs),
(364,457,o),
(425,420,o),
(425,351,cs),
(425,165,ls),
(425,96,o),
(364,59,o),
(293,59,cs)
);
}
);
userData = {
com.typemytype.robofont.pointLabels = {
};
};
width = 600;
},
{
anchors = (
{
name = bottom;
pos = (291,0);
},
{
name = top;
pos = (291,516);
}
);
layerId = m003;
shapes = (
{
closed = 1;
nodes = (
(514,-212,o),
(556,-193,o),
(573,-161,c),
(520,-110,l),
(506,-126,o),
(489,-138,o),
(465,-138,cs),
(445,-138,o),
(427,-130,o),
(427,-105,cs),
(427,-81,o),
(443,-60,o),
(541,0,c),
(541,516,l),
(393,516,l),
(393,422,l),
(386,422,l),
(360,484,o),
(316,528,o),
(233,528,cs),
(119,528,o),
(39,445,o),
(39,258,cs),
(39,71,o),
(119,-12,o),
(233,-12,cs),
(316,-12,o),
(360,32,o),
(386,94,c),
(393,94,l),
(393,0,l),
(445,0,l),
(446,-4,l),
(372,-38,o),
(327,-71,o),
(327,-127,cs),
(327,-191,o),
(385,-212,o),
(451,-212,cs)
);
},
{
closed = 1;
nodes = (
(231,103,o),
(193,146,o),
(193,218,c),
(193,298,ls),
(193,370,o),
(231,413,o),
(297,413,cs),
(349,413,o),
(393,388,o),
(393,334,cs),
(393,182,ls),
(393,128,o),
(349,103,o),
(297,103,cs)
);
}
);
userData = {
com.typemytype.robofont.pointLabels = {
};
};
width = 600;
}
);
},
{
glyphname = g.alt01;
layers = (
{
anchors = (
{
name = top;
pos = (290,516);
}
);
layerId = m001;
shapes = (
{
closed = 1;
nodes = (
(454,516,l),
(454,438,l),
(451,438,l),
(430,482,o),
(377,528,o),
(290,528,cs),
(158,528,o),
(80,437,o),
(80,258,cs),
(80,79,o),
(158,-12,o),
(290,-12,cs),
(377,-12,o),
(430,34,o),
(451,78,c),
(454,78,l),
(454,-12,ls),
(454,-134,o),
(391,-193,o),
(278,-193,cs),
(209,-193,o),
(163,-168,o),
(127,-130,c),
(113,-146,l),
(153,-187,o),
(207,-212,o),
(279,-212,cs),
(407,-212,o),
(475,-141,o),
(475,-10,cs),
(475,516,l)
);
},
{
closed = 1;
nodes = (
(170,7,o),
(103,94,o),
(103,234,cs),
(103,282,ls),
(103,422,o),
(170,509,o),
(290,509,cs),
(376,509,o),
(454,454,o),
(454,373,cs),
(454,143,ls),
(454,62,o),
(376,7,o),
(290,7,cs)
);
}
);
userData = {
com.typemytype.robofont.pointLabels = {
};
};
width = 600;
},
{
anchors = (
{
name = top;
pos = (287,516);
}
);
layerId = m002;
shapes = (
{
closed = 1;
nodes = (
(425,516,l),
(425,432,l),
(421,432,l),
(388,495,o),
(334,528,o),
(262,528,cs),
(136,528,o),
(60,427,o),
(60,265,cs),
(60,103,o),
(136,2,o),
(262,2,cs),
(334,2,o),
(388,35,o),
(421,98,c),
(425,98,l),
(425,12,ls),
(425,-90,o),
(376,-142,o),
(279,-142,cs),
(220,-142,o),
(175,-122,o),
(140,-86,c),
(93,-141,l),
(134,-183,o),
(194,-212,o),
(278,-212,cs),
(422,-212,o),
(505,-125,o),
(505,17,cs),
(505,516,l)
);
},
{
closed = 1;
nodes = (
(200,73,o),
(146,135,o),
(146,228,cs),
(146,302,ls),
(146,395,o),
(200,457,o),
(293,457,cs),
(364,457,o),
(425,420,o),
(425,351,c),
(425,179,l),
(425,110,o),
(364,73,o),
(293,73,cs)
);
}
);
userData = {
com.typemytype.robofont.pointLabels = {
};
};
width = 600;
},
{
anchors = (
{
name = top;
pos = (291,516);
}
);
layerId = m003;
shapes = (
{
closed = 1;
nodes = (
(393,516,l),
(393,422,l),
(386,422,l),
(360,484,o),
(316,528,o),
(233,528,cs),
(119,528,o),
(39,444,o),
(39,271,cs),
(39,98,o),
(119,14,o),
(233,14,cs),
(316,14,o),
(360,59,o),
(386,121,c),
(393,121,l),
(393,18,ls),
(393,-53,o),
(356,-96,o),
(276,-96,cs),
(225,-96,o),
(183,-78,o),
(149,-43,c),
(70,-137,l),
(111,-180,o),
(177,-212,o),
(280,-212,cs),
(453,-212,o),
(541,-122,o),
(541,31,cs),
(541,516,l)
);
},
{
closed = 1;
nodes = (
(231,129,o),
(193,173,o),
(193,245,cs),
(193,298,l),
(193,370,o),
(231,413,o),
(297,413,cs),
(349,413,o),
(393,388,o),
(393,334,c),
(393,208,l),
(393,154,o),
(349,129,o),
(297,129,cs)
);
}
);
userData = {
com.typemytype.robofont.pointLabels = {
};
};
width = 600;
}
);
},
{
glyphname = germandbls.alt01;
layers = (
{
layerId = m001;
shapes = (
{
closed = 1;
nodes = (
(154,0,l),
(154,521,ls),
(154,654,o),
(214,733,o),
(317,733,cs),
(420,733,o),
(474,654,o),
(474,521,c),
(474,506,l),
(353,504,o),
(279,469,o),
(279,378,cs),
(279,300,o),
(333,278,o),
(403,254,cs),
(447,239,ls),
(509,218,o),
(545,193,o),
(545,122,cs),
(545,45,o),
(502,7,o),
(411,7,cs),
(342,7,o),
(292,29,o),
(248,93,c),
(232,81,l),
(277,14,o),
(335,-12,o),
(411,-12,cs),
(511,-12,o),
(566,34,o),
(566,123,cs),
(566,206,o),
(519,236,o),
(451,259,cs),
(407,274,ls),
(339,297,o),
(300,317,o),
(300,377,cs),
(300,461,o),
(375,488,o),
(477,488,cs),
(494,488,l),
(494,521,ls),
(494,661,o),
(432,752,o),
(317,752,cs),
(201,752,o),
(133,661,o),
(133,521,cs),
(133,516,l),
(40,516,l),
(40,497,l),
(133,497,l),
(133,0,l)
);
}
);
userData = {
com.typemytype.robofont.pointLabels = {
};
};
width = 600;
},
{
layerId = m002;
shapes = (
{
closed = 1;
nodes = (
(181,0,l),
(181,528,ls),
(181,633,o),
(221,685,o),
(305,685,cs),
(388,685,o),
(426,635,o),
(426,528,cs),
(426,520,l),
(323,518,o),
(258,467,o),
(258,374,cs),
(258,276,o),
(329,253,o),
(404,229,cs),
(429,221,ls),
(483,204,o),
(497,169,o),
(497,132,cs),
(497,76,o),
(465,52,o),
(405,52,cs),
(356,52,o),
(316,68,o),
(285,110,c),
(234,64,l),
(276,11,o),
(327,-12,o),
(400,-12,cs),
(507,-12,o),
(572,38,o),
(572,140,cs),
(572,224,o),
(528,260,o),
(434,291,cs),
(410,299,ls),
(362,315,o),
(333,329,o),
(333,377,cs),
(333,437,o),
(377,460,o),
(457,460,cs),
(504,460,l),
(504,521,ls),
(504,661,o),
(434,752,o),
(306,752,cs),
(177,752,o),
(102,661,o),
(102,521,cs),
(102,516,l),
(28,516,l),
(28,448,l),
(102,448,l),
(102,0,l)
);
}
);
userData = {
com.typemytype.robofont.pointLabels = {
};
};
width = 600;
},
{
layerId = m003;
shapes = (
{
closed = 1;
nodes = (
(192,0,l),
(192,523,ls),
(192,600,o),
(219,642,o),
(295,642,cs),
(373,642,o),
(402,598,o),
(402,523,cs),
(402,514,l),
(312,497,o),
(261,448,o),
(261,364,cs),
(261,299,o),
(291,255,o),
(377,222,cs),
(408,210,ls),
(452,193,o),
(464,178,o),
(464,151,cs),
(464,105,o),
(431,94,o),
(401,94,cs),
(368,94,o),
(336,107,o),
(310,137,c),
(227,59,l),
(266,10,o),
(334,-12,o),
(406,-12,cs),
(531,-12,o),
(600,56,o),
(600,165,cs),
(600,236,o),
(568,279,o),
(484,312,cs),
(453,324,ls),
(415,339,o),
(397,353,o),
(397,381,cs),
(397,422,o),
(435,427,o),
(482,427,cs),
(538,427,l),
(538,521,ls),
(538,661,o),
(442,752,o),
(292,752,cs),
(140,752,o),
(48,659,o),
(48,519,cs),
(48,516,l),
(0,516,l),
(0,401,l),
(48,401,l),
(48,0,l)
);
}
);
userData = {
com.typemytype.robofont.pointLabels = {
};
};
width = 600;
}
);
},
{
glyphname = g.alt02;
layers = (
{
anchors = (
{
name = top;
pos = (305,516);
}
);
layerId = m001;
shapes = (
{
closed = 1;
nodes = (
(456,-212,o),
(543,-165,o),
(543,-63,cs),
(543,9,o),
(495,55,o),
(380,55,cs),
(245,55,l),
(175,55,o),
(158,83,o),
(158,111,cs),
(158,149,o),
(189,175,o),
(249,191,c),
(269,187,o),
(285,184,o),
(305,184,cs),
(408,184,o),
(478,252,o),
(478,356,cs),
(478,418,o),
(454,468,o),
(411,497,c),
(543,497,l),
(543,516,l),
(377,516,l),
(356,524,o),
(331,528,o),
(305,528,cs),
(198,528,o),
(132,460,o),
(132,356,cs),
(132,279,o),
(166,226,o),
(223,201,c),
(223,198,l),
(179,185,o),
(138,157,o),
(138,110,cs),
(138,78,o),
(154,54,o),
(191,43,c),
(191,40,l),
(128,20,o),
(90,-20,o),
(90,-81,cs),
(90,-160,o),
(154,-212,o),
(304,-212,cs)
);
},
{
closed = 1;
nodes = (
(212,203,o),
(156,261,o),
(156,337,cs),
(156,375,ls),
(156,451,o),
(210,509,o),
(305,509,cs),
(400,509,o),
(454,451,o),
(454,375,cs),
(454,337,ls),
(454,261,o),
(400,203,o),
(305,203,cs)
);
},
{
closed = 1;
nodes = (
(521,-153,o),
(443,-193,o),
(328,-193,cs),
(279,-193,ls),
(178,-193,o),
(114,-152,o),
(114,-82,cs),
(114,-17,o),
(159,19,o),
(222,35,c),
(377,35,ls),
(485,35,o),
(521,-2,o),
(521,-64,cs)
);
}
);
userData = {
com.typemytype.robofont.pointLabels = {
};
};
width = 600;
},
{
anchors = (
{
name = top;
pos = (300,516);
}
);
layerId = m002;
shapes = (
{
closed = 1;
nodes = (
(473,-212,o),
(561,-163,o),
(561,-59,cs),
(561,25,o),
(504,79,o),
(371,79,cs),
(257,79,ls),
(208,79,o),
(174,86,o),
(174,117,cs),
(174,152,o),
(217,170,o),
(248,176,c),
(264,173,o),
(280,172,o),
(297,172,cs),
(418,172,o),
(498,245,o),
(498,350,cs),
(498,388,o),
(487,425,o),
(462,452,c),
(556,452,l),
(556,516,l),
(375,516,l),
(352,524,o),
(326,528,o),
(297,528,cs),
(176,528,o),
(97,455,o),
(97,350,cs),
(97,277,o),
(135,220,o),
(198,192,c),
(198,188,l),
(145,175,o),
(105,151,o),
(105,98,cs),
(105,63,o),
(122,41,o),
(151,27,c),
(151,15,l),
(98,1,o),
(67,-29,o),
(67,-84,cs),
(67,-166,o),
(135,-212,o),
(301,-212,cs)
);
},
{
closed = 1;
nodes = (
(218,234,o),
(181,275,o),
(181,336,cs),
(181,365,ls),
(181,426,o),
(218,466,o),
(297,466,cs),
(377,466,o),
(414,426,o),
(414,365,cs),
(414,336,ls),
(414,275,o),
(377,234,o),
(297,234,cs)
);
},
{
closed = 1;
nodes = (
(486,-119,o),
(431,-148,o),
(338,-148,cs),
(260,-148,ls),
(176,-148,o),
(143,-110,o),
(143,-65,cs),
(143,-32,o),
(161,-9,o),
(195,5,c),
(374,5,ls),
(457,5,o),
(486,-22,o),
(486,-63,cs)
);
}
);
userData = {
com.typemytype.robofont.pointLabels = {
};
};
width = 600;
},
{
anchors = (
{
name = top;
pos = (296,516);
}
);
layerId = m003;
shapes = (
{
closed = 1;
nodes = (
(493,-212,o),
(583,-161,o),
(583,-52,cs),
(583,35,o),
(526,97,o),
(378,97,cs),
(260,97,ls),
(219,97,o),
(184,99,o),
(184,132,cs),
(184,150,o),
(195,162,o),
(210,170,c),
(235,163,o),
(264,160,o),
(294,160,cs),
(430,160,o),
(520,226,o),
(520,342,cs),
(520,373,o),
(514,397,o),
(498,418,c),
(581,418,l),
(581,516,l),
(387,516,l),
(360,524,o),
(329,528,o),
(296,528,cs),
(159,528,o),
(70,464,o),
(70,345,cs),
(70,269,o),
(106,215,o),
(167,185,c),
(167,179,l),
(111,166,o),
(74,145,o),
(74,95,cs),
(74,50,o),
(102,27,o),
(146,14,c),
(146,8,l),
(84,-8,o),
(47,-35,o),
(47,-93,cs),
(47,-163,o),
(101,-212,o),
(297,-212,cs)
);
},
{
closed = 1;
nodes = (
(236,254,o),
(210,287,o),
(210,332,cs),
(210,356,ls),
(210,401,o),
(236,434,o),
(294,434,cs),
(353,434,o),
(380,401,o),
(380,356,cs),
(380,332,ls),
(380,287,o),
(353,254,o),
(294,254,cs)
);
},
{
closed = 1;
nodes = (
(443,-98,o),
(413,-117,o),
(346,-117,cs),
(259,-117,ls),
(194,-117,o),
(169,-94,o),
(169,-62,cs),
(169,-45,o),
(176,-31,o),
(189,-20,c),
(366,-20,ls),
(426,-20,o),
(443,-36,o),
(443,-63,cs)
);
}
);
userData = {
com.typemytype.robofont.pointLabels = {
};
};
width = 600;
}
);
},
{
glyphname = fi;
layers = (
{
layerId = m001;
shapes = (
{
closed = 1;
nodes = (
(158,0,l),
(158,497,l),
(452,497,l),
(452,0,l),
(473,0,l),
(473,516,l),
(158,516,l),
(158,721,l),
(340,721,l),
(340,740,l),
(166,740,ls),
(146,740,o),
(137,731,o),
(137,711,cs),
(137,516,l),
(44,516,l),
(44,497,l),
(137,497,l),
(137,0,l)
);
},
{
closed = 1;
nodes = (
(482,691,o),
(492,699,o),
(492,714,cs),
(492,722,ls),
(492,737,o),
(482,745,o),
(463,745,cs),
(444,745,o),
(434,737,o),
(434,722,cs),
(434,714,ls),
(434,699,o),
(444,691,o),
(463,691,cs)
);
}
);
userData = {
com.typemytype.robofont.pointLabels = {
};
};
width = 600;
},
{
layerId = m002;
shapes = (
{
closed = 1;
nodes = (
(188,0,l),
(188,448,l),
(422,448,l),
(422,0,l),
(502,0,l),
(502,516,l),
(188,516,l),
(188,672,l),
(335,672,l),
(335,740,l),
(222,740,ls),
(144,740,o),
(108,691,o),
(108,622,cs),
(108,516,l),
(38,516,l),
(38,448,l),
(108,448,l),
(108,0,l)
);
},
{
closed = 1;
nodes = (
(508,630,o),
(525,652,o),
(525,681,cs),
(525,697,ls),
(525,726,o),
(508,748,o),
(462,748,cs),
(416,748,o),
(399,726,o),
(399,697,cs),
(399,681,ls),
(399,652,o),
(416,630,o),
(462,630,cs)
);
}
);
userData = {
com.typemytype.robofont.pointLabels = {
};
};
width = 600;
},
{
layerId = m003;
shapes = (
{
closed = 1;
nodes = (
(223,0,l),
(223,401,l),
(387,401,l),
(387,0,l),
(535,0,l),
(535,516,l),
(223,516,l),
(223,625,l),
(329,625,l),
(329,740,l),
(232,740,ls),
(125,740,o),
(75,678,o),
(75,591,cs),
(75,516,l),
(31,516,l),
(31,401,l),
(75,401,l),
(75,0,l)
);
},
{
closed = 1;
nodes = (
(527,582,o),
(550,613,o),
(550,652,cs),
(550,681,ls),
(550,721,o),
(527,751,o),
(461,751,cs),
(395,751,o),
(372,721,o),
(372,681,cs),
(372,652,ls),
(372,613,o),
(395,582,o),
(461,582,cs)
);
}
);
userData = {
com.typemytype.robofont.pointLabels = {
};
};
width = 600;
}
);
unicode = 64257;
},
{
glyphname = fl;
layers = (
{
layerId = m001;
shapes = (
{
closed = 1;
nodes = (
(158,0,l),
(158,497,l),
(357,497,l),
(357,516,l),
(158,516,l),
(158,721,l),
(358,721,l),
(358,740,l),
(166,740,ls),
(146,740,o),
(137,731,o),
(137,711,cs),
(137,516,l),
(44,516,l),
(44,497,l),
(137,497,l),
(137,0,l)
);
},
{
closed = 1;
nodes = (
(473,0,l),
(473,740,l),
(452,740,l),
(452,0,l)
);
}
);
userData = {
com.typemytype.robofont.pointLabels = {
};
};
width = 600;
},
{
layerId = m002;
shapes = (
{
closed = 1;
nodes = (
(188,0,l),
(188,448,l),
(345,448,l),
(345,516,l),
(188,516,l),
(188,672,l),
(345,672,l),
(345,740,l),
(222,740,ls),
(144,740,o),
(108,691,o),
(108,622,cs),
(108,516,l),
(38,516,l),
(38,448,l),
(108,448,l),
(108,0,l)
);
},
{
closed = 1;
nodes = (
(502,0,l),
(502,740,l),
(422,740,l),
(422,0,l)
);
}
);
userData = {
com.typemytype.robofont.pointLabels = {
};
};
width = 600;
},
{
layerId = m003;
shapes = (
{
closed = 1;
nodes = (
(223,0,l),
(223,401,l),
(331,401,l),
(331,516,l),
(223,516,l),
(223,625,l),
(330,625,l),
(330,740,l),
(232,740,ls),
(125,740,o),
(75,678,o),
(75,591,cs),
(75,516,l),
(31,516,l),
(31,401,l),
(75,401,l),
(75,0,l)
);
},
{
closed = 1;
nodes = (
(535,0,l),
(535,740,l),
(387,740,l),
(387,0,l)
);
}
);
userData = {
com.typemytype.robofont.pointLabels = {
};
};
width = 600;
}
);
unicode = 64258;
},
